<?xml version="1.0" standalone="no"?>
<!DOCTYPE svg PUBLIC "-//W3C//DTD SVG 1.1//EN" "http://www.w3.org/Graphics/SVG/1.1/DTD/svg11.dtd" >
<svg>
<metadata>
Created by FontForge 20090622 at Mon Feb 20 16:07:04 2017
 By deploy user
Copyright (c) 2003 by Muthu Nedumaran. All rights reserved.
</metadata>
<defs>
<font id="BanglaSangamMN" horiz-adv-x="0" >
  <font-face 
    font-family="Bangla Sangam MN"
    font-weight="400"
    font-stretch="normal"
    units-per-em="2048"
    panose-1="2 0 0 0 0 0 0 0 0 0"
    ascent="1638"
    descent="-410"
    x-height="1018"
    cap-height="1417"
    bbox="-1043 -550 2607 1930"
    underline-thickness="102"
    underline-position="-103"
    unicode-range="U+0020-U+25CC"
  />
<missing-glyph horiz-adv-x="1126" 
d="M151 0v1679h836v-1679h-836zM271 120h594v1439h-594v-1439z" />
    <glyph glyph-name="bn_rra" unicode="&#x9a1;&#x9bc;" horiz-adv-x="1174" 
d="M595 0q-75 0 -140 29.5t-120.5 79t-101.5 115t-82 137t-62 145t-42 139.5l99 47q11 -41 32.5 -99t52 -121.5t70 -126.5t86.5 -113t101.5 -81t115.5 -31q60 0 108 18.5t85 50t63 72.5t42.5 86t24.5 90t8 85q0 14 -1 26t-6 37q-42 -49 -78.5 -80.5t-71 -50t-68.5 -26
t-70 -7.5q-49 0 -87 21.5t-64.5 53.5t-40 70.5t-13.5 73.5v461h-435v81h1191v-81h-641v-426q0 -18 4.5 -40t16.5 -41t34 -31.5t57 -12.5q27 0 56 11t60 36t64 65t68 97l158 -65q7 -27 8 -58t1 -60q0 -67 -13 -136t-39.5 -133t-66.5 -120t-93.5 -97.5t-121 -65.5t-148.5 -24z
M583 -88q30 0 52.5 -11t37.5 -29.5t22.5 -42t7.5 -48.5q-2 -24 -12 -44.5t-26.5 -36t-38.5 -24.5t-47 -9q-24 0 -46 10.5t-38 28t-25.5 40t-9.5 45.5q0 25 9.5 47t26 38.5t39 26t48.5 9.5z" />
    <glyph glyph-name="bn_rha" unicode="&#x9a7;&#x9bc;" horiz-adv-x="950" 
d="M361 -88q29 0 51.5 -11t37.5 -29.5t22.5 -42t7.5 -48.5q-2 -24 -12 -44.5t-26.5 -36t-38.5 -24.5t-47 -9q-26 0 -47.5 10.5t-37.5 28t-25 40t-9 45.5q0 25 9 47t25.5 38.5t39.5 26t50 9.5zM683 565q-19 -40 -52.5 -64t-73.5 -24q-32 0 -56.5 12t-41 30.5t-25 41.5
t-8.5 45q0 34 14 60.5t37 44.5t54 27.5t66 9.5q57 0 100.5 -24.5t73.5 -64t45.5 -90.5t15.5 -103q0 -89 -36.5 -173t-101 -149t-152.5 -104.5t-191 -39.5q-47 0 -88.5 19.5t-72 52t-48.5 74.5t-18 86v869h-124v81h965v-81h-726v-815q0 -20 6 -49t22.5 -56.5t45.5 -47
t74 -19.5q49 0 108 28.5t110 77t85.5 112t34.5 132.5q0 52 -20 101h-22z" />
    <glyph glyph-name="bn_reph" unicode="&#x9b0;&#x9cd;" 
d="M-351 1313l160.5 170.5l158.5 169.5l73 -54l-147 -177.5l-146 -175.5z" />
    <glyph glyph-name="bn_ra_phala" unicode="&#x9cd;&#x9b0;" 
d="M-282 202h115v-220q-32 -12 -58 -26.5t-57 -28.5q-39 30 -67 47.5t-50 26.5t-41 11.5t-40 2.5q-35 0 -66.5 -10.5t-62 -23t-61.5 -23t-65 -10.5q-51 0 -99.5 14.5t-90 39.5t-72.5 59.5t-46 73.5l86 37q21 -45 50 -69.5t59 -36.5t58 -14t46 -2q35 0 66.5 11t62 24t61 24
t63.5 11q30 0 59.5 -8.5t56.5 -22t50.5 -29t42.5 -30.5v172z" />
    <glyph glyph-name="bn_ya_phala" unicode="&#x200d;&#x9cd;&#x9af;" horiz-adv-x="548" 
d="M557 1101h-203q-30 -33 -50.5 -68.5t-33.5 -70t-19 -65t-6 -52.5q0 -44 10 -81.5t25.5 -73.5t33.5 -71.5t33.5 -74t25.5 -82t10 -95.5q0 -68 -15 -123t-38 -100t-49.5 -80t-50.5 -62q-16 11 -33.5 24.5l-33.5 26.5l-36 31l47 59t46 70t34.5 83t13.5 98q0 51 -22 100
t-48.5 99t-48.5 101.5t-22 107.5q0 85 28 162.5t73 136.5h-228v81h557v-81z" />
    <glyph glyph-name="bn_rha.001" unicode="&#x9a2;&#x9bc;" horiz-adv-x="950" 
d="M361 -88q29 0 51.5 -11t37.5 -29.5t22.5 -42t7.5 -48.5q-2 -24 -12 -44.5t-26.5 -36t-38.5 -24.5t-47 -9q-26 0 -47.5 10.5t-37.5 28t-25 40t-9 45.5q0 25 9 47t25.5 38.5t39.5 26t50 9.5zM683 565q-19 -40 -52.5 -64t-73.5 -24q-32 0 -56.5 12t-41 30.5t-25 41.5
t-8.5 45q0 34 14 60.5t37 44.5t54 27.5t66 9.5q57 0 100.5 -24.5t73.5 -64t45.5 -90.5t15.5 -103q0 -89 -36.5 -173t-101 -149t-152.5 -104.5t-191 -39.5q-47 0 -88.5 19.5t-72 52t-48.5 74.5t-18 86v869h-124v81h965v-81h-726v-815q0 -20 6 -49t22.5 -56.5t45.5 -47
t74 -19.5q49 0 108 28.5t110 77t85.5 112t34.5 132.5q0 52 -20 101h-22z" />
    <glyph glyph-name="bn_yya.001" unicode="&#x9af;&#x9bc;" horiz-adv-x="1002" 
d="M268 230q29 0 51.5 -11.5t37.5 -30.5t22.5 -42t7.5 -47q-2 -24 -11.5 -45t-26 -36.5t-38.5 -24t-47 -8.5t-46.5 10.5t-38 27.5t-26 39t-9.5 46q0 25 9.5 47t26 38.5t39.5 26.5t49 10zM730 0q-57 70 -121 135.5t-142 120t-173 93.5t-215 57l-34 80q19 33 54 74.5
t82.5 82.5t107.5 76.5t130 56.5q-21 41 -57 87t-83 90t-102.5 82.5t-115.5 65.5h-61v81h1016v-81h-171v-1056zM503 685q-36 -5 -82.5 -23.5t-91.5 -46.5t-83.5 -63t-60.5 -72q94 -15 177 -51t152.5 -84t123.5 -102.5t92 -105.5v964h-482q49 -28 93 -68t81.5 -84.5
t66.5 -89.5t49 -83z" />
    <glyph glyph-name=".notdef" horiz-adv-x="1126" 
d="M151 0v1679h836v-1679h-836zM271 120h594v1439h-594v-1439z" />
    <glyph glyph-name=".null" 
 />
    <glyph glyph-name=".null" 
 />
    <glyph glyph-name="space" unicode=" " horiz-adv-x="614" 
 />
    <glyph glyph-name="percent" unicode="%" horiz-adv-x="1729" 
d="M377 0l840 1366h149l-840 -1366h-149zM129 1049q0 70 25.5 131t70 106.5t104 71.5t128.5 26q68 0 128 -26t104.5 -71.5t70.5 -106.5t26 -131t-26 -131.5t-70.5 -107.5t-104.5 -72.5t-128 -26.5q-69 0 -128.5 26.5t-104 72.5t-70 107.5t-25.5 131.5zM254 1049
q0 -45 16 -84.5t43.5 -69t64.5 -47t79 -17.5t79.5 17.5t65 47t44 69t16.5 84.5q0 44 -16.5 83.5t-44 69t-65 47t-79.5 17.5t-79 -17.5t-64.5 -47t-43.5 -69t-16 -83.5zM973 319q0 70 25 131.5t69.5 107.5t104 72.5t128.5 26.5t128.5 -26.5t104 -72.5t70 -107.5t25.5 -131.5
t-25.5 -131.5t-70 -107t-104 -72t-128.5 -26.5t-128.5 26.5t-104 72t-69.5 107t-25 131.5zM1098 319q0 -44 16 -83.5t43 -69t64 -47t79 -17.5t79.5 17.5t65.5 47t44 69t16 83.5q0 45 -16 84.5t-44 69t-65.5 47t-79.5 17.5t-79 -17.5t-64 -47t-43 -69t-16 -84.5z" />
    <glyph glyph-name="ampersand" unicode="&#x26;" horiz-adv-x="1405" 
d="M1200 645q-9 -103 -38.5 -202.5t-80.5 -184.5l117 -126l127 -132h-190l-71 72.5t-65 74.5q-38 -41 -84 -75t-99.5 -59.5t-113 -39.5t-124.5 -14q-125 0 -211 35t-139 90.5t-77 124.5t-24 137q0 70 29 131t77 115.5t109.5 104.5l126.5 98q-78 117 -120 214.5t-42 176.5
q0 54 22 106t65 93t105 66.5t142 25.5q84 0 147 -27t105 -69.5t63 -95t21 -103.5q0 -63 -26.5 -119t-70 -107t-100 -98t-116.5 -92l139.5 -180.5l179.5 -214.5q31 59 49.5 128t26.5 146h141zM575 104q100 0 182.5 40t145.5 112l-190.5 220.5t-163.5 205.5
q-55 -40 -105 -80.5t-88.5 -82t-61 -85t-22.5 -90.5q0 -62 26 -107.5t69 -75t97 -43.5t111 -14zM451 1188q0 -53 32 -128t101 -183q51 37 96 74t78.5 74.5t53 76.5t19.5 80q0 40 -15 70t-41 49t-61 28.5t-75 9.5q-36 0 -70 -10t-60 -29t-42 -47t-16 -65z" />
    <glyph glyph-name="parenleft" unicode="(" horiz-adv-x="588" 
d="M549 1624q-125 -233 -182.5 -469.5t-57.5 -484.5q0 -246 57.5 -483t182.5 -468h-109q-79 102 -138.5 216t-99 234.5t-59.5 246.5t-20 254q0 127 19.5 253t59 247t99 235.5t139.5 218.5h109z" />
    <glyph glyph-name="parenright" unicode=")" horiz-adv-x="549" 
d="M147 1624q162 -210 240 -453.5t78 -500.5q0 -128 -19.5 -254.5t-59.5 -247t-99.5 -234t-139.5 -215.5h-110q129 228 187.5 465.5t58.5 485.5q0 247 -58.5 484.5t-187.5 469.5h110z" />
    <glyph glyph-name="asterisk" unicode="*" horiz-adv-x="979" 
d="M584 1466l-23 -303l279 119l55 -147l-309 -72l50 -55.5l55 -59l55.5 -58l50.5 -52.5l-121 -93l-168 254l-174 -254l-121 93l213 225l-303 76l47 143l285 -121l-27 305h156z" />
    <glyph glyph-name="plus" unicode="+" horiz-adv-x="1247" 
d="M127 821h455v443h114v-443h459v-114h-459v-443h-114v443h-455v114z" />
    <glyph glyph-name="comma" unicode="," horiz-adv-x="416" 
d="M336 197v-248q0 -91 -46.5 -153t-121.5 -91l-51 70q33 13 52.5 30t30 38t14 47.5t3.5 58.5v51h-74v197h193z" />
    <glyph glyph-name="period" unicode="." horiz-adv-x="395" 
d="M315 197v-197h-192v197h192z" />
    <glyph glyph-name="slash" unicode="/" horiz-adv-x="610" 
d="M139 -41h-139l477 1507h133z" />
    <glyph glyph-name="zero" unicode="0" horiz-adv-x="1147" 
d="M244 696q0 -153 25 -262t69 -179t102.5 -103t126.5 -33t127 33t103 103t69 179t25 262t-25 262.5t-69 180t-103 104t-127 33.5t-126.5 -33.5t-102.5 -104t-69 -180t-25 -262.5zM1042 696q0 -161 -30.5 -289.5t-90 -219t-148.5 -139t-206 -48.5t-205.5 48.5t-148 139
t-89.5 219t-30 289.5q0 160 30 289t89.5 220t148 139.5t205.5 48.5t206 -48.5t148.5 -139.5t90 -220t30.5 -289z" />
    <glyph glyph-name="one" unicode="1" horiz-adv-x="1147" 
d="M698 0v1120q-48 -68 -100 -115.5t-112 -77t-128 -42.5t-147 -13v146q82 0 150 18.5t122 49t94.5 70t67 81t40 82.5t13.5 74h144v-1393h-144z" />
    <glyph glyph-name="two" unicode="2" horiz-adv-x="1147" 
d="M115 975q10 95 48.5 172.5t100 132t144.5 84t184 29.5q105 0 184.5 -32.5t133.5 -86t81 -123t27 -143.5q0 -86 -31.5 -153t-83 -123t-118.5 -105l-138 -97l-121.5 -86t-105.5 -88t-84 -97.5t-57 -113.5h739v-145h-901v137q23 84 70.5 154t108 130t129.5 111.5l134 96.5
l113.5 81.5t98.5 85t69 90t26 97.5q0 72 -21.5 126.5t-58.5 91t-87 55t-107 18.5q-68 0 -125 -20.5t-98.5 -59t-66 -94t-28.5 -125.5h-159z" />
    <glyph glyph-name="three" unicode="3" horiz-adv-x="1147" 
d="M135 997q14 78 46 149t85.5 125.5t129.5 87t177 32.5q94 0 168.5 -26.5t126.5 -74t79.5 -112t27.5 -140.5q0 -102 -52 -181t-149 -124q59 -21 108 -53t84 -75.5t54.5 -100t19.5 -127.5q0 -98 -36.5 -172t-98.5 -124t-144 -75.5t-173 -25.5q-98 0 -179 29t-144 83.5
t-106 134t-65 181.5h158q16 -89 51.5 -148t82 -94.5t99 -50.5t103.5 -15q54 0 108 19.5t97 56t69.5 87.5t26.5 114q0 61 -22 113.5t-63.5 91.5t-100 61.5t-130.5 22.5h-90v133h90q70 0 118 19.5t78 51.5t43 73t13 83q0 57 -17.5 102.5t-50.5 77.5t-79.5 49t-104.5 17
q-65 0 -115 -24t-85.5 -62.5t-56.5 -88t-27 -100.5h-154z" />
    <glyph glyph-name="four" unicode="4" horiz-adv-x="1147" 
d="M711 0v344h-635v170l624 860h154v-911h203v-119h-203v-344h-143zM201 463h510v717z" />
    <glyph glyph-name="five" unicode="5" horiz-adv-x="1147" 
d="M135 655l92 719h736v-121h-621q-12 -112 -27 -218t-28 -220q42 33 87 51.5t86.5 27.5t75 11t52.5 2q97 0 180 -36.5t143.5 -99t94.5 -147t34 -180.5q0 -89 -29.5 -172.5t-90 -148.5t-152.5 -104t-217 -39q-83 0 -156.5 22.5t-133 67.5t-102.5 113t-65 159h156
q18 -58 49 -103t71 -76t87 -47t96 -16q69 0 130 26.5t107 73t72.5 109t26.5 135.5q0 75 -29 137t-76 106.5t-107.5 69.5t-123.5 25q-36 0 -74.5 -8.5t-75 -25t-68.5 -40t-56 -53.5h-144z" />
    <glyph glyph-name="six" unicode="6" horiz-adv-x="1147" 
d="M874 1063q-8 38 -30 76t-57 68t-81.5 48.5t-101.5 18.5q-70 0 -124 -27t-94 -73t-67.5 -106t-44.5 -126t-25 -134.5t-9 -129.5q31 61 76 102.5t94 66.5t96.5 35.5t85.5 10.5q101 0 182 -35.5t138 -98t87.5 -147.5t30.5 -184q0 -91 -30 -172t-86 -142.5t-137 -97.5
t-183 -36q-111 0 -201.5 41t-154.5 121t-99 199.5t-35 276.5q0 201 35 347t100 241t156.5 141t204.5 46q92 0 164.5 -27.5t124 -73.5t83 -105.5t42.5 -123.5h-140zM594 100q61 0 113.5 25.5t90.5 70t59.5 104.5t21.5 128q0 66 -20.5 126t-58.5 106t-91 73t-117 27
q-76 0 -132.5 -30.5t-93.5 -78t-55 -106t-18 -113.5q0 -71 25 -132t66.5 -105.5t96 -69.5t113.5 -25z" />
    <glyph glyph-name="seven" unicode="7" horiz-adv-x="1147" 
d="M307 0q24 169 68 332t112.5 320t162.5 307t218 294h-776v121h950v-114q-110 -138 -203 -274.5t-167 -286t-127 -320.5t-82 -379h-156z" />
    <glyph glyph-name="eight" unicode="8" horiz-adv-x="1147" 
d="M109 385q0 54 16.5 105.5t45.5 96.5t70 82t89 64q-43 25 -78 57t-59.5 70.5t-38 81.5t-13.5 90q0 75 33.5 140t91 114t135 77t164.5 28q88 0 166 -28t135.5 -77t91 -114t33.5 -140q0 -46 -13.5 -89.5t-38.5 -81.5t-59.5 -70.5t-76.5 -57.5q50 -27 91 -64t70.5 -82
t45.5 -96.5t16 -105.5q0 -84 -36 -158t-98.5 -129t-146.5 -86.5t-180 -31.5q-95 0 -178.5 31.5t-145 86.5t-97 129t-35.5 158zM258 385q0 -59 24 -111t65.5 -90.5t97.5 -61t120 -22.5t120.5 22.5t98.5 61t66 90.5t24 111q0 60 -24 112.5t-66 91t-98.5 61t-120.5 22.5
t-120 -22.5t-97.5 -61t-65.5 -91t-24 -112.5zM293 1032q0 -49 21.5 -92.5t58.5 -76t86.5 -51.5t105.5 -19q57 0 107.5 19t88 51.5t59.5 76t22 92.5t-22 92.5t-59.5 76.5t-88 52t-107.5 19q-56 0 -105.5 -19t-86.5 -52t-58.5 -76.5t-21.5 -92.5z" />
    <glyph glyph-name="nine" unicode="9" horiz-adv-x="1147" 
d="M258 311q8 -38 30.5 -76t57.5 -68t81.5 -48.5t102.5 -18.5q70 0 124 27t93.5 73t66.5 106t44 126t24.5 133.5t8.5 128.5q-32 -59 -77 -100t-93.5 -66.5t-95.5 -37t-84 -11.5q-102 0 -183 35.5t-137.5 98t-86.5 148t-30 185.5q0 90 29.5 171t86 142.5t137.5 97.5t184 36
q111 0 201.5 -40.5t154.5 -120.5t98.5 -199.5t34.5 -276.5q0 -201 -35 -347t-99.5 -241.5t-156 -141.5t-204.5 -46q-92 0 -164.5 28t-125 74t-83.5 105.5t-41 123.5h137zM541 1274q-62 0 -115 -25.5t-91 -70t-59.5 -104.5t-21.5 -128q0 -67 20.5 -127t58.5 -105.5
t90.5 -72.5t117.5 -27q76 0 133 30.5t94 78t55.5 105.5t18.5 114q0 72 -25 132.5t-66.5 105t-96 69.5t-113.5 25z" />
    <glyph glyph-name="colon" unicode=":" horiz-adv-x="395" 
d="M315 1018v-199h-192v199h192zM315 197v-197h-192v197h192z" />
    <glyph glyph-name="semicolon" unicode=";" horiz-adv-x="416" 
d="M336 1018v-199h-193v199h193zM336 197v-248q0 -91 -46.5 -153t-121.5 -91l-51 70q33 13 52.5 30t30 38t14 47.5t3.5 58.5v51h-74v197h193z" />
    <glyph glyph-name="less" unicode="&#x3c;" horiz-adv-x="1165" 
d="M127 623l946 409v-133l-811 -332l406.5 -164.5l404.5 -164.5v-136l-946 410v111z" />
    <glyph glyph-name="equal" unicode="=" horiz-adv-x="1247" 
d="M1155 961v-113h-1028v113h1028zM1155 575v-114h-1028v114h1028z" />
    <glyph glyph-name="greater" unicode="&#x3e;" horiz-adv-x="1165" 
d="M127 102v134l813 327l-813 336v133l946 -409v-111z" />
    <glyph glyph-name="question" unicode="?" horiz-adv-x="1034" 
d="M446 412v98q0 63 26 113.5t65.5 94.5t85 85t85 85t65.5 94.5t26 113.5q0 54 -15.5 101t-47 82t-80 55t-113.5 20q-60 0 -109.5 -24t-86 -67.5t-58 -104.5t-25.5 -134h-139q4 100 36 183.5t87.5 142.5t130.5 92t164 33q109 0 185.5 -32.5t124.5 -86t69.5 -121.5t21.5 -139
q0 -66 -24 -119.5t-59.5 -99.5t-77 -88t-77 -86t-59.5 -92.5t-24 -108.5v-90h-177zM623 180v-180h-177v180h177z" />
    <glyph glyph-name="bullet" unicode="&#x2022;" horiz-adv-x="666" 
d="M356 379q-46 0 -86.5 18t-71 48.5t-48 71t-17.5 85.5q0 46 17.5 87t48 71.5t71 48.5t86.5 18t87 -18t71.5 -48.5t48 -71.5t17.5 -87q0 -45 -17.5 -85.5t-48 -71t-71.5 -48.5t-87 -18z" />
    <glyph glyph-name="quotedblright" unicode="&#x201d;" horiz-adv-x="725" 
d="M332 1409v-258q0 -51 -15 -94.5t-42 -77t-65 -56t-85 -32.5v110q28 10 46 24t28.5 32.5t14 41.5t3.5 52v27h-92v231h207zM641 1409v-258q0 -51 -15 -94.5t-42 -77t-65 -56t-85 -32.5v110q28 10 46 24t27.5 32.5t13 41.5t3.5 52v27h-90v231h207z" />
    <glyph glyph-name="quotedblleft" unicode="&#x201c;" horiz-adv-x="725" 
d="M434 934v256q0 105 55.5 172.5t151.5 89.5v-113q-29 -9 -47 -22.5t-28 -32t-13.5 -42t-3.5 -52.5v-27h92v-229h-207zM125 934v256q0 105 55.5 172.5t151.5 89.5v-113q-29 -9 -47 -22.5t-28 -32t-13.5 -42t-3.5 -52.5v-27h92v-229h-207z" />
    <glyph glyph-name="bracketleft" unicode="[" horiz-adv-x="459" 
d="M463 1577v-98h-203v-1665h203v-101h-340v1864h340z" />
    <glyph glyph-name="bracketright" unicode="]" horiz-adv-x="416" 
d="M336 -287h-342v101h203v1665h-203v98h342v-1864z" />
    <glyph glyph-name="asciicircum" unicode="^" horiz-adv-x="899" 
d="M545 1434l350 -510h-123l-328 422l-327 -422h-121l346 510h203z" />
    <glyph glyph-name="underscore" unicode="_" horiz-adv-x="1198" 
d="M1106 -303v-117h-979v117h979z" />
    <glyph glyph-name="quoteright" unicode="&#x2019;" horiz-adv-x="410" 
d="M330 1409v-258q0 -103 -55.5 -171.5t-151.5 -88.5v110q28 10 46 24t28.5 32.5t14 41.5t3.5 52v27h-92v231h207z" />
    <glyph glyph-name="emdash" unicode="&#x2014;" horiz-adv-x="1634" 
d="M1536 645v-145h-1407v145h1407z" />
    <glyph glyph-name="endash" unicode="&#x2013;" horiz-adv-x="1384" 
d="M1290 645v-145h-1163v145h1163z" />
    <glyph glyph-name="hyphen" unicode="-" horiz-adv-x="666" 
d="M582 645v-145h-457v145h457z" />
    <glyph glyph-name="numbersign" unicode="#" horiz-adv-x="1503" 
d="M852 473h-311l-88 -473h-111l84 473h-299l18 100h295l62 310h-303l22 100h297l82 451h113l-80 -451h315l78 451h117l-86 -451h352l-12 -63l-11 -37h-344l-55 -310h346l-12 -63l-10 -37h-342l-90 -473h-115zM930 883h-314l-61 -310h313z" />
    <glyph glyph-name="exclam" unicode="!" horiz-adv-x="377" 
d="M297 1425v-585l-39 -480h-96l-39 478v587h174zM297 197v-197h-174v197h174z" />
    <glyph glyph-name="quotedbl" unicode="&#x22;" horiz-adv-x="623" 
d="M262 1425v-524h-139v524h139zM539 1425v-524h-136v524h136z" />
    <glyph glyph-name="uni25CC" unicode="&#x25cc;" horiz-adv-x="1346" 
d="M1186 858l-112 -79q-56 90 -148 145l79 112q113 -69 181 -178zM814 1122l-23 -135q-50 9 -102 9q-55 0 -103 -9l-25 135q65 15 126 15q63 0 127 -15zM1265 559q0 -62 -13 -127l-138 26q10 47 10 101q0 53 -10 104l138 21q13 -64 13 -125zM1186 261q-70 -110 -181 -182
l-79 115q92 55 148 147zM451 924q-93 -55 -147 -145l-113 79q66 109 180 178zM262 458l-137 -26q-14 62 -14 127q0 66 14 125l137 -21q-11 -51 -11 -104q0 -54 11 -101zM814 -3q-64 -15 -127 -15q-61 0 -126 15l25 137q48 -12 103 -12q52 0 102 12zM451 194l-80 -115
q-111 72 -180 182l113 80q54 -92 147 -147z" />
    <glyph glyph-name="dollar" unicode="$" horiz-adv-x="1155" 
d="M655 1386q69 -7 132 -30.5t114 -65.5t87 -102.5t50 -140.5h-141q-59 177 -242 204v-491l100 -43t95.5 -47.5t85 -55.5t68 -67t45 -83t16.5 -102q0 -95 -36.5 -164t-95 -115t-131.5 -71t-147 -32v-232h-137v236q-75 13 -141 51t-117.5 95t-86.5 131t-48 159h147
q10 -55 31 -103t52 -86.5t72 -66t91 -39.5v532q-69 30 -134.5 64t-116.5 79t-82 103.5t-31 136.5q0 71 28.5 131t78 105t116 73.5t141.5 36.5v150h137v-150zM920 358q0 41 -23 76t-60.5 65.5t-85 56t-96.5 46.5v-485q61 6 110 27t83.5 53.5t53 73.5t18.5 87zM299 1047
q0 -42 16.5 -76.5t46 -62.5t69.5 -51t87 -44v436q-51 -8 -91.5 -27t-69 -45.5t-43.5 -59.5t-15 -70z" />
    <glyph glyph-name="ZWNJ" unicode="&#x200c;" 
 />
    <glyph glyph-name="ZWJ" unicode="&#x200d;" 
 />
    <glyph glyph-name="quotesingle" unicode="'" horiz-adv-x="338" 
d="M258 1425v-524h-135v524h135z" />
    <glyph glyph-name="at" unicode="@" horiz-adv-x="1612" 
d="M1116 918h125l-160 -556q-5 -17 -7.5 -32t-2.5 -27q0 -51 41 -51q16 0 44 6.5t60.5 23.5t66 46.5t60.5 76t44.5 112t17.5 153.5q0 108 -43.5 198t-115.5 154.5t-166 100.5t-195 36q-132 0 -246.5 -48.5t-199 -134t-133 -203t-48.5 -255.5q0 -131 50 -238t133 -183
t191 -117t224 -41q78 0 148 16.5t129 47t107.5 73.5t84.5 96h125q-35 -89 -99 -155.5t-147 -110t-180.5 -65t-198.5 -21.5q-89 0 -175 23t-163 66t-141.5 104.5t-112 138.5t-74 168t-26.5 192q0 118 28 220.5t78 187t119.5 151t153.5 112t179 69.5t196 24q124 0 239 -44
t204 -123t142.5 -188.5t53.5 -240.5q0 -134 -40.5 -236t-106.5 -171t-151 -104.5t-175 -35.5q-27 0 -48.5 9t-37 25t-24.5 37t-11 44q-44 -62 -96.5 -88.5t-124.5 -26.5q-65 0 -117 25.5t-88.5 67.5t-56 95.5t-19.5 108.5q0 90 31.5 182t88.5 167t136.5 122t175.5 47
q47 0 83.5 -16.5t63 -39.5t43 -48t23.5 -43zM979 457q17 54 26.5 88t14 55.5t5.5 33t1 19.5q0 39 -12.5 71t-34.5 55t-51.5 35.5t-63.5 12.5q-37 0 -74 -17t-70.5 -46t-62 -67t-49.5 -80t-33 -85.5t-12 -82.5q0 -36 9 -72t28.5 -64.5t50 -46.5t74.5 -18q39 0 77.5 14
t72.5 40.5t61 65.5t43 89z" />
    <glyph glyph-name="A" unicode="A" horiz-adv-x="1251" 
d="M727 1417l516 -1417h-160l-157 434h-609l-157 -434h-162l522 1417h207zM621 1278l-254 -711h507z" />
    <glyph glyph-name="B" unicode="B" horiz-adv-x="1241" 
d="M125 1417h551q92 0 165 -26.5t123.5 -71.5t77.5 -105.5t27 -128.5q0 -102 -51.5 -188t-159.5 -143q81 -23 137.5 -60t91.5 -83t50.5 -100t15.5 -112q0 -82 -34 -154.5t-91 -127t-131.5 -86t-155.5 -31.5h-616v1417zM276 821h365q64 0 117 19.5t91 52.5t59.5 77.5
t21.5 94.5q0 46 -15.5 85.5t-47.5 68t-81.5 45t-117.5 16.5h-392v-459zM276 137h402q57 0 114 16t103 49t75 84t29 120q0 57 -25.5 108.5t-74 90t-118.5 61t-158 22.5h-347v-551z" />
    <glyph glyph-name="C" unicode="C" horiz-adv-x="1446" 
d="M279 727q0 -162 42 -281.5t110 -198t155 -117t176 -38.5q93 0 168 33.5t130.5 88.5t91 126t50.5 145h154q-21 -110 -69.5 -205.5t-123.5 -167t-175.5 -112.5t-225.5 -41q-145 0 -262.5 52.5t-200 151.5t-127.5 242t-45 324q0 93 19 183.5t56 171.5t91.5 149.5
t124.5 118.5t156 78t186 28q127 0 226 -33.5t173 -93t123.5 -142t77.5 -179.5h-160q-56 159 -163 237t-277 78q-106 0 -194.5 -48.5t-152 -130.5t-99 -190.5t-35.5 -228.5z" />
    <glyph glyph-name="D" unicode="D" horiz-adv-x="1352" 
d="M127 1417h526q141 0 254 -56t192.5 -152t122 -224.5t42.5 -273.5q0 -151 -45 -281t-126 -225.5t-193 -150t-247 -54.5h-526v1417zM276 137h316q112 0 207 38.5t164 112t108 180t39 241.5q0 147 -39 255t-108.5 178t-164.5 104t-206 34h-316v-1143z" />
    <glyph glyph-name="E" unicode="E" horiz-adv-x="1194" 
d="M1071 1417v-137h-795v-479h748v-137h-748v-527h830v-137h-981v1417h946z" />
    <glyph glyph-name="F" unicode="F" horiz-adv-x="1135" 
d="M1049 1417v-137h-773v-479h672v-137h-672v-664h-151v1417h924z" />
    <glyph glyph-name="G" unicode="G" horiz-adv-x="1466" 
d="M279 711q0 -146 39 -260.5t105.5 -193t155 -120t187.5 -41.5q58 0 114.5 20t107.5 55t95 83.5t76.5 105.5t52 120t21.5 128h-440v133h583v-741h-92l-45 252q-35 -55 -88 -107t-115 -92.5t-130.5 -65t-135.5 -24.5q-148 0 -267 57.5t-202.5 158t-128.5 237.5t-45 295
q0 92 19 183.5t56 174.5t91.5 154t124.5 123.5t156 82t186 29.5q127 0 226 -33.5t173 -93t123.5 -142t77.5 -179.5h-160q-56 159 -163 237t-277 78q-106 0 -194.5 -49.5t-152 -133.5t-99 -195.5t-35.5 -235.5z" />
    <glyph glyph-name="H" unicode="H" horiz-adv-x="1286" 
d="M276 1417v-616h771v616h151v-1417h-151v668h-771v-668h-151v1417h151z" />
    <glyph glyph-name="I" unicode="I" horiz-adv-x="518" 
d="M352 1417v-1417h-151v1417h151z" />
    <glyph glyph-name="J" unicode="J" horiz-adv-x="983" 
d="M899 1417v-1046q0 -110 -31.5 -188t-84.5 -128t-124 -73t-149 -23q-75 0 -144.5 23.5t-123 70.5t-85.5 116t-32 161v110h151v-92q0 -66 21.5 -114.5t55.5 -80t76.5 -46.5t84.5 -15q34 0 74.5 13t76 43t59.5 80t24 124v1065h151z" />
    <glyph glyph-name="K" unicode="K" horiz-adv-x="1309" 
d="M276 1417v-725l723 725h199l-561 -557l594 -860h-191l-508 752l-256 -252v-500h-151v1417h151z" />
    <glyph glyph-name="L" unicode="L" horiz-adv-x="1075" 
d="M276 1417v-1280h713v-137h-864v1417h151z" />
    <glyph glyph-name="M" unicode="M" horiz-adv-x="1518" 
d="M322 1417l450 -1208l459 1208h196v-1417h-151v1163l-426 -1163h-137l-434 1163v-1163h-152v1417h195z" />
    <glyph glyph-name="N" unicode="N" horiz-adv-x="1288" 
d="M328 1417l721 -1224v1224h151v-1417h-203l-721 1225v-1225h-151v1417h203z" />
    <glyph glyph-name="O" unicode="O" horiz-adv-x="1489" 
d="M1399 707q0 -164 -42.5 -300.5t-123.5 -235t-199.5 -153.5t-271.5 -55q-152 0 -270.5 55t-199.5 153.5t-123 235t-42 300.5q0 163 42 300t123 235t199.5 153t270.5 55q153 0 271.5 -55t199.5 -153t123.5 -235t42.5 -300zM1247 707q0 144 -37.5 257t-103 191.5t-154 120
t-190.5 41.5t-190.5 -41.5t-153.5 -120t-102 -191.5t-37 -257t37 -257t102 -192t153.5 -120.5t190.5 -41.5t190.5 41.5t154 120.5t103 192t37.5 257z" />
    <glyph glyph-name="P" unicode="P" horiz-adv-x="1176" 
d="M125 1417h537q103 0 183 -36t134.5 -93.5t82.5 -129.5t28 -144q0 -78 -28.5 -151t-83 -129.5t-134 -91t-182.5 -34.5h-386v-608h-151v1417zM276 741h386q55 0 105 21.5t88 58.5t60.5 87t22.5 108q0 57 -21 105t-58 83.5t-87.5 55.5t-109.5 20h-386v-539z" />
    <glyph glyph-name="Q" unicode="Q" horiz-adv-x="1513" 
d="M1399 707q0 -166 -45.5 -304.5t-128.5 -238.5l205 -203l-95 -92l-207 205q-74 -54 -165.5 -82.5t-200.5 -28.5q-152 0 -270.5 55t-199.5 153.5t-123 235t-42 300.5q0 163 42 300t123 235t199.5 153t270.5 55q153 0 271.5 -55t199.5 -153t123.5 -235t42.5 -300zM1247 707
q0 144 -37.5 257t-102.5 191.5t-153.5 120t-191.5 41.5q-102 0 -190.5 -41.5t-153.5 -120t-102 -191.5t-37 -257t37 -257t102 -192t153.5 -120.5t190.5 -41.5q72 0 138 21t122 61l-145 146l94 96l147 -150q59 79 94 189t35 248z" />
    <glyph glyph-name="R" unicode="R" horiz-adv-x="1241" 
d="M1133 1014q0 -53 -12.5 -103.5t-37.5 -95.5t-62.5 -83.5t-86.5 -65.5q55 -14 90 -42.5t55 -66.5t27.5 -83t7.5 -91v-215q0 -47 12.5 -90t32.5 -78h-164q-10 16 -16 37t-9 43t-4 43t-1 37v225q0 41 -14 81t-45 71.5t-80.5 51t-120.5 19.5h-429v-608h-151v1417h580
q103 0 183 -36t134.5 -93.5t82.5 -129.5t28 -144zM276 741h429q56 0 106 21.5t88 58.5t60 87t22 108q0 57 -21 105t-57.5 83.5t-87 55.5t-110.5 20h-429v-539z" />
    <glyph glyph-name="S" unicode="S" horiz-adv-x="1253" 
d="M281 442q5 -76 34.5 -139.5t78 -110t115 -72.5t146.5 -26q71 0 136 15.5t114.5 49.5t79 88t29.5 132q0 63 -32 107t-84 76.5t-118.5 55.5t-134.5 44q-85 25 -170.5 56t-154 79t-111.5 119.5t-43 177.5q0 88 34.5 155.5t97 113.5t149 69.5t190.5 23.5q92 0 163 -18.5
t124.5 -50t90 -73t60 -88.5t35 -96.5t14.5 -95.5h-155q-6 71 -34 125t-72.5 90.5t-102.5 55t-123 18.5q-59 0 -116.5 -12t-102.5 -39.5t-73 -71t-28 -106.5q0 -65 31.5 -110.5t84 -78t120 -56.5t139.5 -46q86 -26 171 -57t152 -78t108.5 -116.5t41.5 -172.5
q0 -104 -38 -182.5t-106 -131.5t-161.5 -79.5t-204.5 -26.5q-100 0 -194 33.5t-167.5 96.5t-119.5 152.5t-49 200.5h156z" />
    <glyph glyph-name="T" unicode="T" horiz-adv-x="1303" 
d="M1214 1417v-137h-469v-1280h-151v1280h-469v137h1089z" />
    <glyph glyph-name="U" unicode="U" horiz-adv-x="1264" 
d="M276 1417v-954q0 -87 32 -156t83.5 -116.5t116 -73t129.5 -25.5q70 0 139 23.5t124 69.5t89.5 114.5t34.5 159.5v958h152v-948q0 -124 -48 -219t-124.5 -159.5t-172.5 -98t-192 -33.5q-92 0 -183.5 33t-165 97.5t-119.5 160.5t-46 223v944h151z" />
    <glyph glyph-name="V" unicode="V" horiz-adv-x="1151" 
d="M571 197l406 1220h166l-473 -1417h-189l-481 1417h166z" />
    <glyph glyph-name="W" unicode="W" horiz-adv-x="1741" 
d="M864 1180l-348 -1180h-156l-358 1417h158l282 -1147l351 1147h143l346 -1136l143.5 568l143.5 568h157l-358 -1417h-156z" />
    <glyph glyph-name="X" unicode="X" horiz-adv-x="1120" 
d="M641 709l227.5 -355l227.5 -354h-172l-367 578l-369 -578h-172l455 711l-451 706h168l367 -575l369 575h172z" />
    <glyph glyph-name="Y" unicode="Y" horiz-adv-x="1167" 
d="M584 702l405 715h174l-508 -848v-569h-151v569l-508 848h174z" />
    <glyph glyph-name="Z" unicode="Z" horiz-adv-x="1280" 
d="M125 150l903 1130h-903v137h1067v-176l-889 -1104h889v-137h-1067v150z" />
    <glyph glyph-name="backslash" unicode="\" horiz-adv-x="590" 
d="M113 1468l477 -1509h-119l-471 1509h113z" />
    <glyph glyph-name="grave" unicode="`" horiz-adv-x="410" 
d="M123 934v256q0 105 55.5 172.5t151.5 89.5v-113q-29 -9 -46.5 -22.5t-28 -32t-14 -42t-3.5 -52.5v-27h92v-229h-207z" />
    <glyph glyph-name="a" unicode="a" horiz-adv-x="1157" 
d="M154 745q4 75 41 130t93.5 91t125.5 53t137 17q75 0 146 -16.5t126 -52.5t88 -93.5t33 -138.5v-536q0 -16 6 -32t16 -28.5t23.5 -20t28.5 -7.5q11 0 22.5 2.5t26.5 7.5v-123q-32 -9 -54.5 -13.5t-49.5 -4.5q-65 0 -107.5 48t-48.5 148q-48 -63 -95 -101.5t-93.5 -59.5
t-94 -28t-96.5 -7q-63 0 -118 20t-95.5 57.5t-64 90.5t-23.5 118t28.5 111.5t75.5 79.5t107 56t122 41l122 34t107 36t75.5 46.5t28.5 64.5q0 89 -65 128.5t-181 39.5q-45 0 -85.5 -9t-71.5 -28t-52 -49t-27 -72h-157zM793 575q-31 -33 -81.5 -55t-108 -39.5t-116 -33.5
t-105.5 -38.5t-76.5 -54.5t-29.5 -80q0 -44 15 -74.5t40 -50.5t56.5 -29t63.5 -9q94 0 183.5 56.5t158.5 174.5v233z" />
    <glyph glyph-name="b" unicode="b" horiz-adv-x="1073" 
d="M125 1425h151v-555q26 36 60.5 66.5t72.5 52.5t77.5 34.5t76.5 12.5q105 0 183.5 -41.5t131 -113.5t79 -168.5t26.5 -206.5t-27 -206.5t-80.5 -168t-132.5 -113t-184 -41.5q-40 0 -79.5 11t-76.5 33.5t-69.5 55.5t-57.5 77v-154h-151v1425zM276 506q0 -82 18.5 -154
t54 -125.5t87 -84.5t117.5 -31q67 0 119 31t88 84.5t55 125.5t19 154t-19 154.5t-55 126.5t-88 85t-119 31q-65 0 -115.5 -30t-85.5 -81.5t-54.5 -121t-21.5 -148.5v-16z" />
    <glyph glyph-name="c" unicode="c" horiz-adv-x="1075" 
d="M825 705q-15 54 -38 92t-54 61.5t-71 34t-89 10.5q-71 0 -126 -30.5t-93 -82.5t-58 -120.5t-20 -143.5q0 -78 20 -153t58 -133t92.5 -93.5t122.5 -35.5q55 0 97.5 19.5t74 53.5t52 78.5t30.5 95.5h164q-11 -89 -45 -159.5t-88 -120t-127.5 -75.5t-163.5 -26
q-76 0 -137.5 22.5t-110 61.5t-84 92t-58.5 114t-34.5 127t-11.5 132q0 108 31.5 201t90 161.5t141.5 108t185 39.5q89 0 159 -25t121 -69.5t83 -105t47 -131.5h-160z" />
    <glyph glyph-name="d" unicode="d" horiz-adv-x="1073" 
d="M834 522q-2 79 -21.5 148.5t-55 121t-86.5 81.5t-116 30q-66 0 -118 -31t-87.5 -85t-54.5 -126.5t-19 -154.5t19 -154t54.5 -125.5t87.5 -84.5t118 -31q67 0 119 31t87.5 84.5t54 125.5t18.5 154v16zM983 0h-149v154q-53 -88 -129 -132.5t-156 -44.5q-104 0 -183 41.5
t-132.5 113t-81 168t-27.5 206.5t26.5 206.5t79.5 168.5t131.5 113.5t182.5 41.5q37 0 76.5 -12.5t77.5 -34.5t73 -52.5t62 -66.5v555h149v-1425z" />
    <glyph glyph-name="e" unicode="e" horiz-adv-x="1133" 
d="M285 481q1 -71 25 -138t65.5 -118.5t97.5 -82.5t121 -31q220 0 291 204h137q-17 -80 -58 -142.5t-98.5 -105t-127 -65t-144.5 -22.5q-107 0 -193.5 44t-147 118.5t-93.5 173t-33 208.5q0 102 32.5 195t93 163.5t146.5 112t193 41.5q103 0 186.5 -37.5t142 -103.5t90 -157
t31.5 -197v-60h-757zM887 598q-2 64 -23.5 120t-61 97t-95 64.5t-125.5 23.5q-63 0 -116.5 -25t-93.5 -67.5t-63 -97.5t-24 -115h602z" />
    <glyph glyph-name="f" unicode="f" horiz-adv-x="680" 
d="M252 1018v250q0 43 15 79t43 62.5t68 41.5t91 15q26 0 61 -10t66 -29v-118q-25 11 -46 16.5t-32 5.5q-51 0 -83 -22t-32 -70v-221h179v-133h-179v-885h-151v885h-174v133h174z" />
    <glyph glyph-name="g" unicode="g" horiz-adv-x="1100" 
d="M1010 -25q0 -105 -36 -185t-96 -134t-137.5 -81.5t-160.5 -27.5q-72 0 -135 18t-116 56t-94 96.5t-69 139.5h151q42 -93 106 -134.5t157 -41.5q57 0 107.5 21.5t88.5 59.5t60 90.5t22 114.5v178q-53 -83 -128.5 -125.5t-154.5 -42.5q-104 0 -186.5 42t-141 114.5
t-89.5 169.5t-31 207t31 206t88 167t137 112t178 41q34 0 72.5 -7.5t77.5 -26t76.5 -50.5t70.5 -80v146h152v-1043zM858 522q-2 79 -21 148.5t-54 121t-86 81.5t-115 30q-66 0 -122 -30.5t-97 -84t-64 -125t-23 -153.5t23 -154.5t64 -127t97 -86t122 -31.5t117.5 31
t86.5 84.5t53.5 125.5t18.5 154v16z" />
    <glyph glyph-name="h" unicode="h" horiz-adv-x="1032" 
d="M276 1425v-551q31 46 69 77t80.5 50t89 27t95.5 8q73 0 134 -23t105 -64t68.5 -97t24.5 -121v-731h-149v705q0 54 -18 91.5t-48.5 61t-70 34.5t-81.5 11q-53 0 -106.5 -22t-96 -60.5t-69.5 -90.5t-27 -112v-618h-151v1425h151z" />
    <glyph glyph-name="i" unicode="i" horiz-adv-x="434" 
d="M313 1425v-176h-149v176h149zM313 1018v-1018h-149v1018h149z" />
    <glyph glyph-name="j" unicode="j" horiz-adv-x="352" 
d="M272 1425v-176h-151v176h151zM272 1018v-1206q0 -64 -17.5 -112t-49 -80t-74 -48t-92.5 -16q-20 0 -41 3.5t-41 14.5v131q23 -11 34.5 -13.5t20.5 -2.5q29 0 50 12t34 32.5t19 48t6 58.5v1178h151z" />
    <glyph glyph-name="k" unicode="k" horiz-adv-x="1032" 
d="M569 643l381 -643h-176l-311 535l-187 -187v-348h-151v1425h151v-878l482 471h184z" />
    <glyph glyph-name="l" unicode="l" horiz-adv-x="434" 
d="M313 1425v-1425h-149v1425h149z" />
    <glyph glyph-name="m" unicode="m" horiz-adv-x="1616" 
d="M129 1018h150v-160q32 48 71.5 81.5t81.5 55t84.5 31.5t81.5 10q38 0 74.5 -10t70.5 -32t65.5 -57.5t59.5 -86.5q29 50 68 85.5t83 58.5t90 33.5t89 10.5q70 0 128.5 -23.5t101 -65t66.5 -98t24 -122.5v-729h-150v686q0 64 -18 105.5t-47 66.5t-64.5 35t-71.5 10
q-47 0 -94.5 -21t-85.5 -58t-62 -87.5t-24 -109.5v-627h-149v686q0 64 -18.5 105.5t-46.5 66.5t-61.5 35t-64.5 10q-59 0 -110.5 -27.5t-89.5 -70t-60 -93t-22 -96.5v-616h-150v1018z" />
    <glyph glyph-name="n" unicode="n" horiz-adv-x="1030" 
d="M125 1018h151v-154q79 91 171 131.5t188 40.5q72 0 128.5 -21t96 -60.5t60 -96t20.5 -127.5v-731h-149v713q0 52 -12.5 88.5t-36.5 59t-58.5 32.5t-77.5 10q-69 0 -129 -24.5t-105 -65t-70.5 -93t-25.5 -108.5v-612h-151v1018z" />
    <glyph glyph-name="o" unicode="o" horiz-adv-x="1143" 
d="M127 508q0 109 30.5 205t89 168t144.5 113.5t197 41.5t198 -41.5t146 -113.5t90 -168t31 -205t-31 -205t-90 -167t-146 -112.5t-198 -41.5t-197 41.5t-144.5 112.5t-89 167t-30.5 205zM276 508q0 -81 21.5 -153t62 -125t98.5 -84t130 -31t130 31t98.5 84t62.5 125t22 153
t-22 153t-62.5 126t-98.5 85t-130 31t-130 -31t-98.5 -85t-62 -126t-21.5 -153z" />
    <glyph glyph-name="p" unicode="p" horiz-adv-x="1106" 
d="M127 1018h149v-154q26 42 62 75t76.5 55.5t83 34t82.5 11.5q103 0 184.5 -41.5t137 -113t85 -167.5t29.5 -206t-28.5 -206.5t-84 -168.5t-136 -113.5t-183.5 -41.5q-39 0 -82 11t-84 32.5t-77.5 54t-64.5 74.5v-572h-149v1436zM276 496q2 -79 24.5 -148.5t61.5 -121
t92.5 -81.5t118.5 -30q66 0 120 31t92 85t58.5 126.5t20.5 154.5t-20.5 154t-58.5 125.5t-92 84.5t-120 31t-120.5 -31t-94 -84.5t-61 -125.5t-21.5 -154v-16z" />
    <glyph glyph-name="q" unicode="q" horiz-adv-x="1106" 
d="M864 512q0 82 -21.5 154t-60.5 125.5t-93.5 84.5t-121.5 31q-66 0 -119.5 -31t-92 -84.5t-59 -125.5t-20.5 -154t20.5 -154.5t59 -126.5t92 -85t119.5 -31q65 0 119 30t93 81.5t61 121t24 148.5v16zM1016 -418h-152v572q-27 -42 -64 -74.5t-77.5 -54t-83.5 -32.5t-82 -11
q-104 0 -184 41.5t-134.5 113.5t-83 168.5t-28.5 206.5t29 206t84.5 167.5t136 113t184.5 41.5q40 0 82.5 -11.5t83 -34t76 -55.5t61.5 -75v154h152v-1436z" />
    <glyph glyph-name="r" unicode="r" horiz-adv-x="635" 
d="M125 1018h149l-6 -156q47 85 111.5 129.5t150.5 44.5q16 0 35.5 -3t34.5 -9v-154q-48 17 -74 17q-60 0 -106.5 -22.5t-79 -60t-49.5 -87t-17 -103.5v-614h-149v1018z" />
    <glyph glyph-name="s" unicode="s" horiz-adv-x="1010" 
d="M281 315q1 -56 19.5 -95t49.5 -63t73.5 -35t92.5 -11q41 0 85.5 7.5t82 25.5t62 49t24.5 79q0 43 -26 74t-69 54.5t-97.5 42l-111.5 39t-111.5 44.5t-97.5 57.5t-69 79t-26 109.5q0 67 29.5 117t78.5 82.5t113 48.5t133 16q78 0 145.5 -16.5t117.5 -50.5t79.5 -86.5
t32.5 -124.5q-19 0 -42 1t-38 1h-72q-5 41 -24.5 68.5t-49 44t-68 23.5t-81.5 7q-99 0 -151 -36.5t-52 -96.5q0 -40 26 -69.5t69 -52.5t97.5 -43l112 -40.5t112 -44.5t97.5 -56t69 -74.5t26 -100.5q0 -83 -33 -141.5t-88.5 -96t-129.5 -54.5t-155 -17q-78 0 -148 20.5
t-123 62.5t-85 105t-35 147h156z" />
    <glyph glyph-name="t" unicode="t" horiz-adv-x="623" 
d="M356 1321v-303h158v-129h-158v-660q0 -34 8.5 -56.5t23.5 -36t35.5 -19.5t45.5 -6q15 0 31.5 1.5t38.5 6.5v-123q-28 -8 -61.5 -12t-67.5 -4q-41 0 -78 10.5t-65.5 34t-45 60.5t-16.5 91v713h-158v129h158v303h151z" />
    <glyph glyph-name="u" unicode="u" horiz-adv-x="1030" 
d="M940 18h-149v154q-79 -91 -171.5 -131.5t-189.5 -40.5q-71 0 -127.5 21t-96 61t-60.5 96t-21 127v731h151v-712q0 -53 12.5 -89t36.5 -59t58.5 -33t77.5 -10q68 0 128 24.5t105 65t71 93t26 108.5v612h149v-1018z" />
    <glyph glyph-name="v" unicode="v" horiz-adv-x="922" 
d="M453 178l301 840h159l-374 -1018h-164l-377 1018h162z" />
    <glyph glyph-name="w" unicode="w" horiz-adv-x="1391" 
d="M688 848l-235 -848h-158l-293 1018h154l219 -832l229 832h168l223 -832l226 832h153l-291 -1018h-159z" />
    <glyph glyph-name="x" unicode="x" horiz-adv-x="926" 
d="M549 508l352 -508h-182l-260 377l-262 -377h-183l355 508l-353 510h181l262 -377l260 377h182z" />
    <glyph glyph-name="y" unicode="y" horiz-adv-x="905" 
d="M451 188l286 830h158l-438 -1243q-21 -60 -49 -101.5t-59 -68t-63.5 -38t-62.5 -11.5q-28 0 -54.5 3.5t-55.5 14.5v131q15 -6 40 -13t50 -7q27 0 47.5 16.5t36.5 40.5t27 50.5t18 47.5l47 148l-381 1030h164z" />
    <glyph glyph-name="z" unicode="z" horiz-adv-x="1030" 
d="M940 1018v-144l-618 -737h618v-137h-815v131l610 741h-610v146h815z" />
    <glyph glyph-name="braceleft" unicode="{" horiz-adv-x="621" 
d="M457 844q0 -34 -13 -68.5t-36 -64t-55 -50.5t-70 -28q37 -9 68.5 -30t55 -49.5t37 -62t13.5 -65.5v-504q0 -49 31.5 -70.5t82.5 -21.5q11 0 32 5.5t46 14.5v-116q-31 -19 -66.5 -29t-60.5 -10q-51 0 -91 15t-68 41.5t-43 63t-15 79.5v475q0 29 -4.5 63.5t-19 64.5t-41 50
t-70.5 20h-45v133h45q44 0 70.5 20.5t41 50.5t19 64.5t4.5 63.5v477q0 42 15 78.5t43 63.5t68 42t91 15q25 0 60.5 -10t66.5 -29v-119q-25 11 -46 17t-32 6q-51 0 -82.5 -22t-31.5 -70v-504v0z" />
    <glyph glyph-name="bar" unicode="|" horiz-adv-x="371" 
d="M250 1624v-1905h-121v1905h121z" />
    <glyph glyph-name="braceright" unicode="}" horiz-adv-x="584" 
d="M168 426q0 32 13 65.5t36 62t54.5 49.5t68.5 30q-38 7 -69.5 28t-54 50.5t-35.5 64t-13 68.5v504q0 48 -32 70t-83 22q-11 0 -32 -6t-46 -17v119q31 19 66 29t61 10q51 0 91.5 -15t68 -42t42.5 -63.5t15 -78.5v-477q0 -29 5 -63.5t19.5 -64.5t41 -50.5t70.5 -20.5h45
v-133h-45q-44 0 -70.5 -20t-41 -50t-19.5 -64.5t-5 -63.5v-475q0 -43 -15 -79.5t-42.5 -63t-68 -41.5t-91.5 -15q-26 0 -61 10t-66 29v116q25 -9 46 -14.5t32 -5.5q51 0 83 21.5t32 70.5v504v0z" />
    <glyph glyph-name="asciitilde" unicode="~" horiz-adv-x="1266" 
d="M1198 831q-3 -101 -28 -180t-68 -133.5t-101.5 -83t-128.5 -28.5q-53 0 -92 15t-69 39t-53.5 54.5l-45.5 60.5q-21 33 -43 63t-47.5 53t-56.5 36.5t-70 13.5q-57 0 -97.5 -29.5t-67 -74.5t-40 -98t-14.5 -101h-115q2 85 23.5 163.5t63 138.5t103.5 96t144 36
q67 0 116 -18t85.5 -46.5t64 -64.5l52.5 -71q21 -30 40 -54.5t39 -42t43 -27t52 -9.5q37 0 71 22t60.5 61t43 92.5t19.5 116.5h117z" />
    <glyph glyph-name="quoteleft" unicode="&#x2018;" horiz-adv-x="410" 
d="M123 893v258q0 103 55.5 170.5t151.5 89.5v-113q-29 -8 -46.5 -21.5t-28 -32t-14 -42t-3.5 -51.5v-29h92v-229h-207z" />
    <glyph glyph-name="uni200B" unicode="&#x200b;" 
 />
    <glyph glyph-name="copyright" unicode="&#xa9;" horiz-adv-x="1579" 
d="M129 659q0 140 53 263t145 215t215 145t263 53t263 -53t215 -145t145 -215t53 -263q0 -94 -24 -180.5t-68 -161.5t-106 -137t-137 -106t-161.5 -68t-179.5 -24t-179.5 24t-161.5 68t-137 106t-106 137t-68 162t-24 180zM223 659q0 -120 45.5 -226.5t124.5 -185.5
t185 -125t227 -46q120 0 226 46t185 125t124.5 185.5t45.5 226.5t-45.5 226t-124.5 185t-185 125t-226 46q-121 0 -227 -46t-185 -125t-124.5 -185t-45.5 -226zM555 657q0 -68 16 -123t48 -94t81 -60.5t115 -21.5q75 0 127 40t84 106l88 -31q-20 -45 -48.5 -83.5t-66 -66.5
t-83.5 -43.5t-101 -15.5q-85 0 -151.5 28.5t-112 80.5t-69 124.5t-23.5 159.5t23.5 159t69 124t112 80.5t151.5 28.5q55 0 101 -15.5t83.5 -43t66 -66t48.5 -84.5l-88 -31q-32 66 -84 105.5t-127 39.5q-66 0 -115 -22t-81 -61.5t-48 -94t-16 -119.5z" />
    <glyph glyph-name="uni2219" unicode="&#x2219;" horiz-adv-x="410" 
d="M330 713v-232h-207v232h207z" />
    <glyph glyph-name="onequarter" unicode="&#xbc;" horiz-adv-x="1675" 
d="M420 618v627q-23 -37 -53 -61t-66.5 -38.5t-79.5 -20t-92 -5.5v103q75 0 128.5 25t89 60.5t53.5 74t22 65.5h133v-830h-135zM686 -39h-139l469 1487h135zM1315 0v195h-381v129l387 493h129v-512h127v-110h-127v-195h-135zM1069 305h246v320z" />
    <glyph glyph-name="onehalf" unicode="&#xbd;" horiz-adv-x="1665" 
d="M621 -39h-140l471 1487h135zM963 516q0 72 20 129t59.5 97t97.5 61.5t134 21.5q70 0 124.5 -21.5t92 -57.5t57 -82.5t19.5 -96.5q0 -40 -13.5 -72.5t-35.5 -60t-50.5 -50t-58.5 -42.5q-19 -14 -48 -29l-58 -30q-15 -9 -34 -18.5t-38.5 -20.5t-38.5 -23.5t-35 -25.5
q-17 -13 -28 -26t-19 -30h457v-139h-639q8 90 36.5 152.5t76 110t113.5 85.5t149 80q21 11 40 27.5t33.5 36t22.5 41.5t8 45q0 34 -11.5 56t-31.5 35.5t-47.5 19t-59.5 5.5q-81 0 -121 -49.5t-40 -128.5h-133zM420 618v627q-23 -37 -53 -61t-66.5 -38.5t-79.5 -20t-92 -5.5
v103q75 0 128.5 25t89 60.5t53.5 74t22 65.5h133v-830h-135z" />
    <glyph glyph-name="threequarters" unicode="&#xbe;" horiz-adv-x="1686" 
d="M158 1178q7 63 26.5 113t55.5 85t89 53.5t126 18.5q63 0 114.5 -16t87.5 -45.5t56 -70.5t20 -91q0 -60 -27.5 -101.5t-76.5 -66.5q28 -12 54 -29t46 -41.5t31.5 -57.5t11.5 -75q0 -61 -25.5 -107t-68.5 -77.5t-101 -47.5t-122 -16q-81 0 -137.5 18.5t-95 54.5t-61 89
t-34.5 123h147q9 -48 24.5 -78t38 -47t52.5 -23t68 -6q34 0 64.5 6.5t53.5 20.5t36.5 36t13.5 54q0 59 -45 95t-123 36h-84v123h82q36 0 61 9.5t40.5 25.5t22.5 36t7 40q0 52 -36.5 74t-96.5 22q-76 0 -110.5 -36t-45.5 -101h-139zM727 -39h-139l471 1487h135zM1325 0v195
h-381v129l387 493h129v-512h127v-110h-127v-195h-135zM1079 305h246v320z" />
    <glyph glyph-name="bn_chandrabindu" unicode="&#x981;" 
d="M-237 1649q16 0 31 -7.5t27 -19.5t19 -27.5t7 -31.5q0 -18 -7 -32t-18.5 -24.5t-26 -16t-29.5 -5.5q-16 0 -31.5 5t-27.5 14.5t-19.5 24t-7.5 34.5q0 17 6.5 32.5t17.5 27.5t26 19t33 7zM-234 1352q56 0 109 32t95 103l95 -64q-24 -39 -55.5 -72t-69 -57t-81.5 -37.5
t-93 -13.5q-48 0 -91.5 14t-82 38.5t-70.5 57.5t-56 70l95 64q42 -71 95 -103t110 -32z" />
    <glyph glyph-name="bn_anusvar" unicode="&#x982;" horiz-adv-x="1041" 
d="M428 1158q51 0 93 -19.5t72.5 -50.5t47.5 -70t17 -79q0 -43 -19 -82.5t-50.5 -69.5t-73 -48t-87.5 -18q-45 0 -87 17t-74.5 46.5t-52.5 69t-20 85.5q0 47 18.5 87t50.5 69.5t74.5 46t90.5 16.5zM421 1059q-22 0 -42.5 -10t-36.5 -26t-25.5 -37.5t-9.5 -43.5q0 -29 11 -51
t28.5 -36.5t39.5 -22t44 -7.5q27 0 49 10t37 27t23 39.5t9 46.5q-1 23 -11 43.5t-26 35.5t-37 23.5t-44 8.5h-9zM187 649q111 -39 208.5 -93.5t184 -119.5t162 -136.5t141.5 -144.5l-74 -76q-79 82 -155 153t-156 129.5t-166 104.5t-184 77z" />
    <glyph glyph-name="bn_bisarga" unicode="&#x983;" horiz-adv-x="669" 
d="M288 1158q50 0 92 -19.5t73 -50.5t48 -70t17 -79q0 -43 -19 -82.5t-50.5 -69.5t-73 -48t-87.5 -18q-45 0 -87 17t-74.5 46.5t-52.5 69t-20 85.5q0 47 19 87t51 69.5t74.5 46t89.5 16.5zM282 1059q-22 0 -43 -10t-37 -26t-25.5 -37.5t-9.5 -43.5q0 -29 11 -51t28.5 -36.5
t39.5 -22t44 -7.5q27 0 49 10t37 27t23 39.5t9 46.5q-1 23 -11 43.5t-26 35.5t-37 23.5t-44 8.5h-8zM288 554q50 0 92 -19.5t73 -50.5t48 -70t17 -79q0 -43 -19 -82.5t-50.5 -69.5t-73 -48t-87.5 -18q-45 0 -87 17t-74.5 47t-52.5 69.5t-20 84.5q0 47 19 87t51 69.5t74.5 46
t89.5 16.5zM282 455q-22 0 -43 -10t-37 -26t-25.5 -37.5t-9.5 -43.5q0 -29 11 -50.5t28.5 -36.5t39.5 -22.5t44 -7.5q27 0 49 10t37 27t23 39.5t9 46.5q-1 22 -11 42.5t-26 35.5t-37 24t-44 9h-8z" />
    <glyph glyph-name="bn_a" unicode="&#x985;" horiz-adv-x="1374" 
d="M1221 1101v-1056l-114 -45q-11 60 -35 118.5t-56.5 109t-71 89.5t-79.5 59q-51 -66 -122.5 -104t-154.5 -38q-82 0 -150 34.5t-124.5 90t-100.5 126.5t-77.5 144.5t-56 142t-34.5 120.5q27 12 48 18.5t47 17.5q14 -49 34 -110t47 -124t62 -123.5t78.5 -107.5t96 -75.5
t114.5 -28.5q63 0 112 21t83.5 58t52.5 86.5t18 105.5q0 46 -11 94t-35 87.5t-63.5 64.5t-96.5 25q-3 0 -15 -2t-36 -16q34 -19 60 -55t26 -87q0 -28 -10.5 -51t-29 -39.5t-43.5 -26t-55 -9.5t-57 12t-47 34.5t-32 54.5t-12 71q0 42 16.5 81.5t47.5 70.5t76.5 49.5
t102.5 18.5q73 0 133.5 -26.5t103 -75t66 -116t23.5 -149.5q0 -39 -6 -79.5t-20 -80.5q28 -18 54.5 -41t50.5 -48.5t44 -53t34 -53.5v817h-1107v81h1395v-81h-174z" />
    <glyph glyph-name="bn_aa" unicode="&#x986;" horiz-adv-x="1703" 
d="M1221 1101v-1056l-117 -45q-12 60 -35.5 118.5t-55 109t-69.5 89.5t-79 59q-53 -66 -124.5 -104t-155.5 -38q-81 0 -149 34.5t-124 90t-100.5 126.5t-77.5 144.5t-55 142t-34 120.5q26 12 46.5 18.5t48.5 17.5q13 -49 33 -110t47 -124t61.5 -123.5t78 -107.5t96 -75.5
t114.5 -28.5q63 0 112.5 21t83.5 58t52 86.5t18 105.5q0 46 -11 94t-35 87.5t-63 64.5t-95 25q-3 0 -15 -2t-38 -16q35 -19 60 -55t25 -87q0 -56 -38 -91t-99 -35q-30 0 -56.5 12t-46.5 34.5t-31.5 54.5t-11.5 71q0 42 16 81.5t47 70.5t76.5 49.5t103.5 18.5q72 0 132 -26.5
t102.5 -75t66 -116t23.5 -149.5q0 -79 -26 -160q28 -18 55 -42.5t51 -52t44 -55.5t35 -53v824h-1107v81h1728v-81h-167v-1056l-114 -45v1101h-226z" />
    <glyph glyph-name="bn_i" unicode="&#x987;" horiz-adv-x="939" 
d="M151 509q29 -16 63 -27t79 -11q55 0 114.5 15t109.5 45t82.5 75t32.5 104q0 41 -17.5 76.5t-46 62t-66 41.5t-76.5 15q-32 0 -62 -5.5t-60 -20.5q34 -19 59.5 -52t25.5 -86q0 -56 -38 -91t-99 -35q-30 0 -56.5 12t-46.5 34.5t-31.5 54.5t-11.5 71q0 42 20 81.5t58 70.5
t93.5 49.5t126.5 18.5q62 0 123.5 -22t110.5 -61.5t79.5 -95.5t30.5 -125q0 -58 -21.5 -109.5t-59 -93t-89 -72t-112.5 -45.5q114 -62 210 -138t175 -157l-75 -88q-69 70 -146.5 133.5t-165 116.5t-185 94.5t-204.5 68.5zM0 1101v81h746q8 20 11.5 35.5t3.5 30.5
q0 38 -25.5 63.5t-69 43t-100 29t-117.5 22.5q-75 13 -152 28.5t-139 41t-101 64.5t-39 98q0 35 17.5 82.5t52.5 104.5q18 -10 37.5 -22.5l36.5 -22.5q-25 -38 -36.5 -69.5t-11.5 -54.5q0 -42 29 -70t77 -47t110 -31.5t128 -23.5q49 -8 98.5 -17t95 -20t84.5 -26.5
t67.5 -36.5t45 -49t16.5 -65q0 -14 -3 -36.5t-13 -51.5h104v-81h-953z" />
    <glyph glyph-name="bn_ii" unicode="&#x988;" horiz-adv-x="1090" 
d="M678 737q0 -35 -15.5 -74.5t-41.5 -81.5l89 47q76 50 150.5 92t151.5 62l31 -95q-66 -30 -113.5 -70t-77.5 -86.5t-44.5 -99t-14.5 -109.5q0 -69 25 -135t74 -114q-23 -23 -41 -38.5t-40 -32.5q-2 -2 -3.5 -3t-3.5 -3q-27 27 -50 62t-40 73.5t-26.5 79.5t-9.5 82
q0 25 1.5 53t6 56.5t12.5 55t20 49.5l-13 11q-106 -79 -214 -117t-212 -38q-64 0 -124.5 14.5t-116.5 41.5l50 93q49 -21 97 -30t92 -9q61 0 113.5 18t91 52t60 81t21.5 106q0 38 -13.5 70t-37 55.5t-54.5 36.5t-66 13q-32 0 -56 -5.5t-54 -20.5q34 -19 61 -52.5t27 -85.5
q0 -28 -10.5 -51t-29 -39.5t-43.5 -26t-55 -9.5t-57 12t-47.5 34.5t-32 54.5t-11.5 71q0 42 18.5 81.5t54 70.5t87.5 49.5t119 18.5q72 0 130 -21t99 -58t63.5 -86t22.5 -105zM0 1101v81h862q10 20 13.5 35.5t3.5 30.5q0 38 -26 63t-70.5 42.5t-102.5 29.5l-121 24l-16 3
q-73 13 -145.5 28.5t-131 41t-95 63.5t-36.5 95q0 35 16.5 82.5t50.5 104.5q21 -10 40.5 -22.5l36.5 -22.5q-26 -38 -36.5 -69.5t-10.5 -54.5q0 -41 29 -68.5t77 -46t108.5 -30t123.5 -21.5q45 -7 93 -16t94 -21.5t86.5 -29t71.5 -38.5t49 -50.5t18 -64.5q0 -14 -2.5 -36.5
t-12.5 -51.5h142v-81h-1109z" />
    <glyph glyph-name="bn_u" unicode="&#x989;" horiz-adv-x="1174" 
d="M595 0q-75 0 -140 29.5t-120.5 79t-101.5 115t-82 137t-62 145t-42 139.5l99 47q11 -41 32.5 -99t52 -121.5t70 -126.5t86.5 -113t101.5 -81t115.5 -31q60 0 108 18.5t85 50t63 72.5t42.5 86t24.5 90t8 85q0 14 -1 26t-6 37q-42 -49 -78.5 -80.5t-71 -50t-68.5 -26
t-70 -7.5q-49 0 -87 21.5t-64.5 53.5t-40 70.5t-13.5 73.5v461h-435v81h890q8 20 11.5 35.5t3.5 30.5q0 39 -27 64.5t-72.5 43t-105 29.5t-124.5 23q-73 13 -147 28.5t-133 40.5t-96.5 63.5t-37.5 97.5q0 35 17 82.5t51 104.5q20 -10 40 -22.5l37 -22.5q-26 -38 -36.5 -69.5
t-10.5 -54.5q0 -41 29.5 -68t77.5 -45.5t108.5 -30.5t123.5 -22q45 -7 92.5 -16t93.5 -21.5t86.5 -29t71.5 -38.5t49 -50.5t18 -64.5q0 -14 -3 -36.5t-14 -51.5h200v-81h-643v-426q0 -18 4.5 -40t16.5 -41t34 -31.5t57 -12.5q27 0 56 11t60 36t64 65t68 97l158 -65
q7 -27 8 -58t1 -60q0 -67 -13 -136t-39.5 -133t-66.5 -120t-93.5 -97.5t-121 -65.5t-148.5 -24z" />
    <glyph glyph-name="bn_uu" unicode="&#x98a;" horiz-adv-x="1305" 
d="M0 1101v81h1016q16 38 16 66q0 39 -27 64.5t-72.5 43t-105 29.5t-124.5 23q-74 13 -148.5 28.5t-133.5 40.5t-96 63.5t-37 97.5q0 35 17 82.5t51 104.5l76 -45q-26 -38 -37.5 -69.5t-11.5 -54.5q0 -41 30 -68t78.5 -45.5t109 -30.5t122.5 -22q45 -7 93 -16t94 -21.5
t86.5 -29t71.5 -38.5t49 -50.5t18 -64.5q0 -14 -2.5 -36.5t-12.5 -51.5h204v-81h-649v-426q0 -18 4.5 -40t17 -41t34.5 -31.5t58 -12.5q25 0 54 11t60.5 36t64.5 65t68 97l155 -65q8 -27 9 -58t1 -60q0 -114 -29.5 -218.5t-89 -184t-148 -126.5t-206.5 -47q-124 0 -219 25
t-167 66t-123 93.5t-85.5 107.5t-55 107.5t-31.5 94.5q28 11 49.5 24.5t47.5 27.5q13 -44 36 -96.5t55.5 -105t75 -99.5t95.5 -78l13 18q-41 51 -74 110t-58.5 119t-44 118.5t-30.5 109.5q29 15 53 25l53 23q10 -39 29.5 -96t47.5 -120.5t65 -126.5t82.5 -113.5t99.5 -82
t117 -31.5q56 0 100.5 18.5t78 50t57 72.5t38.5 86t21.5 90t6.5 85q0 14 -1 26t-6 37q-41 -49 -78 -80.5t-71.5 -50t-68.5 -26t-70 -7.5q-49 0 -87 21.5t-64.5 53.5t-40 70.5t-13.5 73.5v461h-561z" />
    <glyph glyph-name="bn_ri" unicode="&#x98b;" horiz-adv-x="1421" 
d="M398 488q129 -23 239.5 -97t185.5 -186v558zM284 772q-61 0 -107 19t-77 49.5t-46.5 70.5t-15.5 82q0 39 12.5 73.5t34.5 60t51 40.5t62 15q32 0 57 -11t42 -30t25.5 -44.5t8.5 -53.5q0 -26 -10 -49.5t-25 -43t-33 -34.5t-33 -22q14 -11 30.5 -17.5t27.5 -6.5
q37 0 64.5 16t47.5 41.5t32.5 58t19.5 67t10 68.5t4 61h102q4 -39 17.5 -78t37 -71t56.5 -52t76 -20q13 0 32.5 3t35.5 10v208h114v-776q66 -32 119.5 -74t101.5 -109v959h286v-81h-171v-1056l-119 -45q-19 40 -41 77.5t-49 70.5t-58.5 59t-68.5 43v-205l-122 -45
q-120 177 -258.5 281.5t-306.5 128.5l-74 106l583 354h-56q-24 0 -47 10.5t-43 27.5t-35.5 37t-23.5 40q-24 -61 -55.5 -102t-67.5 -65.5t-74 -35t-73 -10.5z" />
    <glyph glyph-name="bn_li" unicode="&#x98c;" horiz-adv-x="969" 
d="M568 234q30 19 57 47t47.5 59t33 61.5t12.5 53.5q0 37 -19.5 68.5t-52 59.5t-75 53.5l-88.5 51.5q-48 27 -96 57t-86.5 65t-62 76t-23.5 92q0 49 21.5 101t79.5 117l49 -27t52 -27q-39 -42 -62.5 -79t-23.5 -72t17.5 -65t47 -56t68.5 -50.5l81 -48.5q49 -28 98.5 -59.5
t89.5 -69.5t65 -84t25 -103q0 -55 -22.5 -107t-70.5 -106t-122 -112.5t-176 -125.5q-14 31 -32 60.5t-33 59.5q19 14 36.5 32.5t30.5 43t20.5 58t7.5 77.5q0 31 -11 62t-30.5 56t-47 40.5t-60.5 15.5q-25 0 -74 -13q37 -19 64.5 -53t27.5 -87q0 -29 -10.5 -52t-28.5 -39.5
t-43 -25.5t-55 -9q-31 0 -57.5 12t-46.5 34t-31.5 53t-11.5 69q0 54 21 95t56.5 68t82.5 40.5t100 13.5q60 0 109 -23.5t84 -62t54.5 -86.5t19.5 -97q0 -23 -5 -49t-17 -49z" />
    <glyph glyph-name="bn_e" unicode="&#x98f;" horiz-adv-x="1148" 
d="M1004 45l-114 -45q-18 34 -37 65.5t-40.5 55.5t-47 38.5t-55.5 14.5q-32 0 -63 -20t-61 -45l-39.5 -33t-43 -31t-47 -23t-50.5 -9q-85 1 -152 41.5t-114 111t-72 166.5t-25 209q0 39 2.5 79t10.5 85h113q-9 -42 -12.5 -82.5t-3.5 -81.5q0 -86 16.5 -161.5t47.5 -131
t75.5 -87.5t101.5 -32q45 0 84.5 24t80.5 56q34 26 68.5 48t68.5 22q35 0 62.5 -8.5t50 -23t42 -33.5l39.5 -40v630q0 56 -10 104t-32 83.5t-57 56t-86 20.5q-13 0 -36.5 -6.5t-52 -23t-58.5 -44t-55 -68.5q27 -2 49 -13.5t38 -29.5t25 -41t9 -47q0 -58 -38 -92t-100 -34
q-30 0 -56.5 12t-46.5 34t-31.5 53t-11.5 70q0 53 19 99t49.5 84t70 68t80 50.5t79 31.5t67.5 11q83 0 140 -31.5t92.5 -80t51 -108t15.5 -115.5v-802z" />
    <glyph glyph-name="bn_ai" unicode="&#x990;" horiz-adv-x="1436" 
d="M1004 45l-114 -45l-38 64.5t-41 55.5t-47.5 39t-56.5 15t-63 -21t-62 -47l-42 -33.5t-43 -30t-44.5 -21.5t-46.5 -8q-85 1 -152.5 41.5t-115 111t-72.5 166.5t-25 209q0 39 3.5 79t11.5 85h113q-11 -42 -14.5 -82.5t-3.5 -81.5q0 -86 16.5 -161.5t47.5 -131t75.5 -87.5
t101.5 -32q45 0 84.5 24t80.5 56l34.5 25.5t35 22.5t34.5 16t33 6q36 0 63.5 -8.5t50 -23t42.5 -33.5t40 -40v630q0 56 -10 104t-32.5 83.5t-58 56t-86.5 20.5q-12 0 -35.5 -6.5t-52 -23t-59 -44t-55.5 -68.5q27 -2 49 -13.5t37.5 -29.5t24.5 -41t9 -47q0 -58 -38 -92
t-99 -34q-29 0 -55.5 12t-46.5 34t-32 53t-12 70q0 53 19 99t49.5 84t69.5 68t79.5 50.5t79.5 31.5t68 11q83 0 140.5 -31.5t93 -80t51.5 -108t16 -115.5v-63q40 0 78 8.5t67 27.5t47 49t18 73q0 35 -23 73t-60.5 77.5t-86.5 81l-100 83.5l-107 88.5t-95.5 88.5t-68.5 87.5
t-26 84.5q0 55 28.5 107t79.5 105q22 -19 43.5 -34l44.5 -32q-15 -13 -29.5 -29t-26 -33.5t-19 -35.5t-7.5 -34q0 -28 19.5 -59t52 -64.5t74.5 -68.5l87 -71l114.5 -95.5t108.5 -104t80.5 -109t31.5 -111.5q0 -67 -28 -118t-74 -85.5t-104.5 -52t-118.5 -17.5v-619z" />
    <glyph glyph-name="bn_o" unicode="&#x993;" horiz-adv-x="1228" 
d="M1120 370q0 -89 -36.5 -158t-98 -116t-141.5 -71.5t-166 -24.5q-97 0 -181.5 38t-154 102.5t-123.5 149.5t-92 178.5t-59.5 190.5t-24.5 186l112 20q1 -49 16 -123t44.5 -157.5t73.5 -167.5t102 -151.5t130 -109.5t159 -42q51 0 107.5 14.5t103 46.5t77 82t30.5 121
q0 33 -11.5 60.5t-32 48t-49 31.5t-62.5 11h-13t-15 -2l-37.5 -20.5t-20.5 -12.5q-8 -5 -11 -8l-77 118l45 24l69 43.5t63.5 50t47 60.5t18.5 74t-20.5 79t-53.5 67.5t-74.5 47.5t-83.5 18q-45 0 -83.5 -14.5t-58.5 -37.5q32 -19 56.5 -51.5t24.5 -83.5q0 -31 -10.5 -54.5
t-27.5 -39.5t-39 -24t-46 -8q-30 0 -58.5 10.5t-52 31.5t-38.5 53t-16 74q3 63 33.5 111t80 81t114.5 49.5t137 16.5q74 0 136.5 -27.5t107.5 -71.5t70.5 -98.5t25.5 -109.5q0 -89 -28 -150t-75 -110q49 -10 84.5 -35t58 -59t33.5 -73t11 -78z" />
    <glyph glyph-name="bn_au" unicode="&#x994;" horiz-adv-x="1412" 
d="M669 579q36 19 78.5 45.5t79 60.5t61 76.5t24.5 94.5q0 41 -20.5 79t-53.5 67.5t-74.5 47.5t-83.5 18q-46 0 -84 -14.5t-58 -37.5q32 -19 55.5 -51.5t23.5 -83.5q0 -31 -10 -54.5t-27 -39.5t-39.5 -24t-46.5 -8q-29 0 -57.5 10.5t-51.5 31.5t-38 53t-16 74q3 63 33 111
t79.5 81t114.5 49.5t138 16.5q74 0 136.5 -27.5t107.5 -71.5t70.5 -98.5t25.5 -109.5q0 -17 -2.5 -38t-7.5 -43t-12.5 -43t-17.5 -39q40 5 76 21t62 40t41.5 56t15.5 68q0 34 -23 73.5t-60.5 82t-86 87.5l-99.5 90l-108 97t-96.5 97t-69.5 94t-27 88q0 55 29.5 107t79.5 105
q23 -19 45.5 -34t44.5 -32q-14 -13 -29 -29t-27 -33.5t-19.5 -35.5t-7.5 -34q0 -28 19.5 -61t52 -69t74.5 -74l86 -76l118 -105t109 -112t80 -115.5t31 -115.5q0 -63 -25.5 -116.5t-66.5 -92.5t-94.5 -62t-108.5 -26l-5 -21q28 -14 49 -38.5t35 -55.5t21.5 -65t7.5 -66
q0 -81 -36.5 -145.5t-98 -110t-141.5 -69.5t-166 -24q-97 0 -181.5 38t-154 102.5t-123.5 149.5t-92 178.5t-59.5 190.5t-24.5 186l110 17q1 -48 17 -122t45.5 -157t73 -166.5t102 -151t130.5 -109.5t159 -42q51 0 107.5 14t103 44.5t77 77.5t30.5 113q0 23 -12 48.5
t-35.5 46.5t-57.5 35t-78 14l-35 -18.5t-22 -12.5q-10 -6 -14 -10z" />
    <glyph glyph-name="bn_ka" unicode="&#x995;" horiz-adv-x="1345" 
d="M0 1101v81h1367v-81h-556v-125q90 0 170 -36.5t140 -97t95 -140t35 -164.5q0 -30 -8.5 -61.5t-25.5 -57t-42.5 -42t-59.5 -16.5q-31 0 -57.5 9.5t-45.5 26t-30 37t-11 43.5q0 26 8 48.5t22 39.5t33 27t41 10q5 0 24.5 -3t33.5 -6q-3 55 -29 105.5t-69 89t-100.5 61.5
t-123.5 23v-827q-21 -9 -42 -17l-38 -15t-35 -13q-58 88 -122 163.5t-135.5 134.5t-150 100t-166.5 60l-37.5 52.5l-37.5 54.5q68 79 146.5 147.5t162.5 122.5t170 91.5t170 53.5v121h-696zM194 548q40 -9 88 -30.5t97.5 -51.5t98 -66t91 -73.5t75.5 -73.5t52 -66v678
q-59 -14 -125.5 -44.5t-132.5 -73t-129 -93.5t-115 -106z" />
    <glyph glyph-name="bn_kha" unicode="&#x996;" horiz-adv-x="1111" 
d="M714 914q0 -70 -25.5 -134t-68.5 -118t-99.5 -97t-118.5 -71q72 -20 138 -59t121.5 -85.5t98 -94.5t65.5 -86v1013h297v-81h-183v-1056l-114 -45q-59 88 -119.5 156.5t-129 121.5t-148 91.5t-176.5 65.5l-69 94q41 5 88 22t93.5 43.5t89 61.5t74.5 76.5t51.5 87.5
t19.5 94q0 24 -8 56.5t-32 61.5q-20 -62 -53 -105t-71 -70t-77.5 -39t-71.5 -12q-57 0 -101 16.5t-75 45t-47 66.5t-16 80q0 38 11 69t30.5 53t45 34t55.5 12q62 0 97.5 -36t35.5 -94q0 -25 -9 -44.5t-23.5 -34.5t-32 -26t-34.5 -19q14 -11 33.5 -18t36.5 -7q37 0 69 21
t56 54.5t37.5 76t13.5 85.5q0 11 -0.5 21t-2.5 21q55 -3 100.5 -24.5t78.5 -57.5t51 -83.5t18 -102.5z" />
    <glyph glyph-name="bn_ga" unicode="&#x997;" horiz-adv-x="991" 
d="M410 658q0 26 -12 44t-31.5 29t-46 16t-54.5 5q-51 0 -104.5 -12.5t-98.5 -32.5q-20 57 -20 106q0 75 34 142t88.5 117.5t122.5 80t136 29.5q86 0 159 -45.5t135 -140.5v186h286v-81h-170v-1056l-116 -45v772q-14 50 -39 102.5t-61 95.5t-83.5 70.5t-106.5 27.5
q-35 0 -77.5 -16t-81 -46t-66.5 -73.5t-34 -98.5q38 11 69.5 17.5t54.5 6.5q44 0 85.5 -12t74 -35.5t52.5 -59t20 -82.5t-17 -84t-44 -65t-61 -49t-68.5 -35t-66 -22t-53.5 -12l-71 110q40 1 86.5 13t86.5 32t66.5 46t26.5 55z" />
    <glyph glyph-name="bn_gha" unicode="&#x998;" horiz-adv-x="1000" 
d="M101 512l271 159q-70 0 -129 20t-101.5 53t-66 74.5t-23.5 84.5q0 19 7 44.5t22.5 52.5t39.5 53.5t59 47.5h-180v81h1014v-81h-171v-1056l-115 -45q-49 81 -111 152t-134.5 127t-155 95.5t-172.5 57.5zM593 683l-316 -182q61 -12 127.5 -46.5t128 -80.5t113 -99.5
t82.5 -102.5v929h-412q-76 -32 -112.5 -80t-36.5 -97q0 -33 15.5 -63.5t44 -54t69 -37.5t89.5 -14q13 0 33 1.5t43 5.5t48 11.5t48 19.5z" />
    <glyph glyph-name="bn_nga" unicode="&#x999;" horiz-adv-x="1182" 
d="M660 583q26 0 55.5 11.5t61 36.5t64.5 65.5t67 98.5l158 -67q7 -27 8 -58t1 -60q0 -68 -12 -139t-37 -139t-63.5 -128.5t-92 -105.5t-122 -71.5t-153.5 -26.5q-78 0 -144.5 32t-122.5 85.5t-101 123.5t-80.5 145.5t-60.5 151.5t-41 142l99 45q11 -41 30.5 -102
t48.5 -128.5t67 -135.5t85.5 -122.5t104 -88.5t122.5 -34q64 0 113.5 21.5t86.5 57.5t62.5 82.5t41 96t22.5 98t7 89.5q0 11 -1 22.5t-8 37.5q-41 -49 -77.5 -80t-71 -48.5t-69 -24t-70.5 -6.5q-40 0 -77.5 22.5t-66 59.5t-45.5 84t-17 97v27.5t0.5 39.5l1 40.5t1.5 29.5
q-34 18 -68.5 38.5l-64 39l-51 32.5t-28.5 19q12 24 27.5 49t26.5 45q26 -19 56 -38l58 -36.5l67 -39.5q11 42 29 80.5t43.5 68t59.5 47t77 17.5q42 0 75.5 -11.5t57 -31t35.5 -45t12 -53.5q0 -53 -17.5 -96t-48 -74t-71.5 -48t-89 -17q-26 0 -69 9v-87q0 -35 10 -61.5
t25.5 -45.5t34.5 -28.5t38 -9.5zM636 903q25 0 44 12t31.5 31.5t19 45t6.5 53.5q0 18 -6 29t-15 17t-19 8t-19 2q-21 0 -38.5 -16t-31.5 -42.5t-25 -60.5t-18 -70q20 -2 37 -5.5t34 -3.5z" />
    <glyph glyph-name="bn_ca" unicode="&#x99a;" horiz-adv-x="965" 
d="M239 1101v-144q0 -36 23.5 -66t61.5 -55t86 -46.5l97 -41.5l108.5 -46.5t98.5 -55t71.5 -67.5t27.5 -83q0 -52 -32.5 -106.5t-84 -107t-116 -100t-128 -85t-120.5 -63.5t-93 -34l-115 54v1047h-124v81h978v-81h-739zM698 494q0 22 -18 41.5t-49.5 36.5t-74 34l-90.5 35
l-64 24.5t-61.5 27.5t-55.5 33t-46 40v-654q41 15 90.5 43t100.5 63t99.5 74t86 76.5t60 70t22.5 55.5z" />
    <glyph glyph-name="bn_cha" unicode="&#x99b;" horiz-adv-x="1030" 
d="M232 591q40 0 82.5 11t77.5 28.5t58 39t23 42.5q0 12 -9.5 20.5t-24.5 14.5t-35 10.5t-41 8.5q-39 10 -74.5 25t-56.5 47v-247zM215 254q63 38 117.5 66.5l107.5 56.5l155.5 83t116 72t72.5 67.5t25 69.5q0 18 -7.5 30t-19 19.5t-26 11t-28.5 3.5q-26 0 -54 -6.5
t-51 -13.5q-1 0 -2 -0.5t-2 -0.5q-14 -41 -55.5 -82t-95.5 -74.5t-113 -55.5t-107 -25l-49 18q-20 8 -42.5 15.5l-39.5 13.5v579h-117v81h1045v-81h-813v-144q7 -23 26.5 -39.5t47 -29.5t61 -22.5t68.5 -17.5q58 -15 128 -44q39 16 83 26t89 10q39 0 73.5 -10t60 -29.5
t40.5 -48.5t15 -67q0 -63 -23 -110t-71 -89.5t-120.5 -85l-171.5 -96.5q69 -7 129.5 -26t114 -47.5t102 -66t94.5 -80.5q-16 -20 -31 -42.5t-30 -41.5q-105 112 -219.5 166.5t-231.5 54.5q-38 0 -76 -9t-66 -23q-13 -5 -26.5 -13.5t-24.5 -16.5z" />
    <glyph glyph-name="bn_ja" unicode="&#x99c;" horiz-adv-x="1350" 
d="M0 1101v81h1369v-81h-639q24 -62 62.5 -118t92.5 -98.5t122.5 -68.5t152.5 -27l33 -95q-51 -75 -73.5 -153t-22.5 -156q0 -85 25 -171t69 -164l-92 -54q-28 39 -49 86t-35.5 98t-22 104t-7.5 105q0 82 21.5 162t65.5 152q-67 0 -137.5 29t-132.5 81t-109.5 123.5
t-66.5 155.5l-45 -71l-35 -55.5t-35 -66t-27 -73.5t-11 -78q0 -30 6.5 -56t18.5 -45.5t30 -31t42 -11.5q8 0 20.5 4t27 12t29.5 20t28 27l127 -93q2 -20 3 -34.5t1 -25.5q0 -79 -24.5 -154.5t-70 -135t-109.5 -96t-142 -36.5q-85 0 -149 30.5t-110.5 82t-76.5 118.5t-48 140
t-25.5 147.5t-7.5 139.5v52l105 18v-44q0 -56 6 -119.5t20.5 -126t38 -120.5t58 -102t81 -70t106.5 -26q51 0 94 26t73.5 66t47.5 89t17 95q0 18 -2.5 34t-4.5 32q-40 -27 -80 -48.5t-74 -21.5q-46 0 -79 23.5t-54.5 59.5t-31.5 78.5t-10 79.5q0 58 10.5 105t26 86.5
t34.5 72l37 60.5l32 52h-494z" />
    <glyph glyph-name="bn_jha" unicode="&#x99d;" horiz-adv-x="1300" 
d="M694 1101h-694v81h811v-806q61 -27 116.5 -72.5t104.5 -118.5v997h286v-81h-172v-1056l-114 -45q-35 80 -90 146.5t-131 101.5v-203l-117 -45q-59 88 -123 163.5t-135 134.5t-149.5 100t-166.5 60q-21 27 -39 52.5t-36 54.5q68 79 146.5 147.5t162.5 122.5t170 91.5
t170 53.5v121zM196 550q42 -9 90.5 -30t98 -50t97.5 -64t89.5 -72t73 -73t49.5 -67v671q-59 -14 -125 -44.5t-132 -73t-128 -93.5t-113 -104z" />
    <glyph glyph-name="bn_nya" unicode="&#x99e;" horiz-adv-x="1498" 
d="M1002 45l-121 -45l-34.5 64.5t-38 55.5t-45.5 39t-56 15q-25 0 -49 -12t-47.5 -30t-47.5 -38.5t-49.5 -38.5t-52.5 -30t-57 -12q-84 0 -151 40.5t-114 111t-72.5 167t-25.5 209.5q0 39 2.5 79t10.5 85h113q-9 -42 -12.5 -82.5t-3.5 -81.5q0 -86 16.5 -161.5t47.5 -131
t75.5 -87.5t101.5 -32q45 0 84.5 24t80.5 56q34 26 68.5 48t68.5 22q36 0 63.5 -8.5t50 -23t42.5 -33.5t40 -40v630q0 56 -10 104t-32.5 83.5t-58 56t-86.5 20.5q-12 0 -35.5 -6.5t-52 -23t-59 -44t-55.5 -68.5q27 -2 49 -13.5t37.5 -29.5t24.5 -41t9 -47q0 -58 -38 -92
t-99 -34q-30 0 -56.5 12t-46.5 34t-31.5 53t-11.5 70q0 53 19 99t49.5 84t69.5 68t79.5 50.5t79.5 31.5t68 11q83 0 140 -27t92.5 -68t51 -91.5t15.5 -96.5v-39q48 47 105 76t107 29q39 0 72 -10.5t57.5 -30t38 -48.5t13.5 -65q0 -54 -33.5 -89t-84.5 -58q51 -18 84.5 -52.5
t33.5 -91.5q0 -47 -19 -81t-47 -55.5t-59.5 -31.5t-55.5 -10q-20 0 -40.5 2.5t-45.5 13t-55.5 32.5t-70.5 61v-406zM1002 533q15 -14 35.5 -29t44 -27t50 -20t55.5 -8q39 0 65.5 21.5t26.5 79.5q0 32 -20 54t-70 38v52q13 5 28.5 13.5t29 22.5t23 33.5t9.5 45.5
q0 23 -9.5 37t-23.5 22t-30 10.5t-29 2.5q-34 0 -83 -22t-102 -75v-251z" />
    <glyph glyph-name="bn_tta" unicode="&#x99f;" horiz-adv-x="950" 
d="M0 1101v81h750q16 38 16 66q0 39 -27 64.5t-72.5 43t-104.5 29.5t-123 23q-74 13 -148.5 28.5t-134 40.5t-97 63.5t-37.5 97.5q0 37 18 84.5t52 102.5q19 -10 38.5 -22.5l36.5 -22.5q-24 -35 -35.5 -66.5t-11.5 -57.5q0 -41 29.5 -68t77.5 -45.5t109 -30.5t124 -22
q44 -7 92 -16t93.5 -21.5t86.5 -29t71.5 -38.5t48.5 -50.5t18 -64.5q0 -17 -3 -38t-13 -50h111v-81h-726v-815q0 -20 6 -49t22.5 -56.5t45.5 -47t74 -19.5q49 0 108 28.5t110 77t85.5 112t34.5 132.5q0 26 -8 57.5t-23 69.5q-26 -54 -62.5 -84t-74.5 -30q-32 0 -56.5 12
t-41 30.5t-25 41.5t-8.5 45q0 34 14 60.5t37 44.5t54 27.5t66 9.5q57 0 100.5 -24.5t73.5 -64t45.5 -90.5t15.5 -103q0 -89 -36.5 -173t-101 -149t-152.5 -104.5t-191 -39.5q-47 0 -88.5 19.5t-72 52t-48.5 74.5t-18 86v869h-124z" />
    <glyph glyph-name="bn_ttha" unicode="&#x9a0;" horiz-adv-x="924" 
d="M0 1182h264q-53 77 -86.5 149t-33.5 133q0 56 19 109t48 98.5t64 81.5t67 59q23 -20 46.5 -34.5t46.5 -31.5q-20 -15 -50 -43t-58 -64.5t-47.5 -81.5t-19.5 -95q0 -63 38.5 -134.5t97.5 -145.5h541v-81h-471l124 -143t114 -153.5t83.5 -159t32.5 -159.5
q0 -99 -24.5 -187.5t-74 -155t-123.5 -105t-174 -38.5q-57 0 -107.5 22t-92 60t-74.5 88t-56 107t-35.5 116.5t-13.5 115.5q102 49 159.5 110t85.5 134.5t34.5 160t6.5 187.5h-331v81zM698 475q0 48 -21 108t-56.5 124t-82 129t-97.5 123q-5 -72 -20 -146.5t-46.5 -142
t-81.5 -123.5t-124 -92q0 -11 6 -40t19.5 -67t34.5 -79.5t50 -75.5t67 -56.5t86 -22.5q79 0 130.5 36t81.5 90.5t42 117.5t12 117z" />
    <glyph glyph-name="bn_dda" unicode="&#x9a1;" horiz-adv-x="1174" 
d="M595 0q-75 0 -140 29.5t-120.5 79t-101.5 115t-82 137t-62 145t-42 139.5l99 47q11 -41 32.5 -99t52 -121.5t70 -126.5t86.5 -113t101.5 -81t115.5 -31q60 0 108 18.5t85 50t63 72.5t42.5 86t24.5 90t8 85q0 14 -1 26t-6 37q-42 -49 -78.5 -80.5t-71 -50t-68.5 -26
t-70 -7.5q-49 0 -87 21.5t-64.5 53.5t-40 70.5t-13.5 73.5v461h-435v81h1191v-81h-641v-426q0 -18 4.5 -40t16.5 -41t34 -31.5t57 -12.5q27 0 56 11t60 36t64 65t68 97l158 -65q7 -27 8 -58t1 -60q0 -67 -13 -136t-39.5 -133t-66.5 -120t-93.5 -97.5t-121 -65.5t-148.5 -24z
" />
    <glyph glyph-name="bn_ddha" unicode="&#x9a2;" horiz-adv-x="950" 
d="M683 565q-19 -40 -52.5 -64t-73.5 -24q-32 0 -56.5 12t-41 30.5t-25 41.5t-8.5 45q0 34 14 60.5t37 44.5t54 27.5t66 9.5q57 0 100.5 -24.5t73.5 -64t45.5 -90.5t15.5 -103q0 -89 -36.5 -173t-101 -149t-152.5 -104.5t-191 -39.5q-47 0 -88.5 19.5t-72 52t-48.5 74.5
t-18 86v869h-124v81h965v-81h-726v-815q0 -20 6 -49t22.5 -56.5t45.5 -47t74 -19.5q49 0 108 28.5t110 77t85.5 112t34.5 132.5q0 52 -20 101h-22z" />
    <glyph glyph-name="bn_nna" unicode="&#x9a3;" horiz-adv-x="870" 
d="M595 673q-12 65 -31.5 119t-49 92.5t-69.5 59.5t-94 21q-49 0 -92 -34.5t-65 -107.5q31 0 56 -11.5t42.5 -30.5t27 -42t9.5 -47q0 -58 -39 -92.5t-99 -34.5q-30 0 -57 12t-47.5 34t-32 53.5t-11.5 70.5q0 79 27 142.5t69 108.5t94 69t102 24q45 0 83 -11.5t70 -32
t58.5 -49t48.5 -62.5v258h288v-81h-173v-1056l-115 -45v673z" />
    <glyph glyph-name="bn_ta" unicode="&#x9a4;" horiz-adv-x="1275" 
d="M0 1101v81h1294v-81h-1294zM683 0q-100 0 -185.5 40.5t-155.5 110t-123.5 160.5t-91 192.5t-58.5 206.5t-24 202q23 11 47.5 20.5l44.5 17.5q11 -101 33.5 -202t57 -193.5t81.5 -173t106.5 -140t131 -93.5t156.5 -34q83 0 149.5 36.5t113.5 98.5t72.5 144t25.5 172
q0 36 -6.5 77t-21.5 80.5t-38.5 76t-57 64.5t-77.5 44.5t-100 16.5q-22 0 -47 -4t-50 -16t-49 -33.5t-43 -57.5q21 3 39.5 6.5t24.5 3.5q30 0 52 -12.5t36.5 -32t21.5 -42.5t7 -44q0 -58 -39.5 -92.5t-100.5 -34.5q-39 0 -67.5 17.5t-47.5 45.5t-28.5 62t-9.5 67
q0 46 23 94.5t63.5 88.5t96 65t121.5 25q110 0 187.5 -45t127 -115t72.5 -155t23 -165q0 -117 -36 -218t-101 -174.5t-155.5 -115.5t-200.5 -42z" />
    <glyph glyph-name="bn_tha" unicode="&#x9a5;" horiz-adv-x="1021" 
d="M638 875q0 -69 -27 -129.5t-69.5 -110t-96 -86.5t-105.5 -58q64 -16 123 -46.5t111 -71t95.5 -88t78.5 -98.5v995h286v-81h-172v-1056l-114 -45q-47 81 -108.5 154t-135 130.5t-156.5 96t-172 51.5l-68 97q38 5 84 19t92 35.5t89 50.5t76 65.5t53 79t20 91.5
q0 43 -13 81.5t-36.5 67t-54.5 45.5t-67 17q-33 0 -56 -5t-54 -19q34 -19 61 -53t27 -84q0 -58 -39 -92.5t-101 -34.5q-30 0 -56.5 12t-46.5 33.5t-31.5 52.5t-11.5 70q0 43 20 82.5t57.5 70.5t90.5 49.5t120 18.5q72 0 128.5 -25.5t96.5 -68.5t61 -98t21 -115z" />
    <glyph glyph-name="bn_da" unicode="&#x9a6;" horiz-adv-x="920" 
d="M0 1101v81h933v-81h-694v-551q22 38 59.5 76t90.5 71.5t121 59.5t152 41q19 -31 38.5 -56.5t38.5 -54.5q-48 -61 -77.5 -136.5t-29.5 -163.5q0 -79 28.5 -164t89.5 -167q-26 -14 -47 -28t-45 -28q-63 81 -99.5 179.5t-36.5 205.5q0 68 18 139.5t55 144.5
q-69 -14 -127 -49t-103.5 -81t-77 -97.5t-48.5 -99.5l-115 52v707h-124z" />
    <glyph glyph-name="bn_dha" unicode="&#x9a7;" horiz-adv-x="967" 
d="M694 0q-59 88 -123.5 163.5t-135 134.5t-149 100t-166.5 60l-77 107q94 106 219 205q-49 19 -80.5 44.5t-50 56t-25.5 66t-7 73.5q0 33 10 66.5t30.5 61.5t51.5 45.5t73 17.5q36 0 62.5 -10.5t44 -28t26.5 -41t9 -49.5q0 -23 -8 -45t-23 -39.5t-37.5 -28.5t-51.5 -11
q-8 0 -14.5 1.5t-15 6.5t-20 14t-27.5 23q-2 -5 -2 -11v-11q0 -31 13.5 -55.5t35 -41.5t47.5 -27t51 -11q167 109 340 144v202h286v-81h-171v-1056zM198 554q42 -12 89.5 -34.5t96 -52t96 -64t88.5 -70.5t74 -72t52 -67v671q-60 -14 -127.5 -45.5t-133.5 -74t-127 -92
t-108 -99.5z" />
    <glyph glyph-name="bn_na" unicode="&#x9a8;" horiz-adv-x="937" 
d="M0 1101v81h950v-81h-170v-1056l-116 -45v346q-66 146 -138.5 221t-171.5 75q-50 0 -92.5 -34.5t-65.5 -106.5q31 0 56 -11.5t42.5 -30t27 -42t9.5 -47.5q0 -29 -10.5 -52.5t-28.5 -40t-43 -25.5t-55 -9q-31 0 -58 12t-47.5 34.5t-32 54t-11.5 69.5q0 79 27 142.5
t69.5 108.5t94.5 69t102 24q85 0 167.5 -48t158.5 -161v553h-664z" />
    <glyph glyph-name="bn_pa" unicode="&#x9aa;" horiz-adv-x="1167" 
d="M1182 1182v-81h-170v-1056l-115 -45v746q-14 31 -35 66.5t-53 79.5l-411 -415l-67 59l25 25q12 26 16 52t4 54q0 37 -10 71.5t-30 61t-49 42.5t-68 16q-19 0 -38.5 -5t-45.5 -13l-15 -23q-21 17 -37.5 34t-37.5 35q29 52 71.5 105t98 95.5t123 69t146.5 26.5
q115 0 217 -63t196 -180v243h285zM480 1101q-45 0 -87.5 -15.5t-80 -42t-69.5 -60t-58 -69.5q17 6 34.5 9t34.5 3q50 0 87 -18t61.5 -48t36.5 -67.5t12 -76.5q0 -37 -12 -74l320 317q-61 62 -131 102t-148 40z" />
    <glyph glyph-name="bn_pha" unicode="&#x9ab;" horiz-adv-x="1333" 
d="M232 1101q50 -31 97 -74.5t88 -91.5t74 -96.5t55 -88.5l-43 -67q-36 -3 -81.5 -22.5t-90.5 -48.5t-85.5 -64.5t-65.5 -70.5q89 -15 170.5 -51t151.5 -83t127.5 -101t98.5 -105v870h207q69 0 125.5 -24.5t97 -69.5t63 -108.5t22.5 -142.5q0 -39 -12 -70.5t-32 -54
t-47 -34.5t-58 -12q-29 0 -54 9.5t-43.5 26t-29 39.5t-10.5 51q0 24 9 47.5t26 42.5t41.5 31t54.5 12h27q-5 68 -55.5 105t-126.5 37h-90v-838l-115 -54q-60 69 -128 134t-147.5 119t-172.5 93.5t-203 57.5l-30 78q24 34 60.5 73t84 76t105 68t122.5 49q-22 41 -58.5 90.5
t-84 98.5t-104 92t-116.5 72h-56v81h1354v-81h-1122z" />
    <glyph glyph-name="bn_ba" unicode="&#x9ac;" horiz-adv-x="971" 
d="M698 0q-50 81 -112 154.5t-134.5 133.5t-155 103.5t-172.5 66.5l-28 39l-25 35.5t-24 32.5q69 79 147.5 147.5t162.5 122.5t170.5 91.5t170.5 53.5v121h-698v81h985v-81h-172v-1056zM202 557q43 -10 91 -31.5t97 -50.5t96 -64t87.5 -72t73 -74t51.5 -71v671
q-60 -14 -127 -45t-133 -73t-127 -91t-109 -99z" />
    <glyph glyph-name="bn_bha" unicode="&#x9ad;" horiz-adv-x="1253" 
d="M0 1101v81h1270v-81h-1270zM1034 798q-23 -39 -55.5 -74t-73.5 -62t-89.5 -42.5t-101.5 -15.5q-69 0 -122.5 26t-90 65.5t-56 85t-19.5 84.5t12 70t32.5 52.5t46.5 33t55 11.5t54 -8.5t44 -24.5t29.5 -38.5t10.5 -50.5q0 -53 -22.5 -84t-51.5 -46q10 -20 23.5 -32
t27 -18.5t26.5 -9t22 -2.5q40 0 74 14.5t63 41t56 63t54 80.5l176 -45v-25q0 -103 -12 -206t-38 -197t-67 -175t-99 -141t-134 -94t-172 -34q-112 0 -199.5 42.5t-153 114t-110.5 165t-73.5 195t-41.5 204.5t-13 193l117 55q1 -81 11 -176t31.5 -190t56.5 -183t86 -156
t120 -109t159 -41q78 0 139 32t106 85.5t76.5 123t50.5 143.5t27.5 147t8.5 135v18z" />
    <glyph glyph-name="bn_ma" unicode="&#x9ae;" horiz-adv-x="1059" 
d="M0 1101v81h1075v-81h-174v-1056l-114 -45q-20 66 -48.5 131.5t-66 127t-84.5 118t-104 103.5q-8 -47 -25.5 -86.5t-45 -69t-64 -46t-81.5 -16.5q-51 0 -91 19.5t-68.5 49.5t-43.5 66.5t-15 71.5t15 71.5t44.5 66t71.5 48t96 18.5q24 0 43 -3t39 -3q-9 43 -31.5 98
t-63 113.5t-102 116t-147.5 106.5h-15zM484 613q52 -29 100 -73t88 -93.5t69.5 -98.5t45.5 -88v841h-615q76 -48 131.5 -111t92 -129.5t56 -130t25.5 -111.5zM282 559q-31 0 -53 -8.5t-36.5 -21.5t-21 -29t-6.5 -31q0 -20 9 -36.5t23.5 -29.5t31.5 -20t33 -7q51 0 80.5 35.5
t29.5 100.5v34q-23 6 -45.5 9.5t-44.5 3.5z" />
    <glyph glyph-name="bn_ya" unicode="&#x9af;" horiz-adv-x="1002" 
d="M730 0q-57 70 -121 135.5t-142 120t-173 93.5t-215 57l-34 80q19 33 54 74.5t82.5 82.5t107.5 76.5t130 56.5q-21 41 -57 87t-83 90t-102.5 82.5t-115.5 65.5h-61v81h1016v-81h-171v-1056zM503 685q-36 -5 -82.5 -23.5t-91.5 -46.5t-83.5 -63t-60.5 -72q94 -15 177 -51
t152.5 -84t123.5 -102.5t92 -105.5v964h-482q49 -28 93 -68t81.5 -84.5t66.5 -89.5t49 -83z" />
    <glyph glyph-name="bn_ra" unicode="&#x9b0;" horiz-adv-x="971" 
d="M252 245q25 0 47.5 -10.5t39 -28t26 -40t9.5 -46.5q0 -27 -10 -49t-26.5 -37.5t-38 -23.5t-45.5 -8q-23 0 -45 7.5t-39 22.5t-28 37.5t-11 52.5q0 24 9 46.5t24.5 39.5t38 27t49.5 10zM698 0q-50 81 -112 154.5t-134.5 133.5t-155 103.5t-172.5 66.5l-28 39l-25 35.5
t-24 32.5q69 79 147.5 147.5t162.5 122.5t170.5 91.5t170.5 53.5v121h-698v81h985v-81h-172v-1056zM202 557q43 -10 91 -31.5t97 -50.5t96 -64t87.5 -72t73 -74t51.5 -71v671q-60 -14 -127 -45t-133 -73t-127 -91t-109 -99z" />
    <glyph glyph-name="bn_la" unicode="&#x9b2;" horiz-adv-x="1158" 
d="M0 1101v81h1174v-81h-172v-1056l-114 -45v728q-9 25 -21 47t-29 38.5t-39 26t-49 9.5q-23 0 -44.5 -11t-39 -30.5t-29 -45.5t-13.5 -57h-115q-5 65 -51 104.5t-123 39.5q-28 0 -59 -9t-57 -28t-43 -48.5t-17 -69.5q0 -29 13 -53t30 -46q20 39 52 60t66 25
q56 -4 87.5 -35.5t31.5 -90.5q0 -33 -11.5 -57.5t-30 -40.5t-43 -24t-50.5 -8q-49 0 -95.5 20.5t-83 57t-58.5 86t-22 106.5q0 67 26 117.5t68 84.5t95 51.5t106 17.5q66 0 123.5 -30t95.5 -81q30 48 73 79.5t96 31.5q15 0 32.5 -3.5t38 -13.5t43 -27.5t46.5 -45.5v226h-888
z" />
    <glyph glyph-name="bn_sha" unicode="&#x9b6;" horiz-adv-x="1185" 
d="M899 813l-14 37.5t-23 52.5t-33 57.5t-43 53.5t-52.5 39t-62.5 15q-20 0 -47 -7t-51 -23.5t-40.5 -44.5t-16.5 -71q0 -75 24.5 -120t63.5 -45q18 0 30.5 10t20 25.5t12 34.5t6.5 38l82 -40q0 -26 -9 -58t-27.5 -60t-46 -46.5t-64.5 -18.5q-33 0 -63.5 12.5t-56 36.5
t-44.5 58.5t-29 79.5q-11 -49 -29.5 -84.5t-44 -58t-56 -33.5t-64.5 -11q-37 0 -65.5 18.5t-47.5 46.5t-29 60t-10 58l82 40q2 -19 7 -38t14 -34.5t22 -25.5t32 -10t34.5 12.5t26 35t16.5 53.5t6 68q0 57 -34 91t-83 53t-102 25t-92 6v81q178 -2 283.5 -46t133.5 -138
q12 36 36.5 69t58 58.5t75.5 41t90 15.5q50 0 90 -19.5t68.5 -45t45.5 -49t20 -32.5v146h297v-81h-182v-1056l-115 -45v813z" />
    <glyph glyph-name="bn_ssa" unicode="&#x9b7;" horiz-adv-x="1012" 
d="M0 1101v81h1027v-81h-173v-1056l-115 -45q-53 70 -113.5 135t-137 118.5t-174.5 92.5t-226 58l-22 47.5t-19 46.5q24 42 66.5 93t98.5 99.5t123.5 90t141.5 64.5q-100 94 -189.5 157.5t-181.5 98.5h-106zM178 488q92 -12 177.5 -49.5t158.5 -87.5t131 -106.5t94 -107.5
v392q-35 65 -82.5 123.5t-99.5 110.5q-57 -15 -114.5 -45t-108.5 -67.5t-91.5 -80t-64.5 -82.5zM739 1101h-432q41 -21 95.5 -59t113 -89t116.5 -113t107 -130v391z" />
    <glyph glyph-name="bn_sa" unicode="&#x9b8;" horiz-adv-x="1027" 
d="M0 1101v81h1043v-81h-173v-1056l-115 -45v628q-17 26 -53.5 48t-84.5 22q-41 0 -75 -15t-58 -30q-12 -41 -33 -76t-51.5 -60.5t-71 -40t-91.5 -14.5q-35 0 -65.5 13.5t-55 35t-42 47.5t-27.5 50q17 21 36.5 39t36.5 38q32 -58 62.5 -83.5t62.5 -25.5q36 0 62.5 20.5
t44 51t26.5 66t9 66.5q0 72 -28 125t-70.5 91.5t-92.5 63.5t-93 41h-103zM501 772q7 7 21.5 14.5t31.5 13.5t35 9.5t32 3.5q60 0 134 -67v355h-439q42 -17 76 -50.5t58.5 -77.5t37.5 -96t13 -105z" />
    <glyph glyph-name="bn_ha" unicode="&#x9b9;" horiz-adv-x="872" 
d="M660 714q0 -53 -20.5 -105.5t-59 -97t-92.5 -75t-121 -38.5q46 -15 108.5 -48.5t128.5 -77.5t129.5 -94.5t111.5 -98.5l-77 -79q-42 44 -96.5 87.5t-116.5 84t-128.5 76.5t-132 66t-126.5 52.5t-112 35.5l43 107q34 -11 73.5 -19t75.5 -8q58 0 112 15t95.5 45t66 74
t24.5 102q0 48 -15 86.5t-40 66t-57.5 42.5t-66.5 15q-32 0 -55.5 -5.5t-55.5 -19.5q36 -20 62 -53t26 -87q0 -55 -38 -90t-99 -35q-30 0 -56.5 12t-46.5 34.5t-31.5 54t-11.5 70.5q0 42 18 82t53.5 71t87 49.5t118.5 18.5q72 0 131.5 -26.5t102 -70.5t65.5 -101t23 -118z
M0 1101v81h886v-81h-886z" />
    <glyph glyph-name="bn_nukta" unicode="&#x9bc;" 
d="M135 69q29 0 51 -11.5t37 -30t23 -42.5t8 -48q-2 -24 -12 -44.5t-26.5 -36t-38.5 -24t-46 -8.5q-26 0 -47.5 10.5t-38 28t-25.5 40t-9 45.5q0 24 9 46t25.5 38.5t39.5 26.5t50 10z" />
    <glyph glyph-name="bn_avagraha" unicode="&#x9bd;" horiz-adv-x="942" 
d="M0 1101v81h342v-81h-342zM660 714q0 -53 -20.5 -105.5t-59 -97t-92.5 -75t-121 -38.5q46 -15 108.5 -48.5t128.5 -77.5t129.5 -94.5t111.5 -98.5l-77 -79q-42 44 -96.5 87.5t-116.5 84t-128.5 76.5t-132 66t-126.5 52.5t-112 35.5l43 107q34 -11 73.5 -19t75.5 -8
q58 0 112 15t95.5 45t66 74t24.5 102q0 48 -15 86.5t-40 66t-57.5 42.5t-66.5 15q-32 0 -55.5 -5.5t-55.5 -19.5q36 -20 62 -53t26 -87q0 -55 -38 -90t-99 -35q-30 0 -56.5 12t-46.5 34.5t-31.5 54t-11.5 70.5q0 42 18 82t53.5 71t87 49.5t118.5 18.5q72 0 131.5 -26.5
t102 -70.5t65.5 -101t23 -118z" />
    <glyph glyph-name="bn_ikaar" unicode="&#x9bf;" horiz-adv-x="441" 
d="M1072 1284q-25 22 -63.5 53t-87 64t-104.5 66t-116 59t-121.5 42t-119.5 16q-77 0 -131.5 -14t-89 -40.5t-51 -64t-16.5 -85.5q0 -42 23 -89t73 -109h175v-81h-181v-1056l-116 -45v1101h-146v81h137q-56 66 -80.5 121t-24.5 103q0 65 31.5 119t86 92.5t129.5 59.5t162 21
q81 0 176.5 -30t190 -78t181.5 -107.5t153 -119.5z" />
    <glyph glyph-name="bn_iikaar" unicode="&#x9c0;" horiz-adv-x="396" 
d="M-685 1498q0 -23 13.5 -38t37 -25t55 -16.5t67.5 -12.5q4 0 8.5 -1t9.5 -1q52 -9 108 -21t101.5 -35.5t75 -62.5t29.5 -103h300q0 74 -40.5 146t-115 129t-179 92t-232.5 35q-29 0 -70 -2.5t-78.5 -11t-63.5 -25.5t-26 -47zM-800 1496q0 43 17.5 75t47 54.5t68.5 36.5
t81.5 22t86.5 11t84 3q69 0 144 -16.5t147 -48t137 -77t114 -103t78 -126t29 -145.5h172v-81h-172v-1056l-114 -45v1101h-415v92q0 34 -19 55.5t-51 35.5t-73.5 22l-86.5 16q-49 9 -98 19t-88.5 29t-64 48.5t-24.5 77.5z" />
    <glyph glyph-name="bn_ukaar" unicode="&#x9c1;" 
d="M-344 -410q-36 0 -65 11.5t-49.5 31.5t-31.5 47t-11 58q0 27 12 53.5t33.5 47.5t51.5 34t66 13q8 0 19.5 -0.5t32.5 -5.5v120h114v-155q60 -27 117.5 -63.5t110 -76.5t99 -81.5l84.5 -78.5q-10 -14 -18.5 -21.5t-18.5 -19.5l-85 71.5t-92.5 73t-97 66.5t-99.5 53
q0 -36 -14.5 -68t-38.5 -56.5t-55 -39t-64 -14.5zM-333 -196q-48 0 -73.5 -20.5t-25.5 -54.5q0 -15 6.5 -26.5t16.5 -19.5t22 -12t22 -4q1 0 13.5 1.5t27 11.5t26.5 31.5t12 60.5v28q-17 3 -28 3.5t-19 0.5z" />
    <glyph glyph-name="bn_uukaar" unicode="&#x9c2;" 
d="M-172 -151q-23 -1 -47 -5.5t-44 -16t-33 -30.5t-13 -49q0 -14 6 -29t17.5 -28.5t28 -22t38.5 -8.5q27 0 47 13.5t33.5 31.5t21.5 36.5t11 28.5h78q65 -83 140.5 -145.5t171.5 -106.5q-10 -16 -21.5 -28.5t-19.5 -27.5q-97 49 -169.5 107t-125.5 122q-34 -63 -81.5 -92
t-96.5 -29q-43 0 -78 14t-60 38t-39 55.5t-14 66.5q0 52 34.5 91.5t100.5 58.5v106h114v-151z" />
    <glyph glyph-name="bn_rikaar" unicode="&#x9c3;" 
d="M-65 -550q-63 53 -125 89.5t-127 61t-134 39.5t-146 24l-16 80q42 6 84 16.5t83 29t81 47t79 71.5v92h114v-108q-22 -31 -51 -59.5t-61 -51.5t-66.5 -39.5t-66.5 -23.5q64 -12 119 -31t103 -45t92 -58t88 -70z" />
    <glyph glyph-name="bn_rrikaar" unicode="&#x9c4;" 
d="M-174 -219q-29 -18 -71 -37.5t-106 -42.5q64 -13 109 -27.5t75 -29.5q-4 -14 -8.5 -25t-9.5 -25q-52 31 -112.5 51t-123.5 28q2 14 3 29.5t1 29.5q10 3 17.5 5t15.5 4.5t19 7t29 12.5q-36 47 -85 74l15 51q34 6 64 16t56 21v77h114v-84q-41 -20 -88.5 -37t-109.5 -32
q29 -14 46 -32t31 -38l49 24.5t55 31.5z" />
    <glyph glyph-name="bn_ekaar" unicode="&#x9c7;" horiz-adv-x="572" 
d="M615 140q0 -23 -8.5 -48.5t-30.5 -46.5t-58.5 -35t-91.5 -14t-104.5 24.5t-92 67.5t-76 100.5t-57.5 122.5t-36.5 134.5t-12.5 137.5q0 86 21 163.5t54 143.5t74.5 119.5t82.5 91.5h-279v81h649v-81h-206q-46 -28 -95.5 -77.5t-90 -116t-66.5 -149t-26 -175.5
q0 -73 16.5 -152t49 -148t81.5 -119.5t114 -66.5q-18 20 -24 39t-6 33q0 45 30.5 72t78.5 27q21 0 41 -7t35 -22t24.5 -39.5t9.5 -59.5z" />
    <glyph glyph-name="bn_aikaar" unicode="&#x9c8;" horiz-adv-x="559" 
d="M430 1101q-46 -28 -95.5 -77.5t-90 -116t-67 -149t-26.5 -175.5q0 -73 14 -149.5t45 -144t81 -119t122 -73.5q-20 20 -25 39t-5 33q0 45 30 72t78 27q21 0 41 -7t35.5 -22t25 -39.5t9.5 -59.5q0 -23 -8.5 -48t-30.5 -46t-58.5 -34.5t-91.5 -13.5q-56 0 -105.5 24.5
t-91.5 67t-75.5 99.5t-57.5 122t-36.5 134.5t-12.5 137.5q0 86 20.5 163.5t53.5 143.5t74.5 119.5t83.5 91.5h-266v81h313q8 14 13 27.5t5 26.5q0 31 -16 56.5t-41 48.5t-56 44.5t-61 44.5q-22 17 -42 35.5t-35 39.5t-24 45t-9 52q0 67 77 142l56 -57q-15 -13 -24 -23
t-14.5 -19t-7 -18.5t-1.5 -20.5q0 -31 27 -60t66 -61l74.5 -59.5t73 -62.5t55.5 -66t22 -69q0 -8 -2.5 -20.5t-5.5 -25.5h183v-81h-196z" />
    <glyph glyph-name="bn_okaar" unicode="&#x9cb;" horiz-adv-x="2046" 
d="M1503 854q-23 34 -58 70t-69 58l62 88q49 -32 86.5 -68.5t66.5 -81.5zM1221 1052q-19 4 -42 5.5t-46 1.5q-22 0 -46 -1.5t-44 -5.5l-18 108q31 5 55.5 7t50.5 2q27 0 53 -2t52 -7zM1672 628q0 -25 -2 -51t-8 -57l-108 23q4 19 5.5 41t1.5 44q0 24 -1.5 48t-5.5 42l108 17
q6 -29 8 -54.5t2 -52.5zM1593 342q-31 -49 -69.5 -87.5t-85.5 -69.5l-64 90q37 26 70 59.5t56 69.5zM888 982q-41 -26 -72 -55.5t-57 -70.5q-23 16 -43.5 32t-44.5 32q31 42 69.5 81t86.5 69zM604 522q-5 28 -7 54t-2 52q0 29 2 55t7 52q27 -5 53.5 -9l54.5 -8
q-4 -18 -6.5 -42t-2.5 -48q0 -22 2.5 -44t6.5 -41zM1236 101q-28 -5 -53 -7t-52 -2q-26 0 -51.5 2t-56.5 7l20 106q22 -5 44 -6t46 -1q23 0 45 1t43 6zM827 187q-51 32 -87.5 71t-68.5 84l88 62q24 -36 58.5 -70.5t70.5 -58.5zM615 140q0 -23 -8.5 -48.5t-30.5 -46.5
t-58.5 -35t-91.5 -14t-104.5 24.5t-92 67.5t-76 100.5t-57.5 122.5t-36.5 134.5t-12.5 137.5q0 86 21 163.5t54 143.5t74.5 119.5t82.5 91.5h-279v81h649v-81h-206q-46 -28 -95.5 -77.5t-90 -116t-66.5 -149t-26 -175.5q0 -73 16.5 -152t49 -148t81.5 -119.5t114 -66.5
q-18 20 -24 39t-6 33q0 45 30.5 72t78.5 27q21 0 41 -7t35 -22t24.5 -39.5t9.5 -59.5zM1631 1182h457v-81h-173v-1056l-115 -45v1101h-169v81z" />
    <glyph glyph-name="bn_aukaar" unicode="&#x9cc;" horiz-adv-x="2072" 
d="M1500 854q-22 34 -57 70t-69 58l62 88q48 -32 85.5 -68.5t66.5 -81.5zM1219 1052q-20 4 -43 5.5t-45 1.5q-23 0 -46.5 -1.5t-43.5 -5.5l-18 108q31 5 55.5 7t50.5 2t52.5 -2t52.5 -7zM1670 628q0 -25 -2 -51t-8 -57l-108 23q4 19 5.5 41t1.5 44q0 24 -1.5 48t-5.5 42
l108 17q6 -29 8 -54.5t2 -52.5zM1591 342q-31 -49 -69.5 -87.5t-85.5 -69.5l-64 90q37 26 69.5 59.5t56.5 69.5zM886 982q-41 -26 -72 -55.5t-57 -70.5q-24 16 -44 32t-44 32q31 42 69.5 81t86.5 69zM602 522q-5 28 -7 54t-2 52q0 29 2 55t7 52q27 -5 53.5 -9l54.5 -8
q-4 -18 -6.5 -42t-2.5 -48q0 -22 2.5 -44t6.5 -41zM1234 101q-29 -5 -54 -7t-51 -2t-52 2t-56 7l20 106q22 -5 44 -6t46 -1q22 0 44.5 1t43.5 6zM825 187q-51 32 -87.5 71t-68.5 84l88 62q24 -36 58.5 -70.5t70.5 -58.5zM615 140q0 -23 -8.5 -48.5t-30.5 -46.5t-58.5 -35
t-91.5 -14t-104.5 24.5t-92 67.5t-76 100.5t-57.5 122.5t-36.5 134.5t-12.5 137.5q0 86 21 163.5t54 143.5t74.5 119.5t82.5 91.5h-279v81h649v-81h-206q-46 -28 -95.5 -77.5t-90 -116t-66.5 -149t-26 -175.5q0 -73 16.5 -152t49 -148t81.5 -119.5t114 -66.5q-18 20 -24 39
t-6 33q0 45 30.5 72t78.5 27q21 0 41 -7t35 -22t24.5 -39.5t9.5 -59.5zM1832 1182q17 29 17 54q0 31 -16 56.5t-41 48.5t-55.5 44.5l-60.5 44.5q-22 17 -42 35.5t-35.5 39.5t-24.5 45t-9 52q0 67 77 142l56 -57q-15 -13 -24 -23t-14.5 -19t-7 -18.5t-1.5 -20.5q0 -31 27 -60
t66 -61l74.5 -59.5t73 -62.5t55.5 -66t22 -69q0 -8 -2.5 -20.5t-4.5 -25.5h160v-81h-173v-1056l-115 -45v1101h-170v81h168z" />
    <glyph glyph-name="bn_halanth" unicode="&#x9cd;" 
d="M-86 -69l86 136l232.5 -177l231.5 -176q-11 -23 -24.5 -40t-24.5 -37z" />
    <glyph glyph-name="bn_khanda_ta" unicode="&#x9ce;" horiz-adv-x="917" 
d="M632 0v142q0 57 -22.5 101t-60 80t-86.5 67t-102 61l-17 9l-106.5 68t-94.5 79.5t-67.5 101.5t-25.5 134q0 79 27.5 142t74 106.5t107.5 67t128 23.5q64 0 121.5 -18t100 -52.5t67.5 -85t25 -114.5q0 -43 -16 -82.5t-45 -70t-69.5 -49t-90.5 -18.5q-41 0 -77.5 13.5
t-65.5 42t-50.5 73t-32.5 107.5q27 7 51.5 14.5l48.5 14.5q10 -76 45.5 -113.5t77.5 -37.5q26 0 46 10.5t34 26.5t21 34.5t7 34.5q0 31 -12 59.5t-37 50t-62 34t-87 12.5q-51 0 -92.5 -17.5t-70 -46.5t-44 -65.5t-15.5 -73.5q0 -68 23 -117t61.5 -87t88.5 -67.5t103 -57.5
q56 -29 111 -62t98.5 -78t70.5 -106.5t27 -147.5v-97z" />
    <glyph glyph-name="bn_yya" unicode="&#x9df;" horiz-adv-x="1002" 
d="M268 230q29 0 51.5 -11.5t37.5 -30.5t22.5 -42t7.5 -47q-2 -24 -11.5 -45t-26 -36.5t-38.5 -24t-47 -8.5t-46.5 10.5t-38 27.5t-26 39t-9.5 46q0 25 9.5 47t26 38.5t39.5 26.5t49 10zM730 0q-57 70 -121 135.5t-142 120t-173 93.5t-215 57l-34 80q19 33 54 74.5
t82.5 82.5t107.5 76.5t130 56.5q-21 41 -57 87t-83 90t-102.5 82.5t-115.5 65.5h-61v81h1016v-81h-171v-1056zM503 685q-36 -5 -82.5 -23.5t-91.5 -46.5t-83.5 -63t-60.5 -72q94 -15 177 -51t152.5 -84t123.5 -102.5t92 -105.5v964h-482q49 -28 93 -68t81.5 -84.5
t66.5 -89.5t49 -83z" />
    <glyph glyph-name="bn_rri" unicode="&#x9e0;" horiz-adv-x="1423" 
d="M619 -157q-46 55 -96 94.5t-107.5 67t-123.5 45t-144 27.5q0 22 -2 42.5t-2 42.5q40 8 82 20t85.5 32t87 50t85.5 74q-52 38 -115.5 63.5t-120.5 33.5l-72 106l581 364h-54q-24 0 -47 10.5t-43 27t-35.5 37.5t-23.5 41q-24 -62 -56.5 -103.5t-69 -66t-74 -35t-70.5 -10.5
q-57 0 -102 16.5t-76.5 45t-48 66.5t-16.5 80q0 38 11.5 69t31.5 53t46.5 34t56.5 12q61 0 100.5 -34t39.5 -91q0 -51 -28.5 -85.5t-66.5 -54.5q21 -5 39.5 -8.5t23.5 -3.5q40 0 70 25t51 64.5t33 89t17 98.5h102q2 -34 18 -67.5t41.5 -60.5t59 -44t70.5 -17q33 0 66 17v172
h114v-801q33 -13 65.5 -32.5t62 -43.5t53.5 -51t40 -54v982h286v-81h-171v-1056l-115 -45q-70 179 -221 248v-203l-114 -45q-58 85 -124.5 154t-139.5 123q-23 -26 -51 -49.5t-57.5 -42.5t-60 -32.5t-57.5 -19.5q54 -13 104.5 -37.5t95.5 -55.5t83.5 -66.5t68.5 -70.5z
M374 512q60 -20 125 -56.5t125.5 -80.5t112.5 -92.5t86 -93.5v622z" />
    <glyph glyph-name="bn_lli" unicode="&#x9e1;" horiz-adv-x="908" 
d="M527 277q32 19 65.5 43.5t61 50.5t45 52t17.5 50q0 37 -19.5 68.5t-52 59.5t-74.5 54l-88 52l-97.5 57.5t-86.5 64t-62 75.5t-24 92q0 49 22 101.5t79 116.5l50 -27t52 -27q-39 -42 -62.5 -78t-23.5 -70q0 -37 17.5 -67t47 -56.5t68 -51t80.5 -48.5q49 -28 98.5 -59.5
t89.5 -69.5t65 -84t25 -103q0 -51 -32.5 -98.5t-97.5 -99.5q-26 -29 -26 -54q0 -35 31 -61t75 -50q23 -12 46 -27t41.5 -33t30 -40t11.5 -49q0 -37 -42 -73.5t-120 -85.5q-2 -2 -5 -4.5t-7 -4.5q-4 -3 -9 -5l-24 50q18 12 31.5 30.5t13.5 41.5q0 15 -5.5 30.5t-16 27.5
t-24.5 20t-31 8q-5 0 -20.5 -3t-29.5 -11q21 -11 37.5 -27.5t16.5 -40.5q0 -23 -17 -37.5t-43 -14.5q-27 0 -45 19.5t-18 53.5q0 24 9.5 43t25 32t36.5 19.5t44 6.5t45.5 -8t40 -22t28 -32.5t10.5 -40.5q0 -13 -3 -31t-20 -44q15 9 33 21.5t33.5 26.5t26 28t10.5 27
q0 19 -10 35t-26.5 30.5t-38 27.5l-44.5 27q-18 11 -38 24.5t-38.5 30t-32 37t-17.5 46.5l-94.5 -61l-94.5 -63l-33.5 59t-31.5 61q39 28 68 64.5t29 83.5q0 30 -11 59.5t-30.5 52.5t-46.5 37.5t-59 14.5q-12 0 -30 -3.5t-44 -9.5q18 -10 34.5 -23.5t29 -30.5t20.5 -38.5
t8 -47.5q0 -28 -10.5 -51.5t-28.5 -40t-43.5 -25.5t-55.5 -9t-57 12t-47.5 34.5t-32 54t-11.5 70.5q0 53 21.5 94.5t57 69.5t81 42.5t94.5 14.5q54 0 103.5 -17.5t87 -48.5t60 -73t22.5 -91q0 -24 -7 -57.5t-36 -75.5z" />
    <glyph glyph-name="bn_llikaar" unicode="&#x9e3;" 
d="M-288 -198q14 9 33 23t36 29t29 30.5t12 27.5q0 19 -9.5 35.5t-25.5 31t-37 27.5t-45 26l-6 4q-23 12 -44.5 25.5t-38 29.5t-27 34.5t-10.5 41.5q0 20 9.5 44t33.5 53l40 -21q-36 -35 -36 -69q0 -35 30.5 -61t72.5 -50q24 -13 47 -28t41.5 -33t29.5 -40t11 -50
q0 -35 -40.5 -71.5t-118.5 -85.5l-21 -15l-25 48q19 14 32.5 33t13.5 41q0 15 -6 30t-16.5 27.5t-25 20.5t-32.5 8q-5 0 -19 -2.5t-28 -10.5q20 -11 37 -28t17 -40q0 -24 -18 -38t-43 -14q-27 0 -46.5 19.5t-19.5 53.5q0 24 10 43t26.5 32t37 19.5t42.5 6.5q24 0 46.5 -8
t39.5 -22t27 -32.5t10 -40.5q0 -13 -3 -35t-23 -49zM-11 61q15 9 34 23t36 29.5t28.5 31t11.5 27.5q0 19 -9.5 35t-25.5 30.5t-37 27t-45 25.5l-7 5l-43.5 26.5t-38 29t-27 34t-10.5 41.5q0 20 9.5 43.5t33.5 52.5l40 -19q-36 -37 -36 -71q0 -35 30.5 -60.5t73.5 -49.5
l46 -28.5t41 -32.5t29.5 -40t11.5 -49q0 -36 -41 -72.5t-119 -86.5l-20 -13l-24 47q18 14 31 33t13 42q0 14 -5.5 29t-16 27.5t-24.5 20.5t-32 8q-5 0 -19.5 -2.5t-28.5 -10.5q20 -11 37 -28.5t17 -38.5q0 -24 -17.5 -38t-42.5 -14q-28 0 -47 18.5t-19 52.5q0 25 9.5 44
t25.5 32t37 19.5t43 6.5q24 0 46.5 -8t39.5 -22t27 -33t10 -41q0 -11 -3 -33.5t-23 -49.5z" />
    <glyph glyph-name="bn_zero" unicode="&#x9e6;" horiz-adv-x="950" 
d="M421 0q-68 0 -122.5 26.5t-96.5 71t-71.5 104.5t-48.5 126.5t-28 137t-9 136.5q0 64 10 132.5t31 133.5t52.5 123.5t74 102.5t96.5 69.5t119 25.5q70 0 125 -29t96.5 -76.5t71 -110t48 -129t27 -133t8.5 -123.5q0 -72 -10.5 -144t-31.5 -137t-53 -121.5t-74.5 -97.5
t-96 -64.5t-117.5 -23.5zM419 114q78 0 130 44.5t83.5 113.5t44.5 152t13 161q0 54 -6.5 111t-20 111.5t-34.5 103t-50 85t-66 58t-83 21.5q-52 0 -92 -22.5t-70 -61t-51 -88.5t-34 -106t-18.5 -114t-5.5 -111q0 -46 6 -98t19.5 -103t34 -97.5t49 -82t66.5 -56.5t85 -21z
" />
    <glyph glyph-name="bn_one" unicode="&#x9e7;" horiz-adv-x="782" 
d="M632 293q0 -55 -23.5 -107.5t-65 -94t-98 -66.5t-121.5 -25q-53 0 -103 15.5t-89 45t-63 72t-24 95.5q0 39 11.5 70t31.5 52.5t46.5 33.5t56.5 12q62 0 100 -34t38 -91q0 -52 -27.5 -87t-62.5 -53q20 -7 39.5 -12t34.5 -5q43 0 80.5 17t65 45t43.5 62t16 69
q0 38 -15.5 75.5t-41.5 75.5t-59.5 76.5l-69.5 77.5l-79 90t-70 94t-50 98.5t-19 103.5q0 49 22.5 101.5t78.5 117.5q25 -12 50 -27.5t48 -26.5q-37 -36 -59 -77.5t-22 -71.5q0 -42 15 -81t40.5 -77.5t58.5 -77l68 -78.5l79 -92t70 -97.5t50 -104.5t19 -113z" />
    <glyph glyph-name="bn_two" unicode="&#x9e8;" horiz-adv-x="1146" 
d="M108 512l101 -26q19 -3 36.5 -3.5t38.5 -0.5q64 0 123.5 14.5t105 41.5t73 65.5t27.5 86.5q0 21 -18 41.5t-49 41t-71 42l-85 44.5l-82.5 43.5t-79.5 47t-70.5 50.5t-54.5 54l14 42q6 18 12 38t11 35q23 -30 59.5 -60t82.5 -59.5t99.5 -60l112.5 -61.5l99.5 -55.5t84 -55
t58 -56.5t21.5 -60q0 -54 -24.5 -102t-63.5 -87.5t-88 -68.5t-99 -45q77 -30 145.5 -63t131.5 -69t122 -76t117 -84l-31.5 -51l-31.5 -51q-192 138 -412.5 234t-475.5 145z" />
    <glyph glyph-name="bn_three" unicode="&#x9e9;" horiz-adv-x="1316" 
d="M680 0q-100 0 -185.5 40.5t-155 110t-123.5 160.5t-91.5 192.5t-58 206.5t-23.5 202q11 5 27 11.5l31 12.5l36 14q10 -101 32.5 -202t57 -193.5t81.5 -173t106.5 -140t131 -93.5t155.5 -34q83 0 149.5 36.5t113.5 98.5t72 144t25 172q0 36 -6.5 77t-21.5 80.5t-38 76
t-56.5 64.5t-77.5 44.5t-100 16.5q-22 0 -47 -4t-50 -16t-49 -33.5t-43 -57.5q23 3 40.5 6.5t23.5 3.5q31 0 53 -12.5t36 -32t20.5 -42.5t6.5 -44q0 -29 -10.5 -52.5t-28.5 -40t-43 -25.5t-55 -9q-40 0 -69 17.5t-48 45.5t-28.5 62t-9.5 67q0 46 22.5 94.5t63 88.5t96 65
t121.5 25q110 0 188 -45t127.5 -115t72.5 -155t23 -165q0 -117 -36 -218t-101 -174.5t-156 -115.5t-201 -42z" />
    <glyph glyph-name="bn_four" unicode="&#x9ea;" horiz-adv-x="791" 
d="M169 615q-48 44 -75 99.5t-27 136.5q0 69 25.5 129t69.5 105t104 71t128 26q79 0 139.5 -29t101 -77t61 -111t20.5 -131q0 -72 -30 -127t-84 -103q31 -18 58.5 -46t47.5 -63.5t32 -75t12 -79.5q0 -78 -32 -140.5t-83.5 -107t-116.5 -68.5t-131 -24q-65 0 -128.5 21.5
t-113.5 64t-81.5 106t-31.5 148.5q0 82 37 148.5t98 108.5v18zM385 563q-47 0 -89.5 -18.5t-74.5 -49t-51 -71.5t-19 -86q0 -51 23 -92.5t57 -70.5t73.5 -45t73.5 -16q52 0 96 18t76 49t50.5 73.5t18.5 91.5q0 46 -20.5 85.5t-53.5 69t-75 46t-85 16.5zM392 656
q40 0 76 15.5t63.5 43.5t43.5 67t16 85q0 44 -18 81t-47 63.5t-64.5 41.5t-69.5 15q-42 0 -79.5 -18t-65.5 -47.5t-44 -68t-16 -80.5q0 -45 18 -82t47.5 -62.5t66 -39.5t73.5 -14z" />
    <glyph glyph-name="bn_five" unicode="&#x9eb;" horiz-adv-x="851" 
d="M829 744q-54 -18 -111.5 -54t-104.5 -86.5t-77.5 -113.5t-30.5 -134q0 -35 3.5 -65.5t13 -62.5t26 -69t43.5 -84l-71 -75q-105 23 -196 76t-158.5 128.5t-106.5 169t-39 198.5q0 80 21.5 150.5t58.5 131t86 111t103.5 91.5t112.5 71.5t112 50.5q13 -24 25.5 -42t25.5 -42
l-110 -64l173 -254q32 17 69.5 32.5t82.5 29.5zM135 548q0 -36 12.5 -74.5t35 -77.5t53 -77t66 -72.5t74 -64t77.5 -51.5q-14 31 -25.5 61.5t-19.5 61.5t-12 64t-4 71q0 34 11.5 78.5t33.5 90.5t53.5 90t72.5 77l-182 255q-53 -39 -98 -81.5t-78 -94t-51.5 -114.5
t-18.5 -142z" />
    <glyph glyph-name="bn_six" unicode="&#x9ec;" horiz-adv-x="1217" 
d="M593 0q-75 0 -140 29.5t-120.5 79t-101 115t-81.5 137t-62.5 145t-42.5 139.5l99 47q11 -41 32.5 -99t52 -121.5t70 -126.5t86.5 -113t101.5 -81t115.5 -31q90 0 153.5 40.5t103.5 101t58 130.5t18 130q0 14 -1 26t-8 37q-41 -49 -77.5 -80.5t-71 -50t-69 -26t-70.5 -7.5
q-49 0 -87.5 21.5t-64.5 53.5t-40 70.5t-14 73.5v542h116v-507q0 -18 4 -40t16 -41t34 -31.5t58 -12.5q26 0 55.5 11t61 36t64.5 65t67 97l158 -65q7 -27 8 -58t1 -60q0 -67 -13 -136t-40 -133t-66.5 -120t-93.5 -97.5t-121 -65.5t-148 -24z" />
    <glyph glyph-name="bn_seven" unicode="&#x9ed;" horiz-adv-x="920" 
d="M658 505q-33 -20 -68 -33t-69.5 -20.5t-66.5 -11t-58 -3.5q-77 0 -141.5 30.5t-111 80.5t-72.5 115.5t-26 134.5q0 73 29.5 142t80.5 123t120 86.5t149 32.5q94 0 160 -33.5t108 -89.5t61 -129t19 -152v-733l-114 -45v505zM658 798q0 46 -17.5 94t-48.5 87t-73.5 64
t-92.5 25q-54 0 -102.5 -21.5t-85 -59t-58 -87t-21.5 -105.5q0 -49 19.5 -93t52.5 -77.5t75.5 -53t87.5 -19.5q42 0 74.5 4t62 11.5t59.5 19l68 26.5v185z" />
    <glyph glyph-name="bn_eight" unicode="&#x9ee;" horiz-adv-x="1086" 
d="M744 349q0 -66 -22 -116.5t-59 -88t-86 -63t-104 -42t-112 -26t-109 -13.5l-125 45v929q0 42 -22.5 68.5t-54.5 49.5l77 86q22 -14 42.5 -30.5t36.5 -36t25.5 -42.5t9.5 -50v-451q31 26 72.5 45t80.5 19q32 0 58.5 -1t52.5 -3q21 -2 44 -2h46q48 0 87 2.5t75 13.5
t72.5 34t78.5 65q17 -23 32.5 -40.5t33.5 -40.5q-36 -36 -65.5 -62t-58.5 -43t-60.5 -27t-73.5 -16q28 -93 28 -163zM408 507q-20 0 -43.5 -6t-46 -16.5t-43 -26t-34.5 -34.5v-310q69 1 138.5 14.5t124.5 42.5t89.5 75.5t34.5 114.5q0 32 -7.5 69.5t-27.5 78.5
q-39 0 -75.5 -1t-59.5 -1h-50z" />
    <glyph glyph-name="bn_nine" unicode="&#x9ef;" horiz-adv-x="967" 
d="M527 194q39 22 73.5 57.5t60.5 73t41.5 72.5t15.5 58q0 37 -19.5 68.5t-52 59.5t-75 53.5l-88.5 51.5q-48 27 -96 57t-86.5 65t-62 76t-23.5 92q0 49 21.5 101t79.5 117l49 -27t52 -27q-39 -42 -62.5 -79t-23.5 -72t17.5 -65t47 -56t68.5 -50.5l81 -48.5
q49 -28 98.5 -59.5t89.5 -69.5t65 -84t25 -103q0 -55 -22.5 -107t-70.5 -106t-122 -112.5t-176 -125.5q-1 -1 -6 7.5t-12 21.5l-15.5 28.5t-15.5 29.5l-11.5 23t-4.5 10q19 14 36.5 32.5t30.5 43t20.5 58t7.5 77.5q0 31 -11 62t-30.5 56t-47 40.5t-60.5 15.5q-25 0 -74 -13
q37 -19 64.5 -53t27.5 -87q0 -29 -10.5 -52t-28.5 -39.5t-43 -25.5t-55 -9q-31 0 -57.5 12t-46.5 34t-31.5 53t-11.5 69q0 54 21 95t56.5 68t82.5 40.5t100 13.5q60 0 109 -23.5t84 -62t54.5 -86.5t19.5 -97q0 -11 -1 -26t-5.5 -34t-14 -42t-26.5 -50z" />
    <glyph glyph-name="asa_ra" unicode="&#x9f0;" horiz-adv-x="971" 
d="M698 0l-74.5 107t-72.5 90t-78 76t-91.5 66.5t-113.5 60.5t-144 58l-77 107q69 79 147.5 147.5t162.5 122.5t170.5 91.5t170.5 53.5v121h-698v81h985v-81h-172v-1047zM200 552q108 -39 191 -88t143.5 -98.5t100.5 -97t63 -83.5v264l-352 236q-42 -34 -80 -69t-66 -64z
M698 865q-63 -14 -131.5 -45.5t-134.5 -75.5l266 -192v313z" />
    <glyph glyph-name="asa_ba" unicode="&#x9f1;" horiz-adv-x="971" 
d="M167 327q117 -48 207 -112t153 -140l-63 -57q-63 82 -146.5 138.5t-186.5 88.5zM698 0q-50 81 -112 154.5t-134.5 133.5t-155 103.5t-172.5 66.5l-28 39l-25 35.5t-24 32.5q69 79 147.5 147.5t162.5 122.5t170.5 91.5t170.5 53.5v121h-698v81h985v-81h-172v-1056z
M202 557q43 -10 91 -31.5t97 -50.5t96 -64t87.5 -72t73 -74t51.5 -71v671q-60 -14 -127 -45t-133 -73t-127 -91t-109 -99z" />
    <glyph glyph-name="bn_rupeemark" unicode="&#x9f2;" horiz-adv-x="933" 
d="M45 1077q145 -11 257 -54.5t195.5 -112.5t140.5 -160t92.5 -197t51 -223t16.5 -238h-115q-1 102 -12.5 202.5t-39.5 192.5t-74.5 172t-117.5 142.5t-168 104t-226 55.5v116z" />
    <glyph glyph-name="bn_rupeesign" unicode="&#x9f3;" horiz-adv-x="1016" 
d="M297 408q0 -18 5.5 -52t23 -67t50.5 -57.5t88 -24.5q36 0 80.5 7.5t84.5 29t67 59.5t27 99q0 6 -4 29.5t-7 48.5q-26 -56 -63.5 -88.5t-78.5 -32.5q-32 0 -56.5 11.5t-41 30t-25 41t-8.5 44.5q0 34 14 60.5t37 44.5t54 27.5t66 9.5q57 0 96 -24t63 -61t35 -81t11 -84
q0 -59 -21 -103t-54.5 -76t-75 -52.5t-83 -32.5t-78 -17t-60.5 -5q-49 0 -95.5 21.5t-83 60.5t-59 93t-22.5 120v346h-140v118h140v215q0 28 -9.5 54.5t-26 47.5t-39.5 35.5t-50 17.5q7 35 14 62.5t14 59.5q39 -8 77 -31.5t68 -57t48 -73.5t18 -80v-250h573v-118h-573v-325z
" />
    <glyph glyph-name="bn_currency1" unicode="&#x9f4;" horiz-adv-x="933" 
d="M45 209q129 14 226 55.5t168 104t117.5 143t74.5 172.5t39.5 192t12.5 203h115q-1 -121 -16.5 -238t-51 -223t-92.5 -197t-140.5 -160t-195.5 -112.5t-257 -53.5v114z" />
    <glyph glyph-name="bn_currency2" unicode="&#x9f5;" horiz-adv-x="1104" 
d="M971 1079q-7 -110 -15 -206.5t-27 -183.5t-53 -165t-92.5 -151.5t-146 -142.5t-213.5 -138l-63 123q18 14 35.5 30t31 34.5t22 39.5t8.5 44q0 30 -11 59.5t-31 52.5t-47 37.5t-60 14.5q-12 0 -29 -3.5t-43 -9.5q18 -10 34.5 -23.5t29 -30.5t20.5 -38.5t8 -47.5
q0 -57 -39 -91.5t-101 -34.5q-30 0 -56.5 12t-46.5 34.5t-31.5 54t-11.5 70.5q0 53 21.5 94.5t56.5 69.5t80.5 42.5t93.5 14.5q55 0 104.5 -17.5t87.5 -48.5t60.5 -73t22.5 -91q0 -24 -6 -50t-21 -51l16 -12q95 69 152 156.5t88.5 188t43.5 211.5t17 226h111v0z" />
    <glyph glyph-name="bn_currency3" unicode="&#x9f6;" horiz-adv-x="1236" 
d="M394 92q-36 0 -61 11t-40.5 28.5t-22 40.5t-6.5 47q0 18 8.5 38t22.5 40.5t32 41t38 39.5l11 11q31 38 54 71.5t23 64.5q0 18 -3.5 43t-17.5 48.5t-42 40t-77 16.5q-15 0 -24.5 -1.5t-17.5 -4.5q-2 0 -4.5 -1.5t-4.5 -1.5l-6 -19q28 -14 49.5 -45.5t21.5 -83.5
q0 -57 -38 -92t-100 -35q-30 0 -56.5 12.5t-46.5 35t-31.5 54t-11.5 70.5q0 53 21.5 94.5t56.5 70t80.5 43.5t93.5 15q71 0 122.5 -24t85 -62t49.5 -84.5t16 -91.5q0 -23 -7 -45t-18.5 -42.5t-25.5 -39.5t-29 -36q-23 -29 -40.5 -56.5t-17.5 -54.5q0 -23 15 -32t35 -9
q85 0 156 45t127.5 118t99.5 166.5t72 190.5t44 189t17 163h111q-5 -104 -24 -218t-56 -223.5t-93 -208.5t-133.5 -174t-178.5 -119t-228 -44z" />
    <glyph glyph-name="bn_currency4" unicode="&#x9f7;" horiz-adv-x="318" 
d="M162 1182v-1090h-115v1090h115z" />
    <glyph glyph-name="bn_currencyless" unicode="&#x9f8;" horiz-adv-x="897" 
d="M241 621l23 -4q18 40 51.5 79t83 72.5t115.5 59.5t150 39q20 -29 39.5 -54t40.5 -56q-50 -60 -78 -135.5t-28 -161.5q0 -80 27 -165t90 -166q-28 -14 -49.5 -27.5t-45.5 -26.5q-63 81 -98 178.5t-35 204.5q0 68 16.5 138t53.5 143q-86 -27 -142 -64.5t-92 -80.5
t-56 -89.5t-34 -91.5q-39 17 -73.5 28t-72.5 25v508q0 42 -22.5 68.5t-52.5 49.5l75 86q22 -14 43 -30.5t36.5 -36t25 -42.5t9.5 -50v-398z" />
    <glyph glyph-name="bn_currency16" unicode="&#x9f9;" horiz-adv-x="937" 
d="M428 1034q81 0 150 -31.5t118.5 -82.5t77.5 -114.5t28 -127.5q0 -71 -30.5 -135.5t-82 -113.5t-119.5 -78t-142 -29t-143 27.5t-122 75.5t-85.5 113t-32.5 140t30.5 140t83 113t122 75.5t147.5 27.5zM413 933q-48 0 -92.5 -20.5t-79 -55t-55.5 -80t-21 -94.5
q0 -62 23.5 -109t61.5 -78.5t86.5 -47.5t98.5 -16q56 0 101.5 22.5t77.5 59t51 84t22 98.5q-3 48 -25.5 91t-57 75.5t-78.5 51.5t-91 19h-22z" />
    <glyph glyph-name="bn_isshar" unicode="&#x9fa;" horiz-adv-x="1281" 
d="M165 800q-2 -23 -6 -40.5t-4 -36.5q0 -90 31.5 -160.5t83.5 -119t117 -74t133 -25.5q81 0 149 33t125 89t102.5 130.5t81 157t61 169t42.5 165.5q26 -12 45 -18.5t45 -17.5q-9 -63 -32.5 -148t-61.5 -176.5t-90.5 -180.5t-119.5 -159.5t-148.5 -114t-177.5 -43.5
q-94 0 -183.5 30.5t-159.5 90.5t-112.5 149.5t-42.5 206.5q0 29 2.5 64t10.5 67zM552 1007q29 0 51.5 -11.5t37.5 -30.5t22.5 -42.5t7.5 -47.5q-2 -24 -11.5 -45t-26 -37t-38.5 -25t-47 -9t-46.5 11t-38 28.5t-26 39.5t-9.5 45q0 25 9.5 47.5t26 39.5t39.5 27t49 10z" />
    <glyph glyph-name="bn_ekaar.init" horiz-adv-x="570" 
d="M613 140q0 -23 -8.5 -47.5t-30.5 -45t-58.5 -34t-91.5 -13.5t-105 24.5t-92 66.5t-75.5 99t-57.5 122t-36.5 134t-12.5 137q0 86 24 176t68.5 171t106.5 147t137 105h259v-81h-199q-46 -28 -95.5 -77.5t-90 -116t-67 -149t-26.5 -175.5q0 -73 14 -150.5t45 -145t81 -119
t122 -71.5q-20 20 -25 39t-5 33q0 45 30.5 72t78.5 27q21 0 41 -7t35 -22t24.5 -39.5t9.5 -59.5z" />
    <glyph glyph-name="bn_aikaar.init" horiz-adv-x="550" 
d="M363 1182q8 14 13 27.5t5 26.5q0 31 -16 56.5t-41.5 48.5t-56 44.5l-60.5 44.5q-22 17 -42 35.5t-35 39.5t-24 45t-9 52q0 68 77 142l56 -57q-15 -13 -24.5 -23t-14.5 -19t-6.5 -18.5t-1.5 -20.5q0 -31 26.5 -60t65.5 -61l75.5 -59.5t73 -62.5t55.5 -66t22 -69
q0 -8 -2.5 -20.5t-4.5 -25.5h116v-81h-189q-47 -28 -96 -77.5t-90 -116t-67 -149t-26 -175.5q0 -48 6.5 -100.5t19.5 -103t34 -97.5t50 -84.5t67 -64t85 -36.5q-20 20 -25 39t-5 33q0 45 30 72t78 27q21 0 41 -7t35.5 -22t25 -39.5t9.5 -59.5q0 -23 -8.5 -47.5t-30.5 -45
t-58.5 -34t-91.5 -13.5t-104.5 24.5t-92 66.5t-76 99t-57.5 122t-36.5 134t-12.5 137q0 87 24 177t68 171t106.5 146.5t139.5 104.5z" />
    <glyph glyph-name="bn_ba_phala" 
d="M-536 176q73 -24 135.5 -56.5t118.5 -81.5v278q-69 -20 -133.5 -54t-120.5 -86zM-167 372v-390q-32 -12 -61.5 -26.5t-61.5 -28.5q-89 74 -181 120t-196 61q-8 22 -13.5 43.5t-13.5 44.5q91 88 187.5 146.5t211.5 87.5z" />
    <glyph glyph-name="bn_likaar" unicode="&#x9e2;" 
d="M-209 -295q14 9 33 23t36 29t29 30.5t12 27.5q0 19 -9.5 35.5t-25.5 31t-37.5 27.5t-45.5 26l-6 4q-22 12 -43.5 25.5t-38 29.5t-27 34t-10.5 41q0 21 9.5 45t33.5 53l39 -21q-35 -35 -35 -69q0 -35 30.5 -61t73.5 -50q23 -13 46 -28t41 -33t29.5 -40t11.5 -50
q0 -35 -41 -71.5t-119 -85.5l-20 -14l-25 47q19 14 32 33t13 42q0 14 -5.5 29t-16 27.5t-24.5 20.5t-32 8q-6 0 -20 -2.5t-28 -10.5q20 -11 37 -28t17 -40q0 -24 -17.5 -38t-43.5 -14q-27 0 -46 19.5t-19 53.5q0 24 9.5 43t25.5 32t36.5 19.5t42.5 6.5q25 0 47.5 -8
t39.5 -22t27 -33t10 -41q0 -12 -3 -34.5t-23 -48.5z" />
    <glyph glyph-name="bn_k_ra" horiz-adv-x="1415" 
d="M957 45l-45 -16l-40 -14.5t-36 -14.5l-9 20l-29.5 52.5t-35.5 50t-44.5 37t-55.5 14.5q-26 0 -47 -12t-40 -30t-37 -38.5t-38.5 -38.5t-43.5 -30t-52 -12q-56 0 -104.5 24.5t-89 66.5t-72 99.5t-53 124.5t-33 140.5t-11.5 148.5q0 41 2.5 81t10.5 86h113
q-9 -42 -12.5 -83.5t-3.5 -83.5q0 -86 16.5 -172.5t47.5 -157t75.5 -114.5t101.5 -44q23 0 42 6.5t35.5 17.5t31.5 25.5l30 30.5q28 26 56.5 48t59.5 22q35 0 63 -8.5t51 -23t42.5 -33.5l39.5 -40v475q0 57 -10 105.5t-32 84t-57 55.5t-86 20q-13 0 -33 -7t-44.5 -23.5
t-51 -43.5t-52.5 -68q55 -7 88.5 -44t33.5 -88q0 -57 -38 -91.5t-99 -34.5q-30 0 -57 12t-46.5 34.5t-31 54t-11.5 70.5q0 53 17 99t45.5 84.5t64.5 68.5t74 50.5t75 31.5t66 11q67 0 118.5 -24t87.5 -63t58 -89t31 -102q32 24 68 37t71 13q65 0 114.5 -21t82.5 -57
t50 -84.5t17 -103.5q0 -33 -12 -61t-32 -48t-47 -31t-57 -11q-27 0 -49.5 10t-39.5 27t-26.5 39.5t-9.5 47.5q0 19 8 41t25 41.5t45 34.5t69 21q-21 22 -39 35t-35.5 20t-34.5 9.5t-35 2.5q-36 0 -69 -20t-60 -52v-597zM0 1101v81h1436v-81h-1436z" />
    <glyph glyph-name="bn_kh_ra" horiz-adv-x="1094" 
d="M825 65q-121 177 -262.5 284.5t-310.5 130.5l-69 96q41 4 88 17t93.5 34.5t89 51t74.5 65.5t51.5 79t19.5 91q0 24 -8 56.5t-32 61.5q-20 -62 -53 -105t-71 -70t-77.5 -39t-71.5 -12q-57 0 -101 16.5t-75 45t-47 66.5t-16 80q0 38 11 69t30.5 53t45 34t55.5 12
q62 0 97.5 -36t35.5 -94q0 -25 -9 -44.5t-23.5 -34.5t-32 -26t-34.5 -19q14 -11 33.5 -18t36.5 -7q37 0 69 21t56 54.5t37.5 76t13.5 85.5q0 11 -0.5 21t-2.5 21q55 -3 100.5 -24.5t78.5 -56t51 -79t18 -94.5q0 -69 -24 -129t-66 -109t-98 -85t-120 -57q58 -15 122 -50.5
t122 -79.5t104.5 -91t70.5 -86v941h286v-81h-172v-1129l-114 -45q-39 30 -67.5 47.5t-51 26.5t-41.5 11.5t-39 2.5q-29 0 -55 -8.5t-53 -19.5q-32 -14 -69.5 -26.5t-76.5 -12.5q-51 0 -100 14.5t-91 39.5t-73.5 59.5t-46.5 73.5l87 37q20 -45 49 -69.5t59.5 -36.5t58.5 -14
t48 -2q33 0 63.5 11t61 24t61.5 24t66 11q40 0 71.5 -11.5t57 -27.5t45.5 -33.5t36 -29.5v47z" />
    <glyph glyph-name="bn_g_ra" horiz-adv-x="985" 
d="M404 658q-8 53 -47.5 73.5t-96.5 20.5q-50 0 -105 -12.5t-97 -32.5q-11 28 -16.5 55.5t-5.5 50.5q0 75 34 142t89 117.5t123.5 80t136.5 29.5q86 0 158 -45.5t135 -140.5v186h286v-81h-171v-1129q-22 -7 -43 -15l-37.5 -15t-34.5 -15q-40 30 -68 47.5t-50 26.5
t-40.5 11.5t-39.5 2.5q-35 0 -66.5 -10.5t-62 -23t-61.5 -23t-64 -10.5q-51 0 -100 14.5t-90.5 39.5t-73 59.5t-46.5 73.5l86 37q21 -45 50 -69.5t59 -36.5t58 -14t47 -2q34 0 65.5 11t62.5 24t61.5 24t63.5 11q34 0 63.5 -9.5t55 -23t48 -29.5t42.5 -28v742
q-15 50 -40 102.5t-60.5 95.5t-82.5 70.5t-105 27.5q-36 0 -78.5 -16t-81 -46t-67 -73.5t-35.5 -98.5q38 11 69 17.5t55 6.5q44 0 86 -12t74.5 -35.5t52 -59t19.5 -82.5t-16.5 -84t-43.5 -65t-61 -49t-68.5 -35t-66.5 -22t-55 -12l-70 110q40 1 85.5 12t85 30.5t66.5 46
t30 57.5z" />
    <glyph glyph-name="bn_gh_ra" horiz-adv-x="1000" 
d="M101 561l264 153q-71 1 -128.5 19t-98.5 47.5t-63.5 68.5t-22.5 82q0 35 23.5 80.5t83.5 89.5h-159v81h1016v-81h-173v-1129q-22 -7 -43 -15l-37.5 -15t-34.5 -15q-40 30 -68.5 47.5t-50.5 26.5t-40.5 11.5t-39.5 2.5q-29 0 -53.5 -8.5t-51.5 -19.5q-35 -14 -71.5 -26.5
t-77.5 -12.5q-51 0 -99.5 14.5t-90 39.5t-73 59.5t-46.5 73.5l86 37q21 -45 50 -69.5t59.5 -36.5t58.5 -14t46 -2q35 0 66.5 11t61.5 24t60.5 24t63.5 11q34 0 64.5 -11t56.5 -26.5t48 -32.5t41 -30v45q-119 177 -261.5 284.5t-311.5 130.5zM591 737l-294 -178
q61 -13 123 -45t119 -75.5t105.5 -94t83.5 -101.5v858h-438q-41 -22 -65.5 -44t-37.5 -44t-16.5 -42t-3.5 -38q0 -32 17.5 -55.5t44 -39.5t57 -24t56.5 -8q55 0 112 16t103 36z" />
    <glyph glyph-name="bn_c_ra" horiz-adv-x="1002" 
d="M730 307q-52 -35 -106.5 -65t-104 -54.5t-90.5 -42t-68 -25.5l-127 52v929h-234v81h1016v-81h-667v-85q4 -41 31 -72t68.5 -57t92.5 -47.5l104 -42.5t103 -43.5t89 -49.5t63 -61t24 -78q0 -42 -22 -81t-57 -80v-432q-22 -7 -43 -15l-37.5 -15t-34.5 -15
q-32 28 -56.5 45.5t-45.5 27t-40 12.5t-38 3q-29 0 -57.5 -10.5t-58 -23t-59.5 -23t-62 -10.5q-51 0 -100.5 14.5t-91 39.5t-73 59.5t-46.5 73.5l88 37q20 -45 48.5 -69.5t58.5 -36.5t58 -14t46 -2q31 0 59.5 11t57 24t57.5 24t61 11q30 0 58 -10.5t52 -24.5t42.5 -29
l29.5 -24l12 -10v285zM776 561q0 24 -22 44.5t-52.5 36.5t-62.5 27.5t-51 17.5q-77 31 -134 59t-105 69v-538q29 3 71.5 20t90 42t95 55.5t85.5 61t61.5 58t23.5 47.5z" />
    <glyph glyph-name="bn_ch_ra" horiz-adv-x="1041" 
d="M219 338l108.5 56.5l128.5 67l130.5 73t115 75t82 73.5t31.5 67q0 19 -7.5 31.5t-19 20t-25.5 10.5t-28 3q-28 0 -56.5 -6.5t-52.5 -13.5q-9 -28 -31 -55.5t-52.5 -53t-67.5 -47.5t-75 -39t-76 -28t-70 -13l-48 18q-20 8 -42.5 15.5l-39.5 13.5v495h-124v81h1057v-81
h-818v-60q6 -24 25.5 -41t47.5 -29.5t61 -22t68 -17.5q31 -7 63 -19l66 -26q38 17 82.5 27.5t88.5 10.5q40 0 74.5 -10.5t60 -30.5t40.5 -49.5t15 -67.5q0 -62 -23 -109t-70.5 -90t-120 -86t-171.5 -96q69 -6 129 -23.5t113.5 -45t102 -64.5t94.5 -80l-30.5 -42t-30.5 -40
l-41 47v-165q-21 -7 -41 -15l-37.5 -15t-36.5 -15q-40 30 -68 47.5t-49.5 26.5t-40 11.5t-38.5 2.5q-35 0 -66.5 -10.5t-62.5 -23t-62 -23t-65 -10.5q-51 0 -100 14.5t-90.5 39.5t-72.5 59.5t-46 73.5l88 37q20 -45 48.5 -69.5t58.5 -36.5t58 -14t47 -2q34 0 65.5 11t62 24
t61.5 24t65 11q31 0 59 -8t53.5 -20.5t49 -29l45.5 -32.5v187q-73 42 -146.5 64.5t-148.5 22.5q-39 0 -77 -10t-65 -23q-14 -5 -27 -13l-25 -15zM239 673q39 0 82 11t78 28.5t58 39t23 43.5q0 12 -9.5 20.5t-24.5 14.5t-35 10.5t-41 8.5q-39 8 -75 23.5t-56 49.5v-249z" />
    <glyph glyph-name="bn_j_ra" horiz-adv-x="1350" 
d="M0 1101v81h1369v-81h-639q49 -128 155.5 -184.5t274.5 -58.5l33 -95q-51 -72 -73.5 -149.5t-22.5 -155.5q0 -88 26.5 -173t72.5 -165v-148q-23 -7 -46 -15l-41 -15t-37 -15q-39 30 -65.5 47.5t-47 26.5t-37 11.5t-36.5 2.5q-31 0 -56.5 -8.5t-51.5 -19.5
q-34 -14 -71 -26.5t-79 -12.5q-50 0 -99 14.5t-90 39.5t-72.5 59.5t-46.5 73.5l88 37q20 -45 48.5 -69.5t58.5 -36.5t58 -14t46 -2q35 0 66.5 11t62 24t62 24t65.5 11t64 -10.5t56.5 -25.5t48 -32l37.5 -30v79q-47 78 -71.5 171.5t-24.5 189.5q0 81 21.5 161.5t65.5 152.5
q-67 0 -137.5 17.5t-132.5 55.5t-109.5 98t-66.5 145l-33 -56l-36 -60t-39.5 -71t-31.5 -74t-13 -68q0 -38 24.5 -63t72.5 -25q8 0 20.5 4t27 12t29.5 19.5t28 26.5l64 -46l63 -46q2 -21 3 -34t1 -26q0 -78 -22.5 -147.5t-65.5 -121t-104.5 -81.5t-140.5 -30
q-85 0 -150 27.5t-112.5 74.5t-80 109t-52 130.5t-27.5 140t-8 136.5v49q32 0 61.5 6.5t43.5 13.5v-47q0 -56 6.5 -116.5t21 -118.5t38 -110.5t58.5 -92t82.5 -62.5t109.5 -23q55 0 97 19.5t70.5 52.5t43.5 76.5t15 90.5q0 17 -2.5 32.5t-4.5 30.5q-43 -29 -83.5 -42.5
t-85.5 -13.5q-36 0 -65.5 17.5t-50.5 44.5t-32.5 60t-11.5 65q0 40 11 81t28 80.5t36.5 75l36.5 65.5l25 44h-491z" />
    <glyph glyph-name="bn_tt_ra" horiz-adv-x="980" 
d="M0 1101v81h750q16 38 16 66q0 39 -27 64.5t-72.5 43t-104.5 29.5t-123 23q-74 13 -148.5 28.5t-134 40.5t-97 63.5t-37.5 97.5q0 37 18 84.5t52 102.5q19 -10 38.5 -22.5l36.5 -22.5q-24 -35 -35.5 -66.5t-11.5 -57.5q0 -36 22.5 -61.5t61.5 -43.5t90 -30.5t108 -22.5
q53 -10 108.5 -19t107.5 -20.5t98 -26.5t80 -37.5t54 -53t20 -71.5q0 -17 -3 -38t-13 -50h139v-81h-754v-664q0 -20 6 -49.5t22.5 -57t45.5 -47t74 -19.5q33 0 70.5 13t75 36.5t72.5 56t61.5 71.5t42.5 82.5t16 89.5q0 50 -31 126q-27 -51 -63 -82t-74 -31q-32 0 -56.5 12
t-41 30.5t-25 41.5t-8.5 45q0 34 14 60.5t37 45t54 28.5t66 10q57 0 100.5 -24.5t73.5 -65t45.5 -91.5t15.5 -103q0 -20 -4.5 -40.5t-4.5 -43.5v-559q-23 -7 -45 -15l-39.5 -15t-35.5 -15q-32 28 -56.5 45.5t-44.5 27t-38.5 12.5t-38.5 3q-29 0 -53.5 -10.5t-49 -23t-51 -23
t-60.5 -10.5q-51 0 -100.5 14.5t-91 39.5t-73 59.5t-46.5 73.5l88 37q20 -45 48.5 -69.5t58.5 -36.5t58 -14t46 -2q30 0 56 11t51.5 24t51.5 24t56 11q32 0 62 -11.5t55.5 -27t44 -31l27.5 -22.5v276q-73 -72 -161.5 -114t-190.5 -42q-47 0 -88.5 20t-72 52.5t-48.5 74.5
t-18 86v720h-124z" />
    <glyph glyph-name="bn_tth_ra" horiz-adv-x="1043" 
d="M770 271q-64 -55 -137 -83.5t-151 -28.5q-82 0 -149 35.5t-115.5 95t-76 136t-29.5 159.5q102 49 159 97.5t84.5 107.5t34 134t6.5 177h-396v81h331q-54 77 -86.5 149t-32.5 133q0 56 19 109t47.5 98.5t63 81.5t66.5 59q22 -20 46 -34.5t47 -31.5q-20 -15 -49.5 -43
t-57 -64.5t-47.5 -81.5t-20 -95q0 -63 38 -134t99 -146h595v-81h-528q11 -12 26 -27l30.5 -31.5l30.5 -33l27 -29.5l85 -96.5t77.5 -99t56.5 -97.5t22 -92v-623q-21 -7 -42 -15l-38 -15l-36 -15q-40 30 -68 47.5t-49.5 26.5t-40 11.5t-38.5 2.5q-33 0 -64 -10.5t-62 -23
t-63 -23t-67 -10.5q-51 0 -99.5 14.5t-90 39.5t-73 59.5t-46.5 73.5l88 37q20 -45 49 -69.5t59 -36.5t58 -14t46 -2q33 0 63.5 11t61.5 24t62.5 24t66.5 11t66 -11t57.5 -27.5t47.5 -34.5t36 -32v256zM763 595q0 28 -11.5 57t-32 59.5t-48.5 63.5l-61 70l-103 114
q-5 -74 -20 -137t-45.5 -116t-80.5 -97t-124 -80q0 -11 7 -34t21.5 -51t35 -58t48 -54.5t61.5 -40.5t74 -16q63 0 114.5 23t88 65t56.5 101t20 131z" />
    <glyph glyph-name="bn_dd_ra" horiz-adv-x="1174" 
d="M595 159q-75 0 -140.5 26t-121.5 70t-102 102.5t-81.5 124.5t-61.5 135.5t-41 134.5l99 48q11 -40 32.5 -93.5t52 -111.5t70 -114.5t86.5 -101.5t101.5 -72.5t115.5 -27.5q90 0 153 32.5t102.5 83.5t57.5 113t18 122q0 13 -1 25.5t-6 38.5q-42 -49 -78.5 -81.5t-71 -51.5
t-68.5 -26.5t-70 -7.5q-49 0 -87 21.5t-64.5 54.5t-40 71.5t-13.5 73.5v353h-435v81h1191v-81h-641v-317q0 -18 4.5 -40t16.5 -41t34 -32t57 -13q27 0 56 11t60 36t64 65t68 97l158 -65q7 -29 8 -58.5t1 -58.5q0 -69 -16 -136.5t-42 -127.5v-439l-43 -20q-18 -8 -38 -18
l-35 -17q-39 30 -67 47.5t-50 26.5t-41 11.5t-40 2.5q-29 0 -53.5 -8.5t-52.5 -19.5q-34 -14 -70.5 -26.5t-77.5 -12.5q-51 0 -99.5 14.5t-90 39.5t-73 59.5t-46.5 73.5l86 37q21 -45 50 -69.5t59 -36.5t58 -14t46 -2q34 0 65.5 11t62.5 24t61.5 24t63.5 11q35 0 66 -10
t58 -23.5t48.5 -28t36.5 -22.5v230q-66 -50 -142 -78.5t-166 -28.5z" />
    <glyph glyph-name="bn_ddh_ra" horiz-adv-x="980" 
d="M993 1182v-81h-754v-662q0 -20 6 -49.5t22.5 -57t45.5 -47t74 -19.5q33 0 70.5 13t75 36.5t72.5 56t61.5 71.5t42.5 82.5t16 89.5q0 50 -31 126q-27 -51 -63 -82t-74 -31q-32 0 -56.5 12t-41 30.5t-25 41.5t-8.5 45q0 34 14 60.5t37 45t54 28.5t66 10q57 0 100.5 -24.5
t73.5 -65t45.5 -91.5t15.5 -103q0 -18 -2 -38t-7 -38v-569l-120 -45q-32 28 -56.5 45.5t-44.5 27t-38.5 12.5t-38.5 3q-29 0 -53.5 -10.5t-49 -23t-51 -23t-60.5 -10.5q-51 0 -100.5 14.5t-91 39.5t-73 59.5t-46.5 73.5l88 37q20 -45 48.5 -69.5t58.5 -36.5t58 -14t46 -2
q31 0 56 11t49 25q26 15 52 24.5t58 9.5q30 0 58.5 -10.5t53 -25t44.5 -30.5l33 -26v279q-70 -72 -160 -114t-192 -42q-47 0 -88.5 20t-72 52.5t-48.5 74t-18 85.5v718h-124v81h993z" />
    <glyph glyph-name="bn_t_ra" horiz-adv-x="1126" 
d="M971 65l-115 -65l-38 62t-41 53.5t-47.5 37.5t-56.5 14t-58.5 -24t-57 -53t-63.5 -53t-77 -24q-84 0 -151 40.5t-114.5 111t-72.5 167t-25 209.5q0 19 1 50t2.5 65.5t4 68t5.5 59.5h116q-4 -25 -7.5 -58.5t-5.5 -68t-3.5 -66t-1.5 -50.5q0 -86 16.5 -161.5t47 -131
t75.5 -87.5t102 -32q43 0 75.5 23t62.5 51t62.5 51t76.5 23q46 0 87.5 -27.5t85.5 -75.5v475q0 57 -10 105.5t-32.5 84t-58 55.5t-86.5 20q-12 0 -32 -7t-44 -23.5t-50.5 -43.5t-51.5 -68q53 -7 87.5 -44t34.5 -88q0 -28 -10.5 -51.5t-29 -40t-43.5 -25.5t-55 -9t-57 12
t-47.5 34.5t-32 54t-11.5 70.5q0 53 17 99t45.5 84.5t64.5 68.5t74 50.5t75 31.5t66 11q83 0 140.5 -31.5t93.5 -80.5t52 -108.5t16 -115.5v-629zM0 1101v81h1142v-81h-1142z" />
    <glyph glyph-name="bn_th_ra" horiz-adv-x="1021" 
d="M748 65q-118 177 -260.5 284.5t-311.5 130.5l-68 96q41 4 88 17t93 34.5t88 51t74.5 65.5t51.5 79t19 91q0 37 -13 67.5t-36.5 52.5t-54.5 34.5t-67 12.5q-33 0 -56 -5t-54 -19q34 -19 61 -53t27 -84q0 -58 -39 -92.5t-101 -34.5q-30 0 -56.5 12t-46.5 33.5t-31.5 52.5
t-11.5 70q0 43 18.5 82.5t54 70.5t87.5 49.5t119 18.5q72 0 130.5 -20t99.5 -55.5t63.5 -83.5t22.5 -103q0 -70 -21 -127t-58 -102.5t-87.5 -80t-110.5 -58.5q121 -37 218 -105t169 -174v909h288v-81h-174v-1119q-32 -12 -62 -26.5l-61 -28.5q-40 30 -66.5 47.5t-46.5 26.5
t-37 11.5t-37 2.5q-33 0 -64 -10.5t-62 -23t-63.5 -23t-67.5 -10.5q-51 0 -99.5 14.5t-90 39.5t-72.5 59.5t-46 73.5l86 37q21 -45 50 -69.5t59 -36.5t58 -14t46 -2q33 0 63.5 11t61 24t62 24t65.5 11t67 -11.5t61.5 -27t50 -31.5t31.5 -25v40z" />
    <glyph glyph-name="bn_d_ra" horiz-adv-x="1045" 
d="M0 1101v81h1061v-81h-691v-473q26 38 64 75.5t89.5 69.5t118 56.5t149.5 37.5q20 -29 40 -54t39 -56q-48 -60 -77.5 -135.5t-29.5 -161.5q0 -82 31 -168.5t94 -169.5v-140q-32 -12 -62.5 -26.5l-62.5 -28.5q-39 30 -65.5 47.5t-47 26.5t-37.5 11.5t-37 2.5
q-35 0 -67 -10.5t-62.5 -23t-61.5 -23t-65 -10.5q-51 0 -99.5 14.5t-90 39.5t-73 59.5t-46.5 73.5l88 37q20 -45 49 -69.5t59 -36.5t58 -14t46 -2q35 0 66.5 11t62 24t61 24t64.5 11t66.5 -11t59.5 -26t48 -30.5l33 -24.5v64q-56 80 -87.5 172.5t-31.5 193.5q0 68 16.5 138
t55.5 143q-86 -27 -143.5 -60t-97 -72.5t-66 -86t-48.5 -99.5l-116 45v635h-254z" />
    <glyph glyph-name="bn_dh_ra" horiz-adv-x="967" 
d="M809 1101v-1119q-17 -6 -37.5 -15.5l-40.5 -18.5l-46 -21q-40 30 -66.5 47.5t-47 26.5t-37.5 11.5t-38 2.5q-35 0 -66.5 -10.5t-62 -23t-61.5 -23t-65 -10.5q-51 0 -100 14.5t-90 39.5t-72 59.5t-46 73.5l85 37q21 -45 50.5 -69.5t59.5 -36.5t58 -14t46 -2q34 0 65 11
t61.5 24t61.5 24t64 11q34 0 65 -10t57 -24.5t48 -30.5t40 -27v35q-119 182 -261 287t-311 130q-20 27 -36.5 54t-35.5 54q45 46 105 95l124 97q-45 18 -78.5 44.5t-55.5 59t-33 68t-11 71.5q0 33 10 65t30 57t50.5 40.5t72.5 15.5q34 0 61 -10.5t46 -28t29 -41t10 -49.5
q0 -23 -8 -45t-23.5 -39.5t-38 -28.5t-50.5 -11q-27 0 -46 6t-39 15q10 -35 28 -58.5t39 -39.5t43.5 -25t40.5 -14q81 54 166 97t172 81v172h286v-81h-171zM221 572q69 -17 138 -49t131.5 -75.5t115 -96.5t88.5 -112v647q-59 -27 -122 -62t-125 -75.5t-120 -85.5t-106 -91z
" />
    <glyph glyph-name="bn_n_ra" horiz-adv-x="1038" 
d="M0 1101v81h1054v-81h-173v-1129q-21 -7 -41 -15l-37.5 -15t-36.5 -15q-40 30 -68 47.5t-49.5 26.5t-40 11.5t-38.5 2.5q-36 0 -67.5 -10.5t-62.5 -23t-62 -23t-65 -10.5q-51 0 -99.5 14.5t-90 39.5t-73 59.5t-46.5 73.5l88 37q20 -45 48.5 -69.5t58.5 -36.5t58 -14t47 -2
q34 0 65.5 11t62.5 24t62 24t65 11t66.5 -12t59.5 -28.5t48 -32.5l33 -25v324q-32 73 -65.5 128.5t-71 92.5t-79.5 56t-92 19t-93.5 -34.5t-67.5 -106.5q32 0 57 -11.5t42.5 -30t26.5 -42t9 -47.5q0 -58 -38 -92.5t-99 -34.5q-29 0 -56 12t-47 34.5t-32 54t-12 69.5
q0 79 27 142.5t69.5 108.5t94.5 69t102 24q84 0 166 -48t159 -161v553h-766z" />
    <glyph glyph-name="bn_p_ra" horiz-adv-x="1167" 
d="M1182 1182v-81h-170v-1129q-22 -7 -43 -15l-37.5 -15t-34.5 -15q-40 30 -68 47.5t-50 26.5t-41 11.5t-40 2.5q-35 0 -66.5 -10.5t-62 -23t-61.5 -23t-65 -10.5q-50 0 -99 14.5t-90 39.5t-72.5 59.5t-46.5 73.5l86 37q21 -45 50 -69.5t59 -36.5t58 -14t47 -2q34 0 65 11
t61.5 24t61.5 24t64 11q35 0 67 -11t59.5 -26t49 -30t34.5 -23v716q-14 31 -35 66.5t-53 79.5l-411 -415l-67 59l25 25q12 26 16 52t4 54q0 37 -10 71.5t-30 61t-49 42.5t-68 16q-19 0 -38.5 -5t-45.5 -13l-15 -23q-21 17 -37.5 34t-37.5 35q29 52 71.5 105t98 95.5t123 69
t146.5 26.5q115 0 217 -63t196 -180v243h285zM480 1101q-45 0 -87.5 -17t-80 -44.5t-70 -61t-59.5 -66.5q14 6 31 8t34 2q37 0 73 -11.5t64.5 -35.5t46 -60t17.5 -85q0 -6 -0.5 -12.5t-2 -16.5t-5 -25.5t-9.5 -39.5l327 323q-61 62 -131 102t-148 40z" />
    <glyph glyph-name="bn_ph_ra" horiz-adv-x="1268" 
d="M730 65q-62 70 -127.5 133t-143 114t-171 87.5t-211.5 53.5l-30 76q24 34 60.5 73t84 76.5t105 69t122.5 50.5q-22 42 -56.5 85t-78.5 82.5t-95.5 74.5t-107.5 61h-81v81h1286v-81h-1038q48 -29 91 -65t80 -75.5t66.5 -81.5t50.5 -81l-33 -68q-35 -6 -79.5 -24.5
t-89.5 -45.5t-85.5 -61.5t-68.5 -73.5q96 -15 178 -47t151 -75t124 -93t97 -101v798h205q69 0 125.5 -24.5t97 -69.5t63 -108.5t22.5 -142.5q0 -39 -11.5 -70.5t-31.5 -54t-46.5 -34.5t-56.5 -12t-56 9.5t-44.5 26t-29 39.5t-10.5 51q0 24 9 47.5t26.5 42.5t42 31t55.5 12
h25q-5 68 -55.5 105t-126.5 37h-88v-910l-42 -20q-18 -8 -37.5 -18t-35.5 -17q-39 30 -67.5 47.5t-51 26.5t-41.5 11.5t-39 2.5q-28 0 -54 -8.5t-53 -19.5q-32 -14 -70 -26.5t-77 -12.5q-51 0 -100 14.5t-91 39.5t-73.5 59.5t-46.5 73.5l88 37q20 -45 49 -69.5t59 -36.5
t58.5 -14t47.5 -2q33 0 63.5 11t61 24t61.5 24t66 11t67.5 -12t60.5 -28.5t49 -32.5l33 -25v43z" />
    <glyph glyph-name="bn_b_ra" horiz-adv-x="1038" 
d="M0 1101v81h1054v-81h-173v-1129l-115 -45q-40 30 -68 47.5t-49.5 26.5t-40 11.5t-38.5 2.5q-31 0 -56 -8.5t-52 -19.5q-34 -14 -71 -26.5t-78 -12.5q-51 0 -99.5 14.5t-90 39.5t-73 59.5t-46.5 73.5l88 37q20 -45 48.5 -69.5t58.5 -36.5t58 -14t47 -2q34 0 65.5 11
t62.5 24t62 24t65 11t62.5 -10t53.5 -25t47.5 -32.5l43.5 -32.5v45q-119 179 -262.5 285.5t-312.5 129.5q-20 27 -36.5 53l-34.5 52q148 141 311 248t335 177v91h-766zM271 565q63 -6 136 -37.5t142 -78.5t127 -104t90 -113v662q-63 -24 -131 -61.5t-133.5 -81.5t-125 -92
t-105.5 -94z" />
    <glyph glyph-name="bn_bh_ra" horiz-adv-x="1047" 
d="M0 1101v81h1064v-81h-1064zM776 780l-19 4q-46 -82 -127 -131t-187 -49q-69 0 -122.5 26t-91 65.5t-57 85t-19.5 84.5t12 70t32.5 52.5t46.5 33t55 11.5t54 -8.5t44 -24.5t29.5 -38.5t10.5 -50.5q0 -53 -21.5 -84t-52.5 -46q11 -20 24 -32t26.5 -18.5t26.5 -9t22 -2.5
q41 0 75 14.5t63.5 41t56 63t53.5 80.5l180 -45v-900q-22 -7 -42 -15l-37 -15t-35 -15q-40 30 -68.5 47.5t-50.5 26.5t-40 11.5t-38 2.5q-31 0 -56 -8.5t-52 -19.5q-34 -14 -71 -26.5t-78 -12.5q-51 0 -99.5 14.5t-90 39.5t-73 59.5t-46.5 73.5l88 37q20 -45 49 -69.5
t59 -36.5t58 -14t46 -2q35 0 66.5 11t62 24t61.5 24t65 11t64 -9.5t56.5 -23t48.5 -28l39 -25.5v746z" />
    <glyph glyph-name="bn_m_ra" horiz-adv-x="1059" 
d="M0 1101v81h1075v-81h-174v-1129q-21 -7 -41 -15l-37 -15l-36 -15q-40 30 -68 47.5t-50 26.5t-40 11.5t-38 2.5q-31 0 -56.5 -8.5t-52.5 -19.5q-34 -14 -71 -26.5t-76 -12.5q-51 0 -100.5 14.5t-91 39.5t-72.5 59.5t-46 73.5l87 37q21 -45 49.5 -69.5t58.5 -36.5t58 -14
t46 -2q35 0 66.5 11t62 24t61.5 24t65 11t64 -10t56.5 -24.5t48.5 -30t39 -25.5v65q-15 34 -40.5 86t-63 111t-87 120.5t-112.5 114.5q-8 -47 -26 -87t-45.5 -69t-63.5 -45.5t-81 -16.5q-51 0 -91 19.5t-68.5 49.5t-43.5 66t-15 70q0 35 15 71.5t44.5 66t71.5 48t96 18.5
q24 0 43.5 -3t40.5 -3q-11 44 -34 89.5t-62.5 94t-100 99.5t-146.5 106h-18zM477 667q50 -32 95.5 -75t85.5 -89.5t72.5 -93.5t56.5 -87v779h-615q80 -51 135 -107.5t90.5 -113.5t54 -111.5t25.5 -101.5zM282 604q-31 0 -53 -8t-36.5 -21t-21 -29t-6.5 -32q0 -20 9 -36.5
t23.5 -28.5t31.5 -18.5t33 -6.5q51 0 80.5 34.5t29.5 100.5v32q-23 6 -45.5 9.5t-44.5 3.5z" />
    <glyph glyph-name="bn_sh_ra" horiz-adv-x="1174" 
d="M901 813q-4 13 -13.5 37.5t-23.5 52.5t-33 57.5t-42.5 53.5t-52.5 39t-63 15q-20 0 -47 -7t-51 -23.5t-40.5 -44.5t-16.5 -71q0 -75 24.5 -120t63.5 -45q19 0 31 10t20 25.5t12 34.5t6 38l82 -40q0 -26 -9 -58t-27 -60t-46 -46.5t-65 -18.5q-33 0 -63.5 12.5t-56 36.5
t-44.5 58.5t-29 79.5q-11 -49 -29.5 -84.5t-44 -58t-56 -33.5t-64.5 -11q-37 0 -65 18.5t-47 46.5t-28.5 60t-9.5 58l80 40q2 -19 7 -38t14 -34.5t22 -25.5t32 -10t34.5 12.5t26 35t16.5 53.5t6 68q0 57 -34 91t-83 53t-102 25t-92 6v81q179 -2 284.5 -46t132.5 -138
q12 36 36.5 69t58 58.5t76 41t90.5 15.5q50 0 89.5 -19.5t68 -45t45.5 -49t20 -32.5v146h286v-81h-171v-1119l-115 -55q-39 30 -67 47.5t-50.5 26.5t-41.5 11.5t-39 2.5q-33 0 -64 -10.5t-61.5 -23t-62.5 -23t-66 -10.5q-51 0 -100.5 14.5t-91.5 39.5t-73.5 59.5t-46.5 73.5
l89 37q20 -45 48.5 -69.5t58.5 -36.5t58 -14t48 -2q33 0 63.5 11t61 24t62 24t66.5 11q34 0 64 -9t56 -21.5t48 -27l41 -26.5v777z" />
    <glyph glyph-name="bn_ss_ra" horiz-adv-x="1012" 
d="M0 1101v81h1027v-81h-173v-1129q-21 -7 -42 -15l-38 -15t-35 -15q-40 30 -68 47.5t-50 26.5t-40.5 11.5t-39.5 2.5q-29 0 -54 -8.5t-52 -19.5q-35 -14 -71.5 -26.5t-77.5 -12.5q-51 0 -99.5 14.5t-90 39.5t-72.5 59.5t-46 73.5l85 37q21 -45 50.5 -69.5t59.5 -36.5
t58 -14t46 -2q35 0 66.5 11t61.5 24t60.5 24t63.5 11q36 0 68.5 -12.5t60 -29t48.5 -33t33 -23.5v43q-61 70 -126.5 133t-142.5 114t-170.5 87.5t-211.5 53.5l-38 90q25 39 69 85t100.5 90.5t121 82t130.5 59.5q-112 91 -218.5 148.5t-191.5 92.5h-61zM196 538
q96 -19 177 -53t148.5 -77.5t121.5 -94t96 -101.5v342q-35 63 -82.5 121.5t-99.5 113.5q-43 -11 -95.5 -38.5t-103.5 -63.5t-94.5 -75.5t-67.5 -73.5zM739 1101h-449q54 -27 109 -60t111 -76.5t113 -100.5t116 -131v368z" />
    <glyph glyph-name="bn_s_ra" horiz-adv-x="1027" 
d="M0 1101v81h1043v-81h-173v-1129q-22 -7 -43 -15l-37.5 -15t-34.5 -15q-40 30 -68 47.5t-49.5 26.5t-40 11.5t-38.5 2.5q-31 0 -56.5 -8.5t-51.5 -19.5q-34 -14 -71 -26.5t-79 -12.5q-50 0 -99 14.5t-90 39.5t-72.5 59.5t-46.5 73.5l88 37q20 -45 48.5 -69.5t58.5 -36.5
t58 -14t47 -2q34 0 65.5 11t62.5 24t61.5 24t63.5 11q34 0 65 -10t57 -24t48 -29t39 -25v596q-17 26 -53.5 48t-84.5 22q-41 0 -75 -15t-58 -30q-12 -41 -33 -76t-51.5 -60.5t-71 -40t-91.5 -14.5q-35 0 -65.5 13.5t-55 35t-42 47.5t-27.5 50q17 21 36.5 39t36.5 38
q32 -58 62.5 -83.5t62.5 -25.5q36 0 62.5 20.5t44 51t26.5 66t9 66.5q0 72 -25 126.5t-62.5 93.5t-81.5 64t-81 37h-137zM503 778q37 18 67 26.5t51 8.5q60 0 134 -67v355h-428q41 -23 74 -57.5t55.5 -77t34.5 -91t12 -97.5z" />
    <glyph glyph-name="bn_h_ra" horiz-adv-x="910" 
d="M698 750q0 -53 -18.5 -102.5t-53.5 -91t-85 -72t-113 -43.5q42 -13 98.5 -41t118 -65.5t123.5 -82.5t115 -93l-72 -82l-24 19l-19.5 15.5l-15.5 12.5v-152q-22 -7 -42 -15l-37.5 -15t-34.5 -15q-40 30 -68 47.5t-50 26.5t-41 11.5t-40 2.5q-28 0 -54.5 -8.5t-53.5 -19.5
q-32 -14 -69.5 -26.5t-76.5 -12.5q-51 0 -100 14.5t-90.5 39.5t-73.5 59.5t-48 73.5l88 37q20 -45 49 -69.5t59.5 -36.5t58.5 -14t48 -2q34 0 65 11t61.5 24t61.5 24t64 11q34 0 65.5 -10.5t58 -24.5t48.5 -29t38 -24v173q-67 42 -136 80t-137.5 70t-135.5 57t-130 41
l41 104q34 -12 72.5 -21t75.5 -9q57 0 110.5 15t94.5 43t65.5 67.5t24.5 88.5q0 38 -14.5 73t-39 62t-56 43t-65.5 16t-57 -9t-54 -23q34 -20 61 -53.5t27 -86.5q0 -27 -10.5 -50t-29 -39.5t-44 -26t-56.5 -9.5q-29 0 -55.5 12t-46.5 34.5t-32 54t-12 70.5q0 42 18.5 82
t54 71t87.5 49.5t119 18.5q72 0 131 -22.5t101 -61t65 -89t23 -107.5zM0 1101v81h924v-81h-924z" />
    <glyph glyph-name="asa_b_ra" horiz-adv-x="971" 
d="M0 1101v81h985v-81h-172v-1129q-21 -7 -42 -15l-38 -15t-35 -15q-39 30 -67 47.5t-50 26.5t-40.5 11.5t-39.5 2.5q-35 0 -66.5 -10.5t-62.5 -23t-62 -23t-65 -10.5q-51 0 -99.5 14.5t-90 39.5t-72.5 59.5t-46 73.5l85 37q21 -45 50.5 -69.5t59.5 -36.5t58 -14t47 -2
q34 0 65 11t62 24t61.5 24t62.5 11q36 0 68.5 -12t60.5 -28t48.5 -32t32.5 -23v40q-118 180 -261 286t-313 129q-20 27 -36.5 53t-35.5 52q148 141 311.5 248t334.5 177v91h-698zM217 570q64 -15 135 -49t137 -79.5t121 -99.5t88 -110v654q-59 -27 -124 -62.5t-129 -76.5
t-123 -86t-105 -91zM389 155q-49 41 -111 76t-134 55l39 86q76 -28 145.5 -69t120.5 -88z" />
    <glyph glyph-name="bn_k_ss_ra" horiz-adv-x="1528" 
d="M636 585q-16 0 -28.5 -1.5t-24.5 -4.5t-24.5 -8l-29.5 -12q38 -17 65 -44.5t27 -75.5q0 -20 -10 -39.5t-28 -35t-43.5 -25.5t-55.5 -10t-56.5 12.5t-46.5 33.5t-31.5 48.5t-11.5 56.5q0 68 48 121.5t145 76.5q-6 54 -24 96t-42.5 70.5t-54.5 43.5t-61 15
q-17 0 -29.5 -1.5t-23.5 -4.5t-23 -8.5l-28 -13.5q18 -9 35 -19.5t29.5 -25t20.5 -33t8 -42.5q0 -19 -10.5 -38.5t-29 -35.5t-44.5 -26t-56 -10q-29 0 -55.5 12.5t-46.5 34t-32 49t-12 57.5q0 58 34.5 105.5t102.5 76.5q-5 27 -16.5 47.5t-26.5 35.5t-32 24.5t-33 13.5h-81
v81h1550v-81h-505v-198q100 0 177.5 -15.5t130.5 -49t81 -85.5t28 -125q0 -39 -11.5 -70t-31 -52.5t-46.5 -33.5t-57 -12q-62 0 -100 34t-38 91q0 48 35.5 83.5t91.5 45.5q-20 27 -45 42.5t-56.5 22.5t-70.5 8.5t-88 1.5v-807l-42 -20q-18 -8 -37.5 -18t-34.5 -17
q-40 30 -68 47.5t-50.5 26.5t-41 11.5t-38.5 2.5q-29 0 -55.5 -8.5t-53.5 -19.5q-32 -14 -70 -26.5t-77 -12.5q-51 0 -99.5 14.5t-90 39.5t-73 59.5t-47.5 73.5l87 37q21 -45 49.5 -69.5t59 -36.5t58.5 -14t48 -2q32 0 61.5 10.5t60.5 23.5q29 13 62 24.5t68 11.5
q34 0 66 -10.5t59.5 -25.5t49 -30l35.5 -24v305q-15 49 -44.5 94.5t-68.5 80t-86 55t-96 20.5zM329 1002q62 0 113.5 -23t90.5 -64t64.5 -99.5t34.5 -128.5q81 -5 158.5 -48t140.5 -130v280q-84 0 -149.5 25.5t-110.5 68.5t-68.5 99.5t-23.5 118.5h-374q37 -25 55.5 -50.5
t25.5 -52.5q17 3 26 3.5t17 0.5zM931 1101h-233q0 -54 16.5 -91.5t47.5 -61.5t73.5 -34.5t95.5 -10.5v198z" />
    <glyph glyph-name="bn_k_ka" horiz-adv-x="1268" 
d="M52 282q39 51 88 96t105.5 81.5t119.5 64.5t131 44q-40 30 -93 49t-106 29.5t-99.5 14t-73.5 3.5q-20 28 -36.5 54l-35.5 54q109 125 255.5 197t324.5 83v49h-632v81h1286v-81h-538v-49q43 0 91 -8t94 -24t87.5 -41t73.5 -59.5t50.5 -78t18.5 -97.5q0 -29 -10.5 -56
t-28.5 -48t-43 -34t-54 -13q-18 0 -39.5 7t-40 21.5t-30.5 36.5t-12 52q0 16 5.5 34t16 33.5t25.5 25.5t35 10q22 0 39.5 -5t34.5 -13q-24 52 -62.5 81t-82 43t-88 17t-80.5 3v-337q43 0 91 -10.5t94 -31t87.5 -50.5t73.5 -68.5t50.5 -85.5t18.5 -102q0 -29 -10.5 -56.5
t-28.5 -48.5t-43 -33.5t-54 -12.5q-18 0 -39.5 7.5t-40 22t-30.5 36.5t-12 52q0 16 5.5 33.5t16 32t25.5 24t35 9.5q17 0 38.5 -8t35.5 -19q-23 55 -61.5 92t-82.5 59t-88.5 31t-80.5 9v-430l-116 -54q-39 40 -85.5 69t-94.5 48t-96.5 30t-91.5 17t-79.5 7.5l-60.5 2.5z
M187 268q46 0 101.5 -6t113.5 -22t117 -44.5t113 -73.5v369q-46 0 -106 -14.5t-121.5 -42.5t-119 -70t-98.5 -96zM189 759q40 -1 96.5 -10.5t118 -29.5t121.5 -51t107 -75v349q-25 0 -61 -5.5t-77 -16t-85 -26t-84.5 -35.5t-76 -45.5t-59.5 -54.5z" />
    <glyph glyph-name="bn_k_tta" horiz-adv-x="1399" 
d="M759 1101v-49q66 0 139.5 -18t135 -55.5t102 -95.5t40.5 -139q0 -29 -10.5 -56t-29 -48t-43 -34t-52.5 -13q-20 0 -41 7t-39 21.5t-29.5 36.5t-11.5 52q0 16 5 33.5t15 32t24.5 24t33.5 9.5t41 -9.5t33 -17.5q-21 52 -54.5 83.5t-74.5 47.5t-88.5 21t-95.5 5v-635
q0 -20 7.5 -52t26.5 -63.5t51.5 -54t83.5 -22.5q35 0 79 7.5t83 27t65.5 52.5t26.5 85q0 26 -6.5 56.5t-27.5 65.5q-25 -51 -58 -68.5t-74 -17.5q-31 0 -52.5 9.5t-34.5 24t-18.5 32t-5.5 33.5q0 29 12.5 51.5t33 38.5t47.5 24t56 8q52 0 95 -20t74 -55t48 -81.5t17 -98.5
q0 -78 -35 -132t-91 -88.5t-126.5 -50t-141.5 -15.5q-54 0 -99.5 22.5t-78 58t-51 79.5t-18.5 88v158q-36 54 -80.5 94.5t-93 69t-97.5 47t-93.5 29t-82.5 14.5t-63 4q-20 28 -36.5 54l-35.5 54q115 130 257 199.5t325 80.5v49h-647v81h1115q11 20 14.5 35.5t3.5 30.5
q0 38 -27 63.5t-72 43.5t-103.5 30t-121.5 23q-96 17 -173.5 35.5t-133 44.5t-85.5 62t-30 88q0 37 19.5 84.5t51.5 102.5l75 -45q-49 -72 -49 -124q0 -37 21 -61.5t57 -41.5t83.5 -28.5t100.5 -21.5q44 -9 97.5 -18t107.5 -21t105 -28t90.5 -39t63.5 -54t24 -73
q0 -17 -2.5 -38t-12.5 -50h189v-81h-649zM647 939q-43 0 -99.5 -10.5t-117 -32.5t-119.5 -56.5t-106 -82.5q34 0 88 -11t115.5 -35.5t124 -63.5t114.5 -95v387z" />
    <glyph glyph-name="bn_k_tt_ra" horiz-adv-x="1388" 
d="M759 1101v-49q66 0 139.5 -18t135 -55.5t102 -95.5t40.5 -139q0 -29 -10.5 -56t-29 -48t-43 -34t-52.5 -13q-20 0 -41 7t-39 21.5t-29.5 36.5t-11.5 52q0 16 5 33.5t15 32t24.5 24t33.5 9.5t43 -8.5t36 -16.5q-24 57 -63 88.5t-83.5 46.5t-90 17.5t-81.5 2.5v-617
q0 -19 6.5 -51.5t23.5 -63.5t46.5 -53.5t74.5 -22.5q15 0 41 1.5t56.5 7t61.5 16.5t56 30t41 48t16 70q0 23 -6.5 53.5t-27.5 68.5q-12 -26 -27 -43t-31.5 -27t-35 -14t-38.5 -4q-31 0 -52.5 9.5t-34.5 24t-18.5 32t-5.5 33.5q0 29 12.5 51.5t33 38.5t47.5 24t56 8
q52 0 95 -20.5t74 -55t48 -80t17 -96.5v-462q-32 -13 -62 -28t-61 -26q-40 29 -66.5 46.5t-47 26.5t-37.5 11.5t-38 2.5q-35 0 -66.5 -11t-62 -23.5t-61.5 -23.5t-65 -11q-51 0 -100 14.5t-90 40t-72 60t-46 74.5l85 36q21 -45 50 -69.5t59 -36.5t58 -14t47 -2q32 0 62.5 10
t59.5 24q31 14 65 25t66 11q33 0 65 -10.5t59 -25t49 -30.5t36 -28v211q-73 -44 -151 -62.5t-146 -18.5q-48 0 -89.5 22t-73 57.5t-49.5 80t-18 88.5v140q-36 54 -80.5 94.5t-93 69t-97.5 47t-93.5 29t-82.5 14.5t-63 4q-20 28 -36.5 54l-35.5 54q115 130 257 199.5
t325 80.5v49h-647v81h1115q11 20 14.5 35.5t3.5 30.5q0 39 -27 64.5t-73 43t-105.5 29.5t-123.5 23q-74 13 -148.5 28.5t-134 40.5t-97 63.5t-37.5 97.5q0 37 19.5 84.5t51.5 102.5q1 0 12.5 -7.5l25.5 -16l25.5 -15.5t11.5 -6q-49 -72 -49 -124q0 -44 32 -72.5t85 -47.5
t120.5 -31l137.5 -24t137.5 -26.5t120.5 -38t85 -58.5t32 -88q0 -17 -2.5 -38t-12.5 -50h189v-81h-649zM647 939q-57 0 -115.5 -10.5t-115.5 -32.5t-110.5 -56.5t-100.5 -82.5q35 0 89 -11t115.5 -35.5t123.5 -63.5t114 -95v387z" />
    <glyph glyph-name="bn_k_ta" horiz-adv-x="1483" 
d="M823 550q-24 0 -48 -8.5t-47 -23.5l-27.5 48t-27.5 44l26 13.5t26 12.5q34 16 60.5 30.5t45.5 31t29 37.5t10 52q0 28 -17 57t-44.5 52.5t-62 38.5t-68.5 15q-21 0 -45 -2.5t-46.5 -8.5t-42.5 -16t-35 -24q15 -3 34.5 -10.5t36 -20.5t28 -31t11.5 -42q0 -32 -11 -56.5
t-30 -41t-43 -25t-49 -8.5q-29 0 -55.5 11t-47.5 32.5t-34.5 54t-15.5 74.5q3 62 36 106t81 71.5t104 40t106 12.5q66 0 125.5 -23t105 -62t72 -91.5t26.5 -111.5q0 -20 -6 -43.5t-16 -54.5q54 32 105 49t95 17q64 0 113.5 -21t82.5 -57t50 -84.5t17 -103.5q0 -34 -12 -61.5
t-32.5 -47t-47.5 -30t-57 -10.5q-27 0 -49.5 10t-39 26.5t-25.5 39t-9 48.5q0 19 7.5 41t25 41.5t45.5 35t69 20.5q-22 21 -40.5 34t-36 20.5t-34 10t-34.5 2.5q-46 0 -89 -24t-82 -60q41 -35 60 -86.5t19 -104.5q0 -81 -37.5 -151.5t-100.5 -122t-145.5 -81.5t-171.5 -30
q-99 0 -178.5 36t-142 98t-108.5 143.5t-76.5 172.5t-47 186t-19.5 184l112 20q1 -67 12.5 -146.5t34.5 -160t59.5 -156t89 -134t121.5 -94t158 -35.5q63 0 120.5 22t101.5 60t70 89.5t26 110.5q0 23 -6 50t-20.5 50t-38 38.5t-58.5 15.5zM0 1101v81h1509v-81h-1509z" />
    <glyph glyph-name="bn_k_t_ba" horiz-adv-x="1489" 
d="M825 595q-12 0 -29 -4t-32 -9q-18 -5 -36 -12l-53 88q10 5 20 9l17 8.5t16 7.5l60 29.5t45.5 30t28.5 37.5t10 52q0 30 -17 52t-44.5 37t-62 22t-68.5 7q-21 0 -44.5 -2.5t-46 -8.5t-43 -16t-34.5 -24q16 -3 35 -10.5t35.5 -20.5t27.5 -31t11 -42q0 -32 -11 -56.5
t-29.5 -41t-42.5 -25t-50 -8.5q-28 0 -55 11t-48 32.5t-34.5 54t-15.5 74.5q3 62 36 106t81 71.5t104 40t106 12.5q66 0 125.5 -16t105 -46.5t72 -76t26.5 -104.5q0 -17 -6 -42t-16 -56q54 34 105 51t95 17q64 0 113.5 -21t83 -57.5t50.5 -85.5t17 -104q0 -33 -12 -60.5
t-32.5 -47t-47.5 -30.5t-57 -11q-27 0 -50 10t-39.5 27.5t-25.5 40t-9 47.5q0 19 8 41t25 41.5t45 34.5t69 20q-22 22 -40.5 35t-36 20t-33.5 9.5t-34 2.5q-47 0 -90 -23t-82 -61q41 -34 60 -85.5t19 -103.5q0 -42 -13 -81.5t-38 -79.5l101 -41v-316l-116 -45
q-44 36 -92 62.5t-97.5 43.5t-99 25.5t-96.5 10.5l-26 81q-90 5 -165 37.5t-135 85t-105.5 121.5t-76.5 148t-48 164.5t-20 171.5l112 20q2 -66 15 -138.5t37.5 -143t61.5 -134t89.5 -112t120.5 -77t153 -28.5q54 0 110 14.5t102 44t75 73.5t29 104q0 22 -6 49t-20 49.5
t-37.5 38t-59.5 15.5zM0 1101v81h1511v-81h-1511zM750 79q66 -12 130.5 -36.5t123.5 -72.5v199q-22 -2 -53.5 -6.5t-67 -14.5t-70.5 -26.5t-63 -42.5z" />
    <glyph glyph-name="bn_k_t_ra" horiz-adv-x="1489" 
d="M924 180q-73 -44 -152.5 -66t-154.5 -22q-95 0 -173 29.5t-141 81t-110 121.5t-79.5 151t-50 169t-20.5 176l112 20q2 -66 15 -138.5t37.5 -143t61.5 -134t89.5 -112t120.5 -77t153 -28.5q54 0 110 14.5t102 44t75 73.5t29 104q0 22 -6 49t-20 49.5t-37.5 38t-59.5 15.5
q-12 0 -28.5 -5l-31.5 -10q-18 -7 -35 -15l-55 93q10 5 20 9l17 8.5t16 7.5l60 29.5t45.5 30t28.5 37.5t10 52q0 30 -17 52t-44.5 37t-62 22t-68.5 7q-21 0 -44.5 -2.5t-46 -8.5t-43 -16t-34.5 -24q16 -3 35 -10.5t35.5 -20.5t27.5 -31t11 -42q0 -32 -11 -56.5t-29.5 -41
t-42.5 -25t-50 -8.5q-28 0 -55 11t-48 32.5t-34.5 54t-15.5 74.5q3 62 36 106t81 71.5t104 40t106 12.5q66 0 125.5 -16t105 -46.5t72 -76t26.5 -104.5q0 -17 -6 -42t-16 -56q54 34 105 51t95 17q64 0 113.5 -21t83 -57.5t50.5 -85.5t17 -104q0 -33 -12 -60.5t-32.5 -47
t-47.5 -30.5t-57 -11q-27 0 -50 10t-39.5 27.5t-25.5 40t-9 47.5q0 19 8 41t25 41.5t45 34.5t69 20q-22 22 -40.5 35t-36 20t-33.5 9.5t-34 2.5q-47 0 -90 -23t-82 -61q41 -34 60 -85.5t19 -103.5q0 -72 -32 -131v-378q-34 -11 -63.5 -25t-60.5 -27q-39 30 -66 47.5
t-47.5 26.5t-37.5 11.5t-38 2.5q-29 0 -55 -9t-53 -23q-32 -13 -70 -25t-76 -12q-51 0 -100 14.5t-91 40t-73.5 60t-47.5 74.5l89 35q20 -44 48.5 -68.5t59 -36t58.5 -14t48 -2.5q34 0 65.5 11t62 24t61 24t63.5 11t64.5 -10t59 -24t50 -29l36.5 -25v205zM0 1101v81h1511
v-81h-1511z" />
    <glyph glyph-name="bn_k_na" horiz-adv-x="1268" 
d="M632 124q-14 57 -40 99t-60.5 70t-75 42t-82.5 14q-9 0 -27.5 -2.5t-40 -12.5t-43.5 -28.5t-37 -49.5q33 0 58.5 -11t43 -29.5t26.5 -41.5t9 -47q0 -58 -38 -92.5t-99 -34.5q-30 0 -56.5 12t-47 34t-32 53.5t-11.5 69.5q0 78 28 132.5t70 88.5t92 49.5t94 15.5
q50 0 91 -12.5t74 -32.5t59 -45t45 -49v114q-32 55 -75 94t-91 65t-98 41t-95.5 22.5t-84.5 9.5t-64 2q-20 28 -36.5 54l-35.5 54q113 130 256 199.5t324 80.5v49h-632v81h1286v-81h-538v-49q43 0 91 -8t94 -24t87.5 -41t73.5 -59.5t50.5 -78t18.5 -97.5q0 -29 -10.5 -56
t-28.5 -48t-43 -34t-54 -13q-18 0 -39.5 7t-40 21.5t-30.5 36.5t-12 52q0 16 5.5 33.5t16 32t25.5 24t35 9.5q17 0 38.5 -7t33.5 -15q-15 51 -47 82t-74 48t-91 23t-99 6v-901l-116 -45v124zM178 757q32 0 87.5 -7t119 -27t129 -57t118.5 -98v378q-54 -1 -113 -12
t-118 -33.5t-116 -58t-107 -85.5z" />
    <glyph glyph-name="bn_k_ma" horiz-adv-x="1522" 
d="M1546 1101h-174v-1056l-115 -45q-55 65 -109 108t-108 68t-106.5 35t-104.5 10h-39t-35 -2q0 -74 -16.5 -117t-40 -64.5t-49 -27.5t-43.5 -6q-28 0 -52.5 12t-42.5 32t-28 45t-10 51q0 63 39 102t128 65v81q-36 54 -80 94.5t-92 69t-97 46.5t-93.5 28.5t-82 14.5t-62.5 4
q0 -1 -12 16l-26 37q-17 24 -37 55q115 130 257.5 200.5t324.5 80.5v63h-640v81h1546v-81zM755 318q30 3 44.5 3.5t25.5 0.5q78 0 148 -20.5t126.5 -50t97.5 -63t60 -59.5v972h-502v-63q44 0 92 -8t94 -24t88 -41t73.5 -59t50 -78t18.5 -98q0 -29 -10.5 -56t-29 -48t-43 -34
t-52.5 -13q-19 0 -41 7t-40.5 21.5t-30.5 36.5t-12 52q0 16 6 33.5t16.5 32t25.5 24t33 9.5q9 0 19.5 -3t21 -7t20 -9.5l16.5 -9.5q-23 62 -61.5 96t-82.5 49.5t-89.5 18.5t-81.5 3v-615zM187 746q30 0 86 -11.5t120.5 -36.5t130 -64.5t116.5 -95.5v395q-49 -1 -108.5 -12
t-120 -33.5t-119 -57.5t-105.5 -84z" />
    <glyph glyph-name="bn_k_la" horiz-adv-x="1347" 
d="M746 449q-37 53 -82 90.5t-93 62.5t-96.5 39.5t-92.5 22t-81 9.5t-62 2l-37 54l-35 55q114 129 255.5 199t323.5 81v37h-746v81h1367v-81h-507v-37q66 0 139.5 -18t135 -55.5t102 -96t40.5 -139.5q0 -29 -10.5 -56t-29 -48t-43 -34t-52.5 -13q-20 0 -41 7t-39 21.5
t-29.5 36.5t-11.5 52q0 16 5 33.5t15 32t24.5 24t33.5 9.5t40 -7t32 -15q-18 58 -55 90t-82 47.5t-91.5 18.5t-82.5 3v-912l-114 -45v248q-5 19 -16 37.5t-26.5 33t-35.5 23.5t-44 9q-16 0 -33.5 -7t-32 -22t-24.5 -37.5t-12 -52.5h-87q-19 65 -54.5 92t-98.5 27
q-17 0 -38.5 -7.5t-41 -22t-32.5 -35.5t-13 -47q0 -41 17.5 -67t46.5 -43q17 35 41 57.5t62 22.5q20 0 38.5 -7.5t32 -20t21.5 -30t8 -37.5q0 -32 -17 -53.5t-40.5 -35t-49 -19.5t-42.5 -6q-41 0 -79.5 16.5t-68 46.5t-47 72t-17.5 93q0 54 19.5 97t51 73t72 46t82.5 16
q63 0 107 -29t65 -87l20 2q3 22 16 43t31.5 36.5t41 25t44.5 9.5q12 0 27.5 -3t33 -13t36 -27.5t36.5 -46.5v79zM299 766q31 0 83.5 -9t115 -30.5t127.5 -57t121 -88.5v376q-48 0 -106.5 -9t-118.5 -31t-117.5 -59t-104.5 -92z" />
    <glyph glyph-name="bn_k_ssa" horiz-adv-x="1604" 
d="M1002 0v361q-21 47 -60.5 92t-90 80.5t-107.5 57.5t-112 22q-21 0 -51.5 -8.5t-64.5 -25.5q17 -8 33 -18.5t28 -24.5t19.5 -32t7.5 -42q0 -20 -10.5 -39.5t-28.5 -35.5t-43.5 -26t-55.5 -10t-57 13t-47.5 34t-32 48.5t-11.5 56.5q0 68 48.5 121.5t147.5 76.5
q-7 55 -26.5 91.5t-45.5 58.5t-56 31.5t-57 9.5q-16 0 -28 -1.5t-23.5 -4.5t-23 -9t-26.5 -15q18 -8 34 -18.5t28.5 -24.5t20 -32.5t7.5 -42.5q0 -19 -10 -38.5t-28 -36t-43.5 -27t-56.5 -10.5q-30 0 -57 13t-46.5 34.5t-31 49.5t-11.5 58q0 57 33.5 105t101.5 75
q0 22 -6.5 44t-18 40.5t-26 31.5t-30.5 18h-88v81h1627v-81h-509v-198q99 0 177 -15.5t132 -49t82 -85.5t28 -125q0 -39 -12 -70t-32 -52.5t-47.5 -33.5t-57.5 -12t-55 9t-43 25t-28.5 39t-10.5 52q0 24 9.5 45.5t26.5 38.5t39.5 28.5t49.5 16.5q-20 27 -44 42.5t-55.5 22.5
t-70.5 8.5t-88 1.5v-744zM309 991q53 0 104 -17.5t93 -52.5t71 -87.5t38 -123.5q40 -3 90.5 -13t103.5 -32.5t103.5 -60.5t89.5 -97v282q-83 0 -148.5 25.5t-110.5 68.5t-68.5 99.5t-23.5 118.5h-460q21 -14 35 -28.5t22.5 -29.5t13 -29t6.5 -27q17 3 25 3.5t16 0.5z
M1002 1101h-232q0 -54 17 -91.5t47.5 -61.5t73.5 -34.5t94 -10.5v198z" />
    <glyph glyph-name="bn_k_ss_nna" horiz-adv-x="1604" 
d="M1002 0q-2 53 -18 97.5t-40 76.5t-52 49.5t-52 17.5q-27 0 -48.5 -12.5t-39.5 -26.5q16 -2 34 -8t33 -17t25 -27.5t10 -39.5q0 -18 -10.5 -37.5t-29 -35.5t-43.5 -26.5t-55 -10.5t-57 13t-47 34t-32 48t-12 56q0 42 17 78.5t48 63t74.5 41.5t96.5 15q25 0 53.5 -7.5
t55.5 -23t50.5 -40.5t38.5 -59v142q-21 47 -60.5 92t-90 80.5t-107.5 57.5t-112 22q-21 0 -51.5 -8.5t-64.5 -25.5q17 -8 33 -18.5t28 -24.5t19.5 -32t7.5 -42q0 -20 -10.5 -39.5t-28.5 -35.5t-43.5 -26t-55.5 -10t-57 13t-47.5 34t-32 48.5t-11.5 56.5q0 68 48.5 121.5
t147.5 76.5q-7 55 -26.5 91.5t-45.5 58.5t-56 31.5t-57 9.5q-32 0 -52.5 -6t-48.5 -24q18 -8 34 -18.5t28.5 -24.5t20 -32.5t7.5 -42.5q0 -19 -10 -38.5t-28 -36t-43.5 -27t-56.5 -10.5q-30 0 -57 13t-46.5 34.5t-31 49.5t-11.5 58q0 57 33.5 105t101.5 75q0 22 -6.5 44
t-18 40.5t-26 31.5t-30.5 18h-88v81h1627v-81h-509v-198q99 0 177 -15.5t132 -49t82 -85.5t28 -125q0 -39 -12 -70t-32 -52.5t-47.5 -33.5t-57.5 -12t-55 9t-43 25t-28.5 39t-10.5 52q0 24 9.5 45.5t26.5 38.5t39.5 28.5t49.5 16.5q-20 27 -44 42.5t-55.5 22.5t-70.5 8.5
t-88 1.5v-744zM309 991q53 0 104 -17.5t93 -52.5t71 -87.5t38 -123.5q40 -3 87.5 -13.5t98 -34t102 -61t99.5 -94.5v282q-83 0 -148.5 25.5t-110.5 68.5t-68.5 99.5t-23.5 118.5h-460q21 -14 35 -28.5t22.5 -29.5t13 -29t6.5 -27q17 3 25 3.5t16 0.5zM1002 1101h-232
q0 -54 17 -91.5t47.5 -61.5t73.5 -34.5t94 -10.5v198z" />
    <glyph glyph-name="bn_k_ss_ma" horiz-adv-x="1804" 
d="M1832 1182v-81h-174v-1056l-115 -45q-62 76 -119.5 126t-115 80t-117 42t-125.5 12q-31 0 -60 -8.5t-53 -23.5q35 -17 61.5 -43.5t26.5 -74.5q0 -18 -10.5 -37.5t-29 -35.5t-43.5 -26.5t-55 -10.5t-56.5 13t-46.5 34t-31.5 48t-11.5 56q0 65 40.5 116.5t128.5 74.5v28
q-18 44 -47 83t-67.5 68.5t-84 46.5t-95.5 17q-17 0 -29 -1.5t-23.5 -4.5t-24 -8t-28.5 -12q18 -9 34 -19.5t28.5 -25t20 -33t7.5 -42.5q0 -20 -10 -39.5t-28 -35t-43.5 -25.5t-55.5 -10q-29 0 -56 12.5t-47 33.5t-32 48.5t-12 56.5q0 67 49 121t147 77q-8 54 -25.5 96
t-42.5 70.5t-55 43.5t-62 15q-16 0 -28 -1.5t-23 -4.5t-23 -8.5l-29 -13.5q18 -9 35 -19.5t29.5 -25t20 -33t7.5 -42.5q0 -19 -10.5 -38.5t-28.5 -35.5t-43 -26t-55 -10q-31 0 -57.5 12.5t-46 34t-31 49t-11.5 57.5q0 58 34 105.5t103 76.5q-5 27 -16.5 47.5t-27 35.5
t-32.5 24.5t-32 13.5h-79v81h1832zM1543 1101h-502v-198q100 0 177.5 -15.5t130.5 -49t81 -85.5t28 -125q0 -39 -11.5 -70t-31.5 -52.5t-46.5 -33.5t-57.5 -12q-30 0 -55 9t-43 25t-28.5 39t-10.5 52q0 24 9.5 45.5t26.5 38.5t40 28.5t50 16.5q-20 27 -44.5 42.5t-56 22.5
t-70.5 8.5t-88 1.5v-430q104 0 188.5 -26.5t148 -64t105.5 -77.5t60 -67v977zM324 1002q61 0 113 -23t91.5 -64t65 -99.5t34.5 -128.5q81 -5 158 -48t140 -130v280q-84 0 -149.5 25.5t-110.5 68.5t-68.5 99.5t-23.5 118.5h-372q36 -25 55 -50.5t27 -52.5q17 3 25.5 3.5
t14.5 0.5zM926 1101h-232q0 -54 17 -91.5t47.5 -61.5t73.5 -34.5t94 -10.5v198z" />
    <glyph glyph-name="bn_k_sa" horiz-adv-x="1535" 
d="M359 241q55 0 104 15t91 32l43 17.5t43 16.5v84q-36 54 -80 94.5t-92 69t-97 47t-93.5 29t-82 14.5t-62.5 4l-37.5 54l-37.5 54q115 129 257.5 199t324.5 81v49h-640v81h1557v-81h-174v-1056l-115 -45q-79 78 -156.5 123.5t-144.5 69t-119.5 29.5t-81.5 6
q-60 0 -110.5 -19t-101.5 -42q-51 -24 -106 -44t-115 -20q-29 0 -63.5 9t-68 22.5t-64 30t-51.5 31.5l38.5 54.5t37.5 56.5q21 -15 46 -27t51.5 -20.5t52 -13.5t47.5 -5zM755 342q79 0 150 -17.5t134.5 -46.5t120.5 -67.5t108 -81.5v972h-513v-49q44 0 92 -8t94 -24t88 -41
t73.5 -59.5t50 -78t18.5 -97.5q0 -29 -10.5 -56t-29 -48t-43.5 -34t-54 -13q-18 0 -39.5 7t-40 21.5t-30.5 36.5t-12 52q0 16 6 33.5t16.5 32t25.5 24t33 9.5q17 0 40 -9.5t37 -17.5q-23 59 -61.5 92t-82.5 49t-89.5 19.5t-81.5 3.5v-604zM207 755q31 0 83.5 -11t113 -35
t123 -62.5t113.5 -94.5v394q-55 -3 -112 -14t-113 -33t-109 -57t-99 -87z" />
    <glyph glyph-name="bn_g_ga" horiz-adv-x="976" 
d="M56 525q0 63 25 114.5t66.5 88.5t95 58.5t111.5 26.5q-14 16 -34.5 23t-46.5 7q-25 0 -52 -5.5t-53 -13t-49.5 -17l-41.5 -16.5q-21 54 -21 103q0 74 29.5 128.5t76.5 90t105.5 52.5t117.5 17q91 0 172 -57t146 -166v223h286v-81h-172v-1056l-114 -45v404
q-15 50 -43.5 103t-70 96.5t-96 71.5t-121.5 28q-24 0 -56 -2.5t-64.5 -18.5t-60 -49.5t-40.5 -96.5l34.5 10.5t37 9.5t35.5 6.5t30 2.5q44 0 84 -9.5t70.5 -30.5t48.5 -54t18 -79t-17 -81t-44 -61.5t-61 -45t-69 -30.5t-67 -18.5t-55 -9.5l-67 110q39 0 84.5 8.5t84.5 24
t66 39t30 53.5q-3 27 -14.5 44.5t-30.5 27.5t-44 14t-55 4q-51 0 -91.5 -14t-81.5 -33q-21 54 -21 101zM703 772q-15 50 -43.5 102.5t-70 96t-96 71.5t-121.5 28q-24 0 -56 -2.5t-64.5 -18.5t-60 -49.5t-40.5 -96.5l34.5 10.5t37 10t35.5 7t30 2.5q40 0 76.5 -8t65.5 -25
t49.5 -44t27.5 -65q54 -26 106 -75.5t90 -122.5v179z" />
    <glyph glyph-name="bn_g_da" horiz-adv-x="1322" 
d="M410 658q0 26 -12 44t-32.5 29t-47 16t-54.5 5q-50 0 -104 -12.5t-97 -32.5q-10 28 -16 55.5t-6 50.5q0 75 34 142t89 117.5t123 80t137 29.5q43 0 85 -11.5t80 -35.5t70.5 -60.5t56.5 -85.5v193h625v-81h-509v-529q27 39 65 74.5t86 65t107.5 52t130.5 34.5
q20 -31 40 -56.5t39 -54.5q-48 -61 -77.5 -136.5t-29.5 -163.5q0 -79 27.5 -164t90.5 -167q-1 0 -16 -9l-33 -19.5l-32 -19t-13 -8.5q-62 81 -98 179.5t-36 205.5q0 66 17 136.5t56 142.5q-67 -17 -121 -46.5t-94.5 -65.5t-67.5 -74t-39 -72l-118 -47v413q-14 50 -39 102.5
t-61 95.5t-83 70.5t-105 27.5q-36 0 -78.5 -16t-80.5 -46t-66 -73.5t-34 -98.5q36 11 67.5 17.5t56.5 6.5q44 0 85.5 -12t74 -35.5t52.5 -59t20 -82.5t-17 -84t-44 -65t-61 -49t-69 -35t-67 -22t-55 -12l-70 110q40 1 86.5 13t87 32.5t67.5 46.5t27 54z" />
    <glyph glyph-name="bn_g_dha" horiz-adv-x="1298" 
d="M1142 692q-101 -21 -181.5 -41.5t-154.5 -42.5v-563l-114 -45q-51 67 -119 110t-144.5 69t-156.5 39t-155 19l-72 105q166 108 326 189t321 138v103q-15 50 -42 102.5t-68 95.5t-97 70.5t-129 27.5q-18 0 -47.5 -2.5t-61.5 -17t-61.5 -45.5t-48.5 -89l36.5 10.5t38.5 10
t36 7t31 2.5q40 0 79 -9.5t70 -30t50.5 -53t19.5 -79.5q0 -42 -16.5 -75.5t-43.5 -59.5t-61 -45.5t-68.5 -33t-66.5 -21.5t-55 -12l-70 111q40 0 84.5 9.5t83.5 26.5t66 42t32 56q-3 28 -15.5 44t-31 23.5t-43.5 9.5t-54 2q-49 0 -90.5 -14t-81.5 -33q-20 55 -20 103
q0 73 27.5 125.5t73.5 86.5t104.5 49.5t121.5 15.5q91 0 172 -57t146 -166v223h624v-81h-510v-394q198 58 390 91q19 -31 40 -56.5t39 -54.5q-25 -30 -47.5 -64.5t-39 -72.5t-26.5 -79t-10 -84q0 -79 26.5 -164t89.5 -167l-47 -28q-18 -11 -32.5 -19t-14.5 -7
q-63 81 -98 178.5t-35 204.5q0 33 9.5 73.5t24 81.5t32.5 80.5t35 71.5zM692 570q-133 -51 -257 -114t-239 -136q60 -2 122 -9t124.5 -25.5t125 -51t124.5 -83.5v419z" />
    <glyph glyph-name="bn_g_dh_ba" horiz-adv-x="1302" 
d="M696 772q-14 50 -41 102.5t-68.5 95.5t-97.5 70.5t-128 27.5q-19 0 -52 -4.5t-67 -22t-61.5 -51t-34.5 -91.5q36 20 75 34.5t65 14.5q44 0 83 -9.5t68.5 -29.5t46.5 -52.5t17 -78.5q0 -45 -17.5 -78.5t-45.5 -58t-63 -40.5t-71 -26t-69 -15t-57 -8l-70 110q40 0 88 7.5
t89.5 22.5t69.5 37t28 51q0 26 -10 41.5t-28 23.5t-42.5 10.5t-54.5 2.5q-25 0 -49 -6t-46 -15.5t-42 -21l-38 -22.5q-11 27 -16 50.5t-5 50.5q0 74 29 128.5t75.5 90t105 52.5t116.5 17q91 0 172 -57t146 -166v223h624v-81h-509v-387q203 56 390 86q20 -31 40 -57.5
t38 -55.5q-25 -30 -47.5 -64.5t-39 -72.5t-26.5 -79t-10 -84q0 -79 27 -164t90 -167l-95 -54q-63 81 -98 178.5t-35 204.5q0 34 8.5 72.5t22 78t31 78t35.5 73.5q-88 -15 -169.5 -34.5l-161.5 -39.5v-719l-115 -54q-88 72 -184.5 118.5t-200.5 61.5l-27 88q87 57 210 101
q-51 19 -106 30t-106.5 17t-94 7.5t-67.5 2.5l-70 106q163 108 324 183t322 128v89zM228 349q70 0 144 -10.5t139 -26t114.5 -32.5t70.5 -30v329q-133 -43 -259 -104t-228 -126h19zM419 77q85 -24 151 -57t126 -81v218q-35 0 -74 -7t-77 -18t-71 -25.5t-55 -29.5z" />
    <glyph glyph-name="bn_g_la" horiz-adv-x="991" 
d="M718 248q-5 19 -16 37.5t-26.5 33t-35.5 23.5t-43 9q-16 0 -33.5 -7t-32.5 -22t-25.5 -37.5t-11.5 -52.5h-88q-19 65 -54 92t-100 27q-16 0 -37 -7.5t-39.5 -22t-31.5 -35.5t-13 -47q0 -41 15.5 -67t44.5 -43q20 35 43 57.5t61 22.5q42 0 70.5 -27.5t28.5 -67.5
q0 -32 -16.5 -53t-39.5 -34.5t-47.5 -19t-40.5 -5.5q-42 0 -81 16t-69 46t-48 71.5t-18 92.5q0 54 19.5 97t51 73t72 46t83.5 16q63 0 108.5 -30.5t74.5 -96.5q4 22 18 44.5t34 41t43.5 30t46.5 11.5q11 0 26.5 -4t33.5 -14t36.5 -27.5t36.5 -44.5v402q-14 50 -41 102.5
t-68.5 95.5t-97.5 70.5t-128 27.5q-19 0 -52.5 -4.5t-67.5 -21.5t-61 -49.5t-33 -89.5l36 10.5t37 10t34 7t28 2.5q44 0 84 -10t70.5 -31t48.5 -54t18 -79t-17 -81t-44 -61.5t-61 -44.5t-68.5 -30t-66 -18.5t-53.5 -9.5l-71 110q40 0 85.5 8.5t85 24t66.5 38.5t29 53
q-2 27 -14 44.5t-31 27.5t-44.5 14t-54.5 4q-50 0 -91.5 -14.5t-79.5 -32.5q-11 27 -16.5 52t-5.5 51q0 74 29.5 128.5t76.5 90t105.5 52.5t117.5 17q89 0 170 -57t146 -166v223h286v-81h-170v-1047l-116 -54v248z" />
    <glyph glyph-name="bn_g_na" horiz-adv-x="991" 
d="M718 772q-15 50 -42 102.5t-68 95.5t-97 70.5t-128 27.5q-19 0 -52.5 -4.5t-67.5 -21.5t-61 -49.5t-33 -89.5l36 10.5t37 10t34 7t28 2.5q44 0 84 -10t70.5 -31t48.5 -54t18 -79t-17 -81t-44 -61.5t-61 -44.5t-68.5 -30t-66 -18.5t-53.5 -9.5l-71 110q40 0 85.5 8.5
t85 24t66.5 38.5t29 53q-2 27 -14 44.5t-31 27.5t-44.5 14t-54.5 4q-51 0 -92 -14.5t-79 -32.5q-12 27 -17 52t-5 51q0 74 29.5 128.5t76.5 90t105.5 52.5t117.5 17q89 0 170 -57t146 -166v223h286v-81h-170v-1056l-116 -45v88q-12 66 -38 113.5t-60.5 78.5t-75 45.5
t-82.5 14.5q-9 0 -28.5 -1.5t-41.5 -9t-44 -25t-37 -48.5q33 0 59 -11t44 -29.5t27.5 -41.5t9.5 -47q0 -58 -39.5 -92.5t-100.5 -34.5q-30 0 -56.5 12t-46.5 34t-31.5 53.5t-11.5 69.5q0 78 28 132.5t70.5 88.5t93 49.5t94.5 15.5q49 0 92 -15t77 -37.5t59 -49.5t39 -52v471
z" />
    <glyph glyph-name="bn_g_ma" horiz-adv-x="1277" 
d="M712 772q-15 50 -42 102.5t-68 95.5t-97 70.5t-129 27.5q-18 0 -51.5 -4.5t-67 -21.5t-60 -49.5t-32.5 -89.5l34 10.5t36 10t35 7t29 2.5q44 0 84 -10t70.5 -31t48.5 -54t18 -79t-17 -81t-44 -61.5t-61 -44.5t-69 -30t-67 -18.5t-55 -9.5l-70 110q40 0 85.5 8.5t85.5 24
t67.5 38.5t30.5 53q-3 27 -15 44.5t-31.5 27.5t-45 14t-54.5 4q-50 0 -91.5 -14.5t-80.5 -32.5q-10 27 -15.5 52t-5.5 51q0 74 29.5 128.5t76 90t105 52.5t116.5 17q46 0 91 -13t86.5 -40.5t77.5 -69.5t63 -100v223h584v-81h-172v-1056l-114 -45q-15 51 -37.5 90.5t-47.5 67
t-50.5 43t-47.5 20.5q0 -75 -16.5 -118t-40 -65t-49 -28t-43.5 -6q-28 0 -52 12t-42 32t-28 45t-10 51q0 65 38 110.5t128 67.5v450zM827 320q31 -2 60.5 -13.5t53.5 -28.5t42 -36.5t27 -36.5v896h-183v-781z" />
    <glyph glyph-name="bn_gh_na" horiz-adv-x="1000" 
d="M0 1101v81h1014v-81h-171v-1056l-115 -45q-16 48 -52 92t-82 77t-98.5 52.5t-101.5 19.5q-12 0 -31 -1t-40 -4t-42.5 -8t-39.5 -13q13 -2 31 -10t34.5 -21t28 -31.5t11.5 -42.5q0 -18 -10.5 -37.5t-28.5 -35.5t-43 -26.5t-55 -10.5t-57 13t-47 34t-32 48t-12 56
q0 42 20.5 77.5t60.5 61t97 40t131 14.5q48 0 102.5 -14.5t104.5 -37.5t90.5 -52.5t60.5 -59.5v136q-42 43 -110 78.5t-146.5 61.5t-162 41.5t-156.5 18.5l-52 81l262 160q-65 1 -122 11.5t-99 31.5t-66 52.5t-24 73.5q0 18 5.5 39.5t18.5 44.5t34 46t52 45h-162zM309 1101
q-42 -21 -69 -43.5t-43.5 -44t-23 -42t-6.5 -38.5q0 -32 18 -50t47.5 -27t66 -11t73.5 -2q14 0 36 4t47 10.5t51.5 16t50.5 20.5q10 -30 16 -55t15 -52l-298 -188q40 -2 96.5 -13.5t117 -31t119.5 -46t105 -57.5v650h-419z" />
    <glyph glyph-name="bn_ng_ka" horiz-adv-x="1212" 
d="M1086 1101q26 -18 42 -49t16 -65q0 -28 -12 -56.5t-34.5 -51t-55 -36.5t-73.5 -14t-80 20t-76.5 56t-74 86t-71.5 110h-321q26 -15 46 -34.5t34 -39.5t23.5 -39.5t14.5 -34.5q73 -9 126.5 -41.5t89 -80.5t54 -108t21.5 -124q81 -9 156 -36t133 -71t92.5 -104t34.5 -134
q0 -29 -10.5 -56.5t-28.5 -48.5t-42.5 -33.5t-53.5 -12.5q-18 0 -39.5 7.5t-40 22t-30.5 36.5t-12 52q0 16 5.5 33.5t16 32t25.5 24t35 9.5q17 0 38.5 -7t33.5 -16q-18 56 -55.5 92.5t-82 57.5t-91 29t-82.5 8v-430l-115 -54q-56 60 -128.5 94t-145 51.5t-135 22.5t-98.5 6
q-22 29 -38.5 54.5l-35.5 53.5q37 46 100 97.5t141.5 97t166 80t173.5 45.5q-5 43 -21.5 87.5t-44 80.5t-67.5 58.5t-92 22.5q-53 0 -88 -8.5t-57 -24t-31 -37t-9 -46.5q0 -7 1.5 -17.5t7.5 -22t17 -23t30 -19.5l-20 -88q-31 2 -58 16.5t-47 38.5t-31.5 56t-11.5 68
q0 31 8.5 64.5t33 63t68.5 51.5t116 30q-6 23 -16 45t-25 41t-36 35t-50 27h-219v81h1230v-81h-144zM221 268q36 0 87 -6t108 -21.5t116 -41.5t110 -66v351q-57 -3 -114 -21t-111.5 -47t-104.5 -67t-91 -81zM778 1101q12 -28 33 -59t46.5 -57.5t54.5 -43.5t57 -17
q46 0 68 23.5t22 54.5q0 21 -10 46t-47 53h-224z" />
    <glyph glyph-name="bn_ng_k_ra" horiz-adv-x="1262" 
d="M651 56q-36 43 -80.5 73t-92.5 50t-97.5 31t-93.5 17t-81.5 7.5l-61.5 2.5l-75 107q37 47 98 94t137.5 87t165 68t181.5 37q-6 43 -22.5 82.5t-45 70.5t-67.5 49.5t-90 18.5q-53 0 -88 -8.5t-57 -24t-31 -37t-9 -46.5q0 -7 1.5 -17.5t7 -22t16.5 -23t31 -19.5l-20 -88
q-31 2 -58 16.5t-47 38.5t-31.5 56t-11.5 68q0 31 8.5 64.5t33.5 63t69 51.5t116 30q-7 23 -16.5 45t-24.5 41t-36 35t-51 27h-228v81h1279v-81h-185q26 -18 43 -49t17 -65q0 -28 -12 -56.5t-34.5 -51t-55.5 -36.5t-74 -14t-80 20t-76.5 56t-74 86t-72.5 110h-319
q24 -14 43.5 -32.5t33.5 -38.5t23.5 -39.5t14.5 -35.5q73 -8 127 -37t89.5 -73t54 -100t21.5 -119q85 -10 161 -42t133 -80.5t90 -112t33 -137.5q0 -29 -10.5 -56.5t-28.5 -48.5t-42.5 -33.5t-53.5 -12.5q-18 0 -39.5 7.5t-39.5 22t-30 36.5t-12 52q0 16 5.5 33.5t15.5 32
t25 24t34 9.5q17 0 39 -6t34 -15q-20 56 -57.5 96.5t-81.5 67t-90 39t-82 12.5v-542l-115 -45q-39 30 -64.5 47.5t-44.5 26.5t-34 11.5t-33 2.5q-26 0 -48.5 -8.5t-48.5 -21.5q-27 -14 -55.5 -25.5t-68.5 -11.5q-48 0 -93 14.5t-83.5 39.5t-67.5 59.5t-44 73.5l88 37
q21 -37 48 -61t54.5 -37.5t53.5 -18.5t44 -5q29 0 53.5 11t48.5 25l48 22.5t60 11.5q36 0 66 -13t54 -30t41 -35.5l26 -28.5v43zM237 327q31 0 80.5 -5.5t106.5 -20.5t116.5 -40.5t110.5 -64.5v318q-110 -7 -213.5 -49.5t-200.5 -137.5zM787 1101q12 -28 33 -59t46.5 -57.5
t54.5 -43.5t57 -17q45 0 67.5 23.5t22.5 54.5q0 21 -9.5 46t-46.5 53h-225z" />
    <glyph glyph-name="bn_ng_k_ssa" horiz-adv-x="2568" 
d="M1980 0v361q-21 47 -61 92t-90 80.5t-107 57.5t-112 22q-21 0 -51 -8.5t-65 -25.5q18 -8 34 -18.5t28 -24.5t19 -32t7 -42q0 -20 -10.5 -39.5t-29 -35.5t-44 -26t-54.5 -10q-30 0 -57 13t-46.5 34t-31 48.5t-11.5 56.5q0 68 47.5 121.5t146.5 76.5q-7 55 -27 91.5
t-46 58.5t-55 31.5t-55 9.5q-17 0 -29.5 -1.5t-24 -4.5t-23 -9t-26.5 -15q18 -8 34.5 -18.5t29 -24.5t20.5 -32.5t8 -42.5q0 -19 -10.5 -38.5t-29 -36t-44.5 -27t-56 -10.5q-37 0 -75 29t-67 74v-62q0 -101 -29 -185t-86.5 -144t-144.5 -93.5t-202 -33.5q-97 0 -178 45.5
t-144 119.5t-107.5 168t-68.5 191l99 48q10 -37 26 -85.5t39.5 -99.5t55.5 -100t74 -87.5t94.5 -62t116.5 -23.5q86 0 150 27t106 72t63 102.5t21 118.5q0 15 -0.5 30.5t-3.5 30.5q-39 -54 -78.5 -91t-77.5 -59.5t-72.5 -32t-64.5 -9.5q-38 0 -75 23t-66 60.5t-47 85.5
t-18 98q0 18 0.5 35.5t3.5 37.5q-35 18 -70 38.5l-65 38.5l-51.5 32t-28.5 20l52 112h-239v81h2607v-81h-512v-198q100 0 178.5 -15.5t132 -49t81.5 -85.5t28 -125q0 -39 -12 -70t-32.5 -52.5t-47 -33.5t-56.5 -12t-55.5 9t-44.5 25t-29.5 39t-10.5 52q0 24 9.5 45.5
t27 38.5t40.5 28.5t50 16.5q-20 27 -44.5 42.5t-56 22.5t-70.5 8.5t-88 1.5v-744zM1286 991q54 0 105 -17.5t93 -52.5t71 -87.5t38 -123.5q39 -3 86.5 -13.5t98 -34t102.5 -61t100 -94.5v282q-84 0 -149 25.5t-110 68.5t-68.5 99.5t-23.5 118.5h-460q42 -28 57 -58t20 -56
q17 3 25 3.5t15 0.5zM626 645q48 0 109 51.5t116 159.5l159 -67q5 57 39.5 104.5t96.5 73.5q0 22 -8.5 44t-21 40.5t-28.5 31.5t-31 18h-259q5 -18 9 -35t4 -25q0 -53 -17 -96t-47 -74t-71 -48t-88 -17q-28 0 -70 9v-24q0 -35 9.5 -62t25 -46t34.5 -28.5t39 -9.5zM1980 1101
h-232q0 -54 17 -91.5t47.5 -61.5t73.5 -34.5t94 -10.5v198zM602 903q24 0 42.5 12t31 31.5t19 45t6.5 53.5q0 18 -6 29t-15 17t-18.5 8t-16.5 2q-21 0 -39 -15.5t-32.5 -41t-25 -58.5t-17.5 -69q36 -14 71 -14zM421 971q12 38 25.5 68t35.5 62h-241q13 -8 31 -22.5l41 -32.5
t50.5 -37.5t57.5 -37.5z" />
    <glyph glyph-name="bn_ng_k_ss_ra" horiz-adv-x="2568" 
d="M1980 361q-21 47 -61 92t-90 80.5t-107 57.5t-112 22q-21 0 -51 -8.5t-65 -25.5q18 -8 34 -18.5t28 -24.5t19 -32t7 -42q0 -20 -10.5 -39.5t-29 -35.5t-44 -26t-54.5 -10q-30 0 -57 13t-46.5 34t-31 48.5t-11.5 56.5q0 68 47.5 121.5t146.5 76.5q-7 55 -27 91.5t-46 58.5
t-55 31.5t-55 9.5q-34 0 -55.5 -7t-47.5 -23q18 -8 34.5 -18.5t29 -24.5t20.5 -32.5t8 -42.5q0 -19 -10.5 -38.5t-29 -36t-44.5 -27t-56 -10.5q-37 0 -75 29t-67 74v-62q0 -101 -29 -185t-86.5 -144t-144.5 -93.5t-202 -33.5q-97 0 -178 45.5t-144 119.5t-107.5 168
t-68.5 191l99 48q10 -37 26 -85.5t39.5 -99.5t55.5 -100t74 -87.5t94.5 -62t116.5 -23.5q82 0 141.5 22.5t98.5 61.5t57.5 91.5t18.5 112.5q0 13 -1 25t-6 39q-42 -49 -77.5 -80.5t-67.5 -50t-61.5 -25.5t-59.5 -7q-38 0 -75 23t-66 60.5t-47 85.5t-18 98q0 18 0.5 35.5
t3.5 37.5q-35 18 -70 38.5l-65 38.5l-51.5 32t-28.5 20l52 112h-239v81h2607v-81h-512v-198q100 0 178.5 -15.5t132 -49t81.5 -85.5t28 -125q0 -39 -12 -70t-32.5 -52.5t-47 -33.5t-56.5 -12t-55.5 9t-44.5 25t-29.5 39t-10.5 52q0 24 9.5 45.5t27 38.5t40.5 28.5t50 16.5
q-20 27 -44.5 42.5t-56 22.5t-70.5 8.5t-88 1.5v-817q-21 -7 -41 -15l-37.5 -15t-36.5 -15q-40 30 -68 47.5t-49.5 26.5t-40 11.5t-38.5 2.5q-30 0 -55.5 -8.5t-52.5 -19.5q-34 -14 -70.5 -26.5t-77.5 -12.5q-51 0 -100 14.5t-90.5 39.5t-72.5 59.5t-46 73.5l88 37
q20 -45 48.5 -69.5t58.5 -36.5t58 -14t46 -2q34 0 65.5 11t62.5 24t62 24t65 11t63 -9t54.5 -22.5t47.5 -29.5t42 -29v331zM1286 991q54 0 105 -17.5t93 -52.5t71 -87.5t38 -123.5q39 -3 86.5 -13.5t98 -34t102.5 -61t100 -94.5v282q-84 0 -149 25.5t-110 68.5t-68.5 99.5
t-23.5 118.5h-455q21 -14 34 -28.5t20.5 -29.5t11 -29l6.5 -27q17 3 25 3.5t15 0.5zM626 645q48 0 109 51.5t116 159.5l159 -67q5 57 39.5 104.5t96.5 73.5q0 22 -9 44t-22.5 40.5t-29.5 31.5t-31 18h-256q5 -18 9 -35t4 -25q0 -53 -17 -96t-47 -74t-71 -48t-88 -17
q-28 0 -70 9v-24q0 -35 9.5 -62t25 -46t34.5 -28.5t39 -9.5zM1980 1101h-232q0 -54 17 -91.5t47.5 -61.5t73.5 -34.5t94 -10.5v198zM602 903q24 0 42.5 12t31 31.5t19 45t6.5 53.5q0 29 -16.5 41.5t-31.5 14.5q-24 0 -43.5 -16t-34.5 -42.5t-26 -60.5t-18 -70q17 -5 35.5 -7
t35.5 -2zM421 971q12 38 25.5 68t35.5 62h-241q29 -24 60 -47l57.5 -42.5t62.5 -40.5z" />
    <glyph glyph-name="bn_ng_kha" horiz-adv-x="1104" 
d="M789 856q-1 -62 -20 -114t-50 -93.5t-71.5 -72t-84.5 -49.5q72 -29 110.5 -79.5t38.5 -116.5q0 -44 -16.5 -75t-41 -53.5t-52.5 -37t-52 -23.5q57 -7 101.5 -17.5t78.5 -23t59 -26.5t45 -28v1135h286v-81h-172v-1129l-114 -45q-69 48 -139.5 73.5t-141 37.5t-141 14
t-137.5 2l-45 94q25 0 63 1.5t80 7t84 16.5t75.5 30.5t54.5 48.5t21 70q0 26 -8.5 52.5t-31.5 55.5q-20 -62 -47 -101t-57.5 -60.5t-61 -29t-56.5 -7.5q-44 0 -80.5 9.5t-63 30.5t-41.5 53.5t-15 78.5q0 18 8.5 38.5t25 38t40 29.5t53.5 12q13 0 28.5 -2.5t28 -10.5t21 -23
t8.5 -39q0 -23 -10.5 -39t-26 -26t-34 -15.5t-34.5 -7.5q14 -28 40 -40t46 -12q39 0 65 18t42 45.5t23 61t7 64.5v20q-77 0 -143 28t-119.5 81t-93.5 129.5t-63 173.5l88 37q13 -48 33.5 -108t59 -113.5t100 -90t155.5 -36.5q45 0 91.5 34t87.5 88q-49 -20 -85.5 -29
t-60.5 -9q-52 0 -92 19t-67.5 49t-42 65.5t-14.5 68.5v28q-35 18 -69 38l-63 38.5l-50 32.5t-30 19l56 95l56 -39l57 -37.5t65 -39.5q13 43 37.5 71t53.5 44.5t58 22.5t51 6q48 0 84 -11.5t60 -31t36 -45t12 -53.5q0 -52 -25 -84.5t-60.5 -50.5t-73.5 -24.5t-65 -6.5
q-13 0 -32.5 7.5t-38.5 18.5v-29q0 -11 9.5 -22.5t23.5 -21.5t30 -16t29 -6q60 0 103.5 25.5t77.5 69.5zM518 971q20 0 38 3t31 11.5t20.5 22.5t7.5 37q0 18 -8.5 29t-19.5 17t-23 8t-18 2q-18 0 -34.5 -4t-30.5 -16.5t-25 -36t-19 -62.5q5 0 16.5 -2t19.5 -2q11 -3 23 -5
t22 -2z" />
    <glyph glyph-name="bn_ng_ga" horiz-adv-x="1156" 
d="M322 944q59 0 114 -30t98.5 -78t72 -109.5t35.5 -124.5q38 43 79 84.5t85 78t91.5 66.5t98.5 50l96 -88q-17 -26 -36 -76.5t-34.5 -107.5t-26 -111.5t-10.5 -89.5q0 -37 2 -72t9 -75.5t20.5 -91t35.5 -119.5l-93 -48q-49 134 -68 233.5t-19 166.5q0 23 5.5 60.5t16.5 82
t27 93.5t36 95q-45 -23 -82 -53t-70 -64.5t-63 -71.5l-59 -75l-83 -104.5t-87 -92t-94.5 -65t-105.5 -24.5q-24 0 -52.5 5.5t-58.5 27.5t-61 65.5t-60 120.5l102 41q17 -52 35 -82t35 -45t32.5 -19t27.5 -4q20 0 45 13.5t50.5 35t51 48t47.5 52.5t38.5 48.5t24.5 36.5
q0 72 -23 130t-58.5 99.5t-79 64t-85.5 22.5q-72 0 -114.5 -27t-42.5 -72q0 -36 19 -51t48 -15q21 0 41 9t36 23l27 -72q-31 -35 -62.5 -50.5t-63.5 -15.5q-29 0 -55.5 13t-47 36t-32.5 54.5t-12 68.5q0 52 31.5 98.5t92.5 77.5q-8 23 -18.5 49.5t-27.5 51.5t-41.5 46.5
t-58.5 33.5h-43v81h1171v-81h-320q39 -26 55 -55t16 -59q0 -28 -12.5 -54t-35.5 -46t-56 -32t-74 -12t-81 20t-79.5 55t-77.5 82t-74 101h-260q22 -13 42.5 -31.5t37.5 -39.5t29 -43.5t18 -42.5h23zM563 1101q15 -27 35 -56t44 -53t51 -39.5t57 -15.5q34 0 60 15t26 46
q0 11 -6.5 25.5t-18 29.5t-27 27.5t-34.5 20.5h-187z" />
    <glyph glyph-name="bn_ng_gha" horiz-adv-x="1915" 
d="M998 784q6 -54 6 -111q0 -101 -28.5 -185t-86 -144t-143.5 -93.5t-200 -33.5q-98 0 -180 45.5t-145.5 119.5t-107.5 168t-68 191l99 48q10 -37 26 -85.5t39.5 -99.5t56 -100t74.5 -87.5t94.5 -62t117.5 -23.5q81 0 140 22.5t97.5 61.5t57 91.5t18.5 112.5q0 13 -1 25
t-6 39q-41 -49 -76.5 -80.5t-67.5 -50t-61.5 -25.5t-59.5 -7q-54 0 -93 31t-64 76.5t-37 99t-12 98.5v18.5t2 16.5q-35 18 -69.5 39.5l-63.5 41l-50.5 35t-29.5 22.5l47 103h-223v81h1942v-81h-171v-1056l-115 -45q-49 81 -96 150.5t-107.5 124t-142.5 93t-201 56.5l-48 77
l233 166q-65 2 -117.5 22.5t-89 54.5t-56 77.5t-19.5 92.5q0 47 18.5 94.5t57.5 92.5h-299q5 -18 9 -35t4 -25q0 -53 -17.5 -96t-48 -74t-71.5 -48t-89 -17q-13 0 -31 2t-38 7q0 -44 10 -76t25.5 -53t34.5 -31t38 -10q24 0 52 14t57.5 41t59 66t56.5 90zM1520 680l-243 -179
q56 -15 110 -45.5t103 -70.5t91.5 -87.5t74.5 -97.5v901h-424q-59 -42 -85.5 -89.5t-26.5 -91.5q0 -32 13.5 -61t39 -51t63.5 -34.5t86 -12.5q35 0 76.5 13t84.5 35zM591 903q24 0 43 12t32 31.5t19.5 45t6.5 53.5q0 29 -16.5 41.5t-33.5 14.5h-14q-20 -2 -37 -19
t-30.5 -43.5t-23.5 -59.5t-17 -67q17 -5 35.5 -7t35.5 -2zM413 971q2 13 8 31.5t14 37t17.5 35t18.5 26.5h-245l30.5 -22.5l44 -32.5l53.5 -37.5t59 -37.5z" />
    <glyph glyph-name="bn_ng_gh_ra" horiz-adv-x="1915" 
d="M998 784q6 -54 6 -111q0 -101 -28.5 -185t-86 -144t-143.5 -93.5t-200 -33.5q-98 0 -180 45.5t-145.5 119.5t-107.5 168t-68 191l99 48q10 -37 26 -85.5t39.5 -99.5t56 -100t74.5 -87.5t94.5 -62t117.5 -23.5q81 0 140 22.5t97.5 61.5t57 91.5t18.5 112.5q0 13 -1 25
t-6 39q-41 -49 -76.5 -80.5t-67.5 -50t-61.5 -25.5t-59.5 -7q-38 0 -75 23t-66 60.5t-47 85.5t-18 98v35.5t2 37.5q-35 18 -70.5 39.5l-66.5 41l-54 35t-31 20.5l54 105h-221v81h1942v-81h-171v-1129q-22 -7 -43 -15l-37.5 -15t-34.5 -15q-36 31 -61.5 49.5t-45 27.5
t-37.5 11.5t-39 2.5q-25 0 -52 -9.5t-49 -19.5l-31.5 -13.5t-36.5 -13.5t-38 -10t-36 -4q-47 0 -89.5 14t-77.5 39t-61 59.5t-41 74.5l88 37q21 -42 45 -66t48.5 -36.5t49.5 -16t47 -3.5q30 0 57.5 9.5t54 21.5t54 21.5t59.5 9.5q48 0 93 -19t99 -48q-34 60 -91 121.5
t-131 114t-162.5 91t-185.5 52.5l-56 88l264 155q-63 2 -112 23.5t-82 55t-50.5 77t-17.5 89.5q0 50 19.5 98.5t61.5 90.5h-324q13 -32 13 -60q0 -53 -17.5 -96t-48 -74t-71.5 -48t-89 -17q-13 0 -31 2t-38 7v-24q0 -35 10 -62t25.5 -46t34.5 -28.5t38 -9.5q24 0 52 14
t57.5 41t59 66t56.5 90zM1520 680l-292 -182q68 -13 137 -45.5t127.5 -73.5t102 -83.5t61.5 -74.5v880h-408q-53 -33 -79.5 -81.5t-26.5 -97.5q0 -32 11 -61t33.5 -51t56.5 -35.5t79 -13.5q35 0 76.5 13t84.5 35zM591 903q24 0 43 12t32 31.5t19.5 45t6.5 53.5
q0 29 -16.5 41.5t-33.5 14.5h-14q-20 -2 -37 -19t-30.5 -43.5t-23.5 -59.5t-17 -67q20 -5 37 -7t34 -2zM410 969q8 39 24 73t37 59h-248q12 -8 31.5 -23l44 -33.5t53 -38t58.5 -37.5z" />
    <glyph glyph-name="bn_ng_ma" horiz-adv-x="1158" 
d="M0 1182h1174v-81h-172v-1056l-114 -45q-32 59 -72 95.5t-80 57t-76 29.5t-58 12q-5 0 -18 1t-16 1q0 -62 -16.5 -100t-40 -58.5t-49 -27t-43.5 -6.5q-28 0 -52.5 12t-42.5 32t-28 45t-10 51q0 64 38.5 110t128.5 68v65q-71 6 -133 39.5t-112.5 89t-88.5 131t-61 166.5
l88 36q13 -47 36 -106.5t61.5 -113t95 -90t136.5 -36.5q51 0 101.5 37.5t92.5 97.5q-48 -19 -91 -30t-82 -11q-56 0 -99 28.5t-72 69t-44 85t-15 76.5v27l-69 39l-63.5 38t-50.5 32t-29 20l54 89h-108v81zM789 741q-2 -64 -21 -117.5t-49.5 -95.5t-69.5 -72t-81 -48v-88
q30 -2 66 -7.5t76 -19t85 -35.5t93 -56v899h-262q26 -26 39 -54t13 -54q0 -40 -17.5 -70t-46 -50.5t-64 -30.5t-70.5 -10q-51 0 -95 22v-11q0 -24 9 -47.5t24.5 -42t35.5 -30t42 -11.5q40 0 70 7.5t53 20t41.5 28.5t35.5 34zM568 998q0 18 -8 29.5t-19 18t-22.5 9t-17.5 2.5
q-19 0 -35.5 -4t-30 -17t-24.5 -36.5t-19 -62.5q19 -7 43 -11t47 -4q17 0 32.5 3.5t27.5 12t19 23t7 37.5zM288 989q7 39 27.5 64.5t47.5 47.5h-251l84.5 -56.5t91.5 -55.5z" />
    <glyph glyph-name="bn_c_ca" horiz-adv-x="1638" 
d="M690 606q0 20 -12.5 36t-32 29t-44.5 22.5t-49 16.5t-45 12.5t-34 9.5q-33 10 -68.5 22t-68 26t-59.5 30.5t-43 36.5v-531q45 7 96 25.5t101.5 43t97.5 54t82.5 59t57 57.5t21.5 51zM234 1101v-85q0 -35 21.5 -61.5t58 -47t84 -37t98.5 -32.5q57 -18 113 -38t100.5 -46
t72 -61t27.5 -83q0 -51 -31.5 -100t-81.5 -93.5t-112 -83t-124.5 -68.5t-118.5 -51t-93 -29l-128 54v862h-120v81h1733v-81h-740v-144q0 -36 23.5 -66t62 -55t86.5 -46.5l97 -41.5l108.5 -46.5t98.5 -55t71.5 -67.5t27.5 -83q0 -52 -31.5 -106.5t-81.5 -107t-112.5 -100
t-125 -85t-118 -63.5t-92.5 -34l-128 54v1047h-645zM1453 494q0 31 -31 55.5t-78.5 45.5t-104.5 40t-108 39t-89 42t-49 50v-654q41 15 91 43t101 63t99 74t85.5 76.5t60.5 70t23 55.5z" />
    <glyph glyph-name="bn_c_cha" horiz-adv-x="1757" 
d="M234 1016q0 -35 21.5 -61.5t57.5 -46.5t83 -36.5t98 -32.5q57 -18 113.5 -38t101.5 -46.5t72.5 -61.5t27.5 -83q0 -51 -31.5 -100t-81.5 -93.5t-112 -83t-124.5 -68.5t-118.5 -51t-93 -29l-128 54v862h-120v81h1782v-81h-813v-144q7 -23 27 -39.5t47 -29.5t60 -22.5
t68 -17.5q32 -8 64.5 -19t64.5 -25q41 16 84 26t89 10q40 0 74.5 -10t59.5 -29.5t39 -48.5t14 -67q0 -63 -23 -110t-70.5 -89.5t-119.5 -85l-170 -96.5q69 -7 129.5 -24.5t114 -45t102 -64t94.5 -80.5q-16 -19 -32 -41.5t-32 -41.5q-103 112 -217 163t-233 51q-37 0 -75 -9
t-67 -23q-12 -5 -25 -13.5t-24 -16.5q-16 28 -32 49t-32 46q66 38 122 66.5l108 55.5l154.5 83.5t116 72t72.5 68t25 69.5q0 18 -7 30t-18.5 19.5t-25.5 11t-29 3.5q-28 0 -55 -6t-53 -15q-14 -41 -56 -82t-96 -74.5t-112.5 -55.5t-106.5 -25l-49 18q-20 8 -43.5 15.5
t-40.5 13.5v579h-620v-85zM969 591q40 0 83 11t78.5 28.5t58.5 39t23 42.5q0 12 -9.5 20.5t-25 14.5t-35.5 10.5t-41 8.5q-39 10 -74.5 25t-57.5 47v-247zM690 606q0 22 -17 39t-45 31.5t-65 27t-77 24.5l-13 5l-66.5 21t-65 26t-59 34.5t-48.5 45.5v-544q45 7 96 25.5
t101.5 43t97.5 54t82.5 59t57 57.5t21.5 51z" />
    <glyph glyph-name="bn_c_ch_ba" horiz-adv-x="1757" 
d="M234 1016q0 -35 21.5 -61.5t57.5 -46.5t83 -36.5t98 -32.5q57 -18 113.5 -38t101.5 -46.5t72.5 -61.5t27.5 -83q0 -51 -31.5 -100t-81.5 -93.5t-112 -83t-124.5 -68.5t-118.5 -51t-93 -29l-128 54v862h-120v81h1782v-81h-813v-60q7 -24 27 -41t47 -29.5t60 -21.5t68 -17
q32 -8 64.5 -20t64.5 -26q41 17 84 27.5t89 10.5q40 0 74.5 -10.5t59.5 -30.5t39 -49.5t14 -67.5q0 -105 -96.5 -199t-279.5 -157q67 -9 126 -31t111.5 -54t100.5 -71t95 -82l-64 -82q-32 35 -71 67t-82 60t-88 51t-88 39v-410q-26 -9 -52 -19l-45.5 -17t-39.5 -14
q-85 76 -172 118t-190 57q-9 23 -15.5 44.5t-14.5 43.5q36 34 86 70t105 68t111 57t104 37q-19 2 -35.5 2h-30.5q-33 0 -55.5 -2.5t-39 -5.5t-28 -6.5t-21.5 -5.5q-7 28 -16.5 54.5t-17.5 53.5q125 17 233 50.5t187 77t124 93t45 97.5q0 19 -7 31.5t-18.5 20t-25.5 10.5
t-29 3q-29 0 -56.5 -6.5t-51.5 -13.5q-14 -41 -56 -82t-96 -74t-112.5 -55t-106.5 -25l-49 18q-20 8 -43.5 15.5t-40.5 13.5v495h-620v-85zM1187 217q-26 -6 -56.5 -17.5t-61 -27.5t-57.5 -35.5t-45 -39.5q27 -8 56 -19.5t58 -26t56 -30.5t50 -32v228zM690 606q0 22 -17 39
t-45 31.5t-65 27t-77 24.5l-13 5l-66.5 21t-65 26t-59 34.5t-48.5 45.5v-544q45 7 96 25.5t101.5 43t97.5 54t82.5 59t57 57.5t21.5 51zM969 662q33 2 71 16.5t71 34t54.5 41.5t21.5 39q0 9 -13.5 17.5t-34.5 16.5t-46.5 16.5l-50 16.5t-44.5 16.5t-29 17.5v-232z" />
    <glyph glyph-name="bn_c_ch_ra" horiz-adv-x="1757" 
d="M234 1016q0 -35 21.5 -61.5t57.5 -46.5t83 -36.5t98 -32.5q57 -18 113.5 -38t101.5 -46.5t72.5 -61.5t27.5 -83q0 -51 -31.5 -100t-81.5 -93.5t-112 -83t-124.5 -68.5t-118.5 -51t-93 -29l-128 54v862h-120v81h1782v-81h-813v-144q7 -23 27 -39.5t47 -29.5t60 -22.5
t68 -17.5q32 -8 64.5 -19t64.5 -25q41 16 84 26t89 10q40 0 74.5 -10t59.5 -29.5t39 -48.5t14 -67q0 -63 -23 -110t-70.5 -89.5t-119.5 -85l-170 -96.5q69 -7 129.5 -24.5t114 -45t102 -64t94.5 -80.5q-16 -19 -32 -41.5t-32 -41.5q-75 79 -158 127t-171 73v-235l-112 -45
q-39 30 -67 47.5t-50.5 26.5t-41.5 11.5t-39 2.5q-29 0 -55 -8.5t-54 -20.5q-32 -14 -69.5 -26t-76.5 -12q-51 0 -100 14.5t-91 39.5t-73 59.5t-46 73.5l87 37q21 -45 49.5 -69.5t58.5 -36.5t58 -14t48 -2q32 0 62 10.5t60 23.5t63 24.5t67 11.5q38 0 70.5 -10t59 -24.5
t46.5 -30.5l34 -27v193q-44 0 -83 -9t-68 -23q-12 -5 -25 -13.5t-24 -16.5q-16 28 -32 49t-32 46q66 38 122 66.5l108 55.5l154.5 83.5t116 72t72.5 68t25 69.5q0 18 -7 30t-18.5 19.5t-25.5 11t-29 3.5q-28 0 -55 -6t-53 -15q-14 -41 -56 -82t-96 -74.5t-112.5 -55.5
t-106.5 -25l-49 18q-20 8 -43.5 15.5t-40.5 13.5v579h-620v-85zM969 581q33 1 71 15.5t71 34.5t54.5 42t21.5 39q0 9 -14 17t-36 16t-48 15.5t-50.5 16t-43.5 17.5t-26 19v-232zM690 606q0 22 -17 39t-45 31.5t-65 27t-77 24.5l-13 5l-66.5 21t-65 26t-59 34.5t-48.5 45.5
v-544q45 7 96 25.5t101.5 43t97.5 54t82.5 59t57 57.5t21.5 51z" />
    <glyph glyph-name="bn_c_nya" horiz-adv-x="2048" 
d="M1625 45l-116 -45q-17 31 -36 62.5t-41 56t-48 40t-57 15.5q-38 0 -73.5 -25t-71.5 -55.5t-75 -55.5t-84 -25q-77 0 -140.5 36t-110 99.5t-75 150.5t-37.5 189q-54 -41 -113 -75.5t-115 -60.5t-104 -44t-80 -26l-128 56v763h-120v81h974v-81h-740v-33q0 -34 20 -57.5
t53.5 -40.5t77.5 -29l92 -24l19 -5q56 -13 112 -28.5t100.5 -38.5t72.5 -55.5t28 -79.5q0 -26 -10.5 -53t-26.5 -53q-2 -16 -2 -32v-31q0 -86 16.5 -161.5t47.5 -131t76 -87.5t102 -32q44 0 83.5 24t80.5 56l34.5 25.5t35 22.5t34.5 16t33 6q36 0 63.5 -8.5t50 -23
t42.5 -33.5t40 -40v630q0 56 -10 104t-32.5 83.5t-58 56t-86.5 20.5q-12 0 -35.5 -6.5t-52 -23t-59 -44t-55.5 -68.5q27 -2 49 -13.5t38 -29.5t25 -41t9 -47q0 -58 -38 -92t-99 -34q-30 0 -57 12t-47 34t-31.5 53t-11.5 70q0 53 19 99t50 84t70 68t79.5 50.5t79 31.5
t67.5 11q83 0 140.5 -27t93.5 -68t52.5 -91.5t16.5 -96.5v-39q22 23 48.5 42.5t54 33.5t55 21.5t51.5 7.5q39 0 72 -10.5t57 -30t37.5 -48.5t13.5 -65q0 -54 -33 -89t-85 -58q52 -18 85 -52.5t33 -91.5q0 -47 -19 -81t-46.5 -55.5t-59 -31.5t-55.5 -10q-20 0 -41 2.5
t-45.5 13t-54 32.5t-68.5 61v-406zM683 705q0 32 -29.5 50t-75 29.5t-100 19.5t-104.5 19t-88.5 29.5t-51.5 50.5v-486q40 8 89 25.5t98.5 40.5t97 51t84 57.5t58.5 58.5t22 55zM1625 533q14 -14 33.5 -29t42.5 -27t49.5 -20t55.5 -8q42 0 67.5 21.5t25.5 79.5
q0 32 -20.5 54t-68.5 38v52q12 5 27.5 13.5t29 22.5t23 33.5t9.5 45.5q0 23 -10 37t-24 22t-30 10.5t-29 2.5q-33 0 -81.5 -22t-99.5 -75v-251z" />
    <glyph glyph-name="bn_c_na" horiz-adv-x="939" 
d="M451 174q-43 0 -84 -9.5t-68 -20.5q34 -18 60 -51t26 -86q0 -57 -38 -92t-99 -35q-30 0 -57 12t-47 34.5t-31.5 54t-11.5 69.5q0 42 24.5 81.5t69.5 69.5t108 48.5t140 18.5q55 0 108.5 -17.5t115.5 -63.5v299q-56 -39 -115.5 -73t-115 -60t-103.5 -44.5t-81 -26.5
l-128 56v763h-124v81h953v-81h-714v-33q0 -34 20 -57.5t53.5 -40.5t77.5 -29l92 -24l19 -5q55 -13 111 -28.5t100.5 -38.5t72.5 -55.5t28 -79.5q0 -52 -31 -102v-636l-115 -45v134q-13 16 -34 35.5t-48.5 36.5t-61 29t-72.5 12zM667 705q0 32 -28 49.5t-71.5 28.5t-95 19
t-99 19t-84.5 29.5t-50 50.5v-495q40 8 87 27t94.5 45t92 56t79 60.5t55 59t20.5 51.5z" />
    <glyph glyph-name="bn_j_ja" horiz-adv-x="1767" 
d="M1171 845q-17 -16 -35 -39t-33 -51.5t-25 -62.5t-10 -73q0 -29 6.5 -55.5t19 -46t30.5 -31t41 -11.5q15 0 46.5 16.5t58.5 46.5l127 -91q2 -21 3 -35t1 -27q0 -78 -27 -142.5t-73.5 -110.5t-108.5 -71t-133 -25q-66 0 -121.5 24.5t-99.5 66.5t-77 99t-54 123
q-54 -56 -123 -85.5t-141 -29.5q-75 0 -133 26t-101 70t-72.5 103t-47 125.5t-25.5 136.5t-8 137h106q0 -56 5.5 -113t18 -111t34 -101t53 -82t75 -55.5t99.5 -20.5q41 0 82.5 15t74.5 42.5t53.5 66t20.5 86.5q0 17 -2.5 32.5t-4.5 29.5q-39 -25 -79 -46t-74 -21
q-47 0 -80 23.5t-54.5 59.5t-31.5 78.5t-10 79.5q0 56 16 103.5t38.5 86t48 67.5l43.5 49h-488v81h1791v-81h-1073q34 -88 96 -138.5t153 -50.5q45 0 98 15t111 47l105 -60q8 -67 34 -111.5t70.5 -70.5t108 -37t146.5 -12l34 -95q-53 -68 -73.5 -134.5t-20.5 -131.5
q0 -68 23.5 -149.5t68.5 -159.5l-90 -54q-58 80 -87 175.5t-29 187.5q0 62 21.5 135.5t66.5 139.5q-64 0 -122 12t-105.5 40t-83 74.5t-54.5 114.5zM1059 151q41 0 81.5 15t72.5 42.5t51.5 66t19.5 86.5q0 17 -2.5 32.5t-4.5 32.5q-37 -28 -78 -49t-75 -21q-47 0 -80 23.5
t-54.5 59.5t-31.5 78.5t-10 79.5q0 59 19.5 112.5t46.5 101.5q-18 -3 -30 -4t-19.5 -2t-12 -1h-8.5q-57 0 -109.5 17t-95.5 51.5t-74.5 87t-47.5 123.5q-14 -10 -39.5 -32.5t-51.5 -57t-45 -79t-19 -97.5q0 -30 6.5 -56.5t18.5 -46t30 -30.5t42 -11q15 0 46.5 16.5
t58.5 45.5l64 -46.5l63 -46.5q2 -17 2 -31v-30v-30t-2 -29q7 -72 25.5 -138.5t50 -118.5t79 -83t113.5 -31z" />
    <glyph glyph-name="bn_j_j_ba" horiz-adv-x="1926" 
d="M1656 -230q-88 73 -180.5 118t-196.5 62q-8 23 -13 43.5t-15 42.5q89 88 192.5 148t224.5 89q-5 19 -8.5 51t-6.5 68.5t-4.5 74.5t-1.5 69q0 22 1.5 44.5t4.5 40.5q-42 0 -89 4t-95 13.5t-93 26.5t-83 43t-66 62.5t-42 85.5q-20 -18 -40.5 -42.5t-37.5 -54.5t-28 -65.5
t-11 -74.5q0 -29 6 -55.5t18.5 -46t30.5 -31t42 -11.5q15 0 45.5 16.5t59.5 46.5l63.5 -46.5t63.5 -44.5q2 -21 3 -35t1 -27q0 -78 -27 -142.5t-73.5 -110.5t-109 -71t-132.5 -25q-67 0 -122.5 24.5t-100 66.5t-77 99t-52.5 123q-57 -56 -125.5 -85.5t-138.5 -29.5
q-75 0 -133 26t-101.5 70t-73 103t-47.5 125.5t-26 136.5t-8 137h105q0 -56 5.5 -113t19 -111t35 -101t53.5 -82t75.5 -55.5t99.5 -20.5q41 0 82.5 15t74.5 42.5t53.5 66t20.5 86.5q0 17 -2.5 32.5t-4.5 29.5q-39 -25 -79.5 -46t-75.5 -21q-47 0 -80 23.5t-54 59.5
t-30.5 78.5t-9.5 79.5q0 56 16 103.5t38.5 86t48 67.5l43.5 49h-488v81h1954v-81h-1236q32 -88 95 -138.5t154 -50.5q45 0 97 15t112 47l105 -60q10 -68 53 -109t107.5 -62.5t144 -28.5t162.5 -7l36 -99q-13 -85 -17.5 -178.5t-4.5 -188.5q0 -76 2.5 -145.5t5.5 -125
t6 -93.5l4 -51q-3 -2 -16 -8q-12 -5 -36.5 -16.5t-71.5 -31.5zM1059 151q41 0 81.5 15t72.5 42.5t51.5 66t19.5 86.5q0 17 -2.5 32.5t-4.5 32.5q-39 -28 -79.5 -49t-75.5 -21q-47 0 -80 23.5t-54 59.5t-30.5 78.5t-9.5 79.5q0 59 18.5 112.5t45.5 101.5q-35 -5 -47.5 -6
t-20.5 -1q-57 0 -109.5 17t-96 51.5t-75 87t-46.5 123.5q-14 -10 -39.5 -32.5t-51.5 -57t-45 -79t-19 -97.5q0 -30 6.5 -56.5t18.5 -46t30 -30.5t42 -11q15 0 45.5 16.5t59.5 45.5l63.5 -46.5l63.5 -46.5q2 -17 2 -31v-30v-30t-2 -29q7 -72 25 -138.5t49.5 -118.5t79 -83
t114.5 -31zM1415 -2q66 -17 128 -49.5t121 -79.5v286q-71 -17 -135 -50.5t-119 -86.5z" />
    <glyph glyph-name="bn_j_jha" horiz-adv-x="1264" 
d="M1111 -28l-48 -19q-20 -8 -39.5 -15l-30.5 -11q-18 41 -35.5 75.5t-39.5 63t-51 52t-69 41.5v-187l-118 -45q-71 65 -140.5 105t-139 64t-140 36t-143.5 21q-14 24 -31.5 50.5t-33.5 48.5q24 18 67.5 39.5t98.5 44t117.5 44.5t124.5 40t119 31t101 18v64
q-36 -18 -71.5 -30.5t-66.5 -20t-55.5 -10.5t-39.5 -3q-85 0 -156.5 26t-123 77.5t-80.5 128t-29 176.5h107q17 -298 288 -298q21 0 60 2.5t78 14.5t67.5 37t28.5 70q0 11 -5.5 24.5t-10.5 24.5q-38 -22 -80 -38t-73 -16q-47 0 -80 12t-54 32t-30.5 47.5t-9.5 57.5
q0 39 16 76t39 70t48 60.5l44 47.5h-491v81h1281v-81h-560q34 -88 96 -138.5t154 -50.5q21 0 42 2t44 8t49 16.5t57 26.5q10 -24 19.5 -43.5l20.5 -42.5q-26 -33 -44 -74.5t-28.5 -85t-15 -84.5t-4.5 -72v-591zM996 507q0 29 3 75t11 94.5t22 91.5t36 66q-16 -9 -35 -15
t-36.5 -9.5t-31 -4.5t-19.5 -1q-57 0 -109 17t-94.5 51t-73 86t-45.5 121q-29 -14 -58 -35t-51.5 -46.5t-36.5 -56t-14 -64.5t19.5 -52.5t77.5 -18.5q46 0 106 66l126 -90q2 -23 3.5 -36t1.5 -25v-450q34 -15 60.5 -31t50 -35.5t44.5 -43.5t43 -55v401zM226 223
q56 -4 110.5 -10.5t110 -22t113.5 -43t120 -72.5v297q-30 -2 -72.5 -9.5t-89 -19t-94 -25t-89 -27.5t-72.5 -26.5t-44 -21.5z" />
    <glyph glyph-name="bn_j_nya" horiz-adv-x="1300" 
d="M525 92q-85 0 -154 30.5t-122.5 82t-92 118.5t-64 140t-37.5 147.5t-12 139.5v52l103 18q0 -11 -1 -20.5t-1 -19.5q0 -55 10 -120t30.5 -130t51 -125.5t72.5 -107.5t95.5 -75t118.5 -28q48 0 86.5 19.5t69 52t52 74t36 85t21 85t6.5 75.5q0 9 -0.5 17.5t-5.5 23.5
q-27 -24 -58 -43.5t-62.5 -34t-61.5 -22.5t-55 -8q-41 0 -78.5 20t-66.5 53t-46 76t-17 90q0 55 14 100t36 85.5t48.5 78.5t50.5 80h-491v81h1318v-81h-585q6 -44 16 -79.5t23.5 -65.5t29.5 -55.5l32 -49.5q22 19 50 37.5t58 33t59 23t53 8.5q39 0 72 -10.5t57 -30t37.5 -48
t13.5 -64.5q0 -54 -32.5 -89t-83.5 -58q51 -19 83.5 -53.5t32.5 -90.5q0 -47 -19 -81t-46.5 -55.5t-58.5 -31.5t-56 -10q-19 0 -38.5 1.5t-41.5 9t-47.5 23.5t-56.5 45q-23 -63 -55.5 -120.5t-75 -101.5t-96 -70t-118.5 -26zM626 1101q-25 -37 -54 -74t-53.5 -75.5
t-40.5 -80.5t-16 -89q0 -27 10.5 -54t28 -49t38.5 -35.5t42 -13.5q26 0 54 10t54.5 26t51 37t43.5 43q-33 34 -57.5 71t-43 80t-32.5 93t-25 111zM888 484q30 -20 65.5 -33.5t73.5 -13.5q39 0 66 22t27 79q0 32 -21.5 54.5t-68.5 37.5v53q13 5 28.5 13.5t29 22.5t23 33.5
t9.5 45.5q0 22 -10 36.5t-24 22t-30 10.5t-29 3q-29 0 -69 -17t-86 -55q20 -39 28 -79t8 -81q0 -40 -6 -78.5t-14 -75.5z" />
    <glyph glyph-name="bn_ny_ca" horiz-adv-x="1305" 
d="M809 45l-115 -45q-57 87 -125 148.5t-142 103.5t-152.5 68t-154.5 43l-73 106q66 65 137.5 115.5t146.5 90.5t153 72t158 59q-19 55 -47.5 99.5t-66.5 76t-86.5 48.5t-106.5 17q-20 0 -43 -10t-40 -27q45 -21 66.5 -52.5t21.5 -65.5q0 -28 -9.5 -52.5t-26 -43t-39 -29
t-48.5 -10.5q-32 0 -59 12t-47.5 33t-32 48.5t-11.5 57.5q0 57 25.5 102t66 75.5t90.5 46.5t100 16q46 0 96 -14.5t97.5 -41.5t87 -66t64.5 -89v245h115v-322q24 23 50.5 42.5t54 33.5t54.5 21.5t53 7.5q39 0 72 -10.5t57 -30t37.5 -48.5t13.5 -65q0 -54 -33 -89t-85 -58
q52 -18 85 -52.5t33 -91.5q0 -47 -19 -81t-46.5 -55.5t-59 -31.5t-55.5 -10q-20 0 -41 2.5t-46 13t-55.5 32.5t-69.5 61v-406zM202 455q68 -17 136 -41t132 -58.5t121 -79.5t103 -104v544q-65 -17 -131.5 -43t-130 -59.5t-122.5 -73.5t-108 -85zM809 548q13 -17 33 -34.5
t44 -32t51 -23.5t56 -9q19 0 36 5t30 16.5t20 31t7 48.5q0 32 -21 54t-69 38v52q13 5 28.5 13.5t29 22.5t23 33.5t9.5 45.5q0 23 -10 37t-24 22t-30 10.5t-29 2.5q-18 0 -41 -7t-47.5 -20.5t-49.5 -34t-46 -47.5v-224z" />
    <glyph glyph-name="bn_ny_cha" horiz-adv-x="1182" 
d="M398 1182q70 0 134 -34t104 -91q28 27 63 50t70.5 39.5t68.5 26t56 9.5q39 0 72 -10.5t57.5 -30t38 -47.5t13.5 -64q0 -55 -33.5 -90.5t-84.5 -58.5q51 -17 84.5 -51.5t33.5 -90.5q0 -47 -19 -81t-47 -55.5t-59.5 -31.5t-55.5 -10q-20 0 -37 5t-34 15q15 -25 15 -52
q0 -43 -24.5 -75t-63.5 -57.5t-88 -45.5l-97.5 -39t-93 -39t-73.5 -45q49 0 108 -11t121 -29t125 -42t121 -50.5t108 -53.5t87 -51l-61 -77q-87 51 -179.5 94.5t-181 75t-169 49.5t-142.5 18q-61 0 -106 -12.5t-87 -35.5l-56 95q109 60 211 104l187 79q109 45 169.5 82
t62.5 85q0 21 -43 73q-27 -56 -69 -96t-92.5 -65.5t-106.5 -37.5t-110 -12q-41 0 -82.5 14.5t-74.5 40t-54 59.5t-21 73q0 47 21 77.5t55.5 49.5t78.5 29.5t89.5 19t89.5 18t78.5 25.5t55.5 41.5t21 66.5q0 65 -35 104.5t-98 39.5q-35 0 -72 -10.5t-72 -27.5q58 -49 58 -104
q0 -26 -11 -44.5t-29 -30t-41.5 -17t-49.5 -5.5q-29 0 -54.5 10t-44.5 28t-29.5 42t-10.5 52q0 46 33 86t83.5 70t109 47.5t109.5 17.5zM669 942q0 -29 -2.5 -58t-19.5 -61l105 -122q28 -16 56.5 -25t58.5 -9q40 0 66 21.5t26 77.5q0 34 -20 56.5t-69 37.5v52q12 5 27.5 14
t29 22.5t23 33t9.5 45.5q0 23 -9.5 37t-23.5 22t-30 10.5t-29 2.5q-17 0 -40.5 -7t-51 -20.5t-56 -33.5t-55.5 -45q5 -25 5 -51zM331 525q40 0 84.5 14t84 37.5t71.5 54.5t48 65l-47 50q-14 -21 -47 -32t-74.5 -18t-85.5 -12.5t-81 -14t-60.5 -23.5t-23.5 -40
q0 -22 14.5 -37.5t35.5 -25t43.5 -14t37.5 -4.5z" />
    <glyph glyph-name="bn_ny_ja" horiz-adv-x="1390" 
d="M120 621q18 -107 62.5 -200t107.5 -161.5t138.5 -108t154.5 -39.5q63 0 117.5 12.5t95 39t64 68.5t23.5 101q0 28 -11 59.5t-39 58t-76 44t-121 17.5q-37 0 -76.5 -6t-77 -16.5t-69.5 -26.5t-54 -35l-107 56q0 5 -0.5 9.5t-0.5 9.5q0 51 20.5 88t54.5 64.5t77 47.5
t87.5 37.5l87.5 35t77 39.5t54.5 51.5t20.5 70.5q0 65 -42.5 98t-108.5 33q-38 0 -73.5 -10.5t-70.5 -27.5q29 -24 44 -51t15 -53t-11 -44.5t-29.5 -30t-42 -17t-48.5 -5.5q-30 0 -55.5 10t-44 28t-29.5 42t-11 52q0 46 33 86t83 70t109 47.5t111 17.5q61 0 122 -28t106 -77
q22 18 56 37t70 34t71 24.5t59 9.5q39 0 71 -8.5t55.5 -24.5t36.5 -38t13 -50q0 -23 -9 -40t-24.5 -30.5t-36 -23t-42.5 -17.5q51 -11 81.5 -34.5t30.5 -72.5q0 -43 -23 -68.5t-55 -39t-66.5 -17.5t-58.5 -4q-14 0 -37.5 4.5t-50 13.5t-53.5 21.5t-48 28.5q31 -46 64 -71.5
t67 -37.5t69 -14.5t70 -2.5q29 0 58.5 0.5t61.5 5.5l56 -97q-37 -39 -59.5 -74t-35 -68t-16.5 -66t-4 -67q0 -52 18 -109.5t54 -128.5l-108 -48q-41 83 -59 151t-18 124q0 47 7.5 87.5t20.5 77.5t31.5 70.5t41.5 66.5q-25 -4 -49.5 -5.5t-39.5 -1.5q-57 0 -104 14.5
t-85.5 39t-70 56t-56.5 66.5q-42 -30 -93.5 -48l-102 -37t-94.5 -44t-70 -69q68 38 141.5 49.5t146.5 11.5q54 0 111.5 -14.5t104.5 -46.5t77.5 -84.5t30.5 -127.5q0 -69 -28 -130.5t-82 -108t-134.5 -74t-185.5 -27.5q-67 0 -130 22.5t-118.5 62.5t-103 94.5t-84 118
t-61.5 133.5t-36 141zM829 942l-4 -27.5t-8 -35.5q18 -14 40 -27t46.5 -23t50 -16.5t50.5 -6.5q19 0 39 3.5t36.5 10.5t27.5 18t11 27q0 17 -11 28.5t-28 19.5t-37.5 12t-39.5 6v47q15 1 35 4.5t38 11.5t30.5 21t12.5 34q0 15 -11.5 25t-27.5 16t-33.5 8.5t-29.5 2.5
q-14 0 -35.5 -6t-48.5 -17t-56.5 -27.5t-58.5 -38.5q8 -17 10 -33t2 -29v-8z" />
    <glyph glyph-name="bn_ny_jha" horiz-adv-x="1471" 
d="M1221 -73q-35 78 -90.5 137.5t-130.5 94.5v-187l-117 -45q-70 65 -139.5 105t-139 64t-140 36t-142.5 21q-14 24 -33 50.5l-35 48.5q25 18 64 38.5t87.5 41t103 40.5t110.5 37.5t110.5 31t102.5 21.5q-28 26 -61.5 41t-67.5 15q-41 0 -76 -14t-70 -31t-73 -31t-86 -14
q-83 0 -149.5 35t-113.5 99t-72.5 155t-26.5 203h110q1 -84 18 -153.5t48 -119t75 -77t100 -27.5q43 0 82.5 13.5t77.5 30t75.5 30t78.5 13.5q59 0 101.5 -25.5t80.5 -66.5v289q0 56 -10 100.5t-31.5 76t-57 48t-86.5 16.5q-12 0 -35.5 -6.5t-52 -23t-59 -44t-55.5 -68.5
q27 -2 49.5 -13.5t38 -29.5t24.5 -41t9 -47q0 -58 -38 -92t-99 -34q-31 0 -57.5 12t-46.5 34t-31.5 53t-11.5 70q0 53 19 99t49.5 84t70 68t80 50.5t79 31.5t67.5 11q83 0 140.5 -23.5t93.5 -61t52 -84.5t16 -93v-39q48 46 104 76t106 30q39 0 72 -9t57 -26.5t37.5 -42
t13.5 -55.5q0 -24 -9.5 -42t-26 -32t-38.5 -25t-46 -20q52 -17 86 -45.5t34 -65.5q0 -45 -15.5 -76.5t-39.5 -51.5v-524zM1000 664l35 -31.5t43 -33t49.5 -26t54.5 -10.5q19 0 36 4t30 14t20 26.5t7 41.5q0 35 -21 51t-69 23v36q17 4 33 9t29 13t20.5 20t7.5 31
q0 23 -9.5 37.5t-24 22.5t-30.5 10.5t-29 2.5q-34 0 -81.5 -21.5t-100.5 -74.5v-145zM404 232q60 -2 124 -14.5t126.5 -34.5t121 -53.5t107.5 -73.5v316q-31 -2 -73 -9t-89.5 -18t-96 -25t-91.5 -29t-77 -30.5t-52 -28.5zM1000 271q66 -29 121.5 -73t99.5 -110v370
q-23 0 -46 6t-49.5 21t-57 40t-68.5 63v-317z" />
    <glyph glyph-name="bn_tt_tt_ra" horiz-adv-x="1104" 
d="M0 1101v81h899q8 20 11.5 35.5t3.5 30.5q0 39 -32 65.5t-84 45.5t-118.5 32.5l-136.5 27.5t-136.5 31t-118.5 41.5t-84 60t-32 86.5q0 37 17.5 84.5t51.5 102.5q19 -10 38.5 -22.5l36.5 -22.5q-48 -71 -48 -124q0 -37 21 -62.5t57.5 -43t85.5 -28.5t104 -19
q17 -2 35 -5.5t35 -5.5q67 -11 139.5 -27.5t133.5 -42t100.5 -62.5t39.5 -90q0 -17 -3 -38t-14 -50h118v-81h-733v-516q0 -20 6.5 -49t23 -56.5t45.5 -47t74 -19.5q49 0 108 29t110.5 77t86 111t34.5 131q0 28 -9 59t-23 70q-28 -53 -63.5 -82.5t-74.5 -29.5q-32 0 -57 11.5
t-42 29.5t-25.5 40.5t-8.5 45.5q0 33 14 59.5t38 44.5t55.5 28t66.5 10q57 0 100.5 -24.5t73 -64.5t45 -91t15.5 -104q0 -66 -22 -132.5t-64 -125.5q46 -57 66 -110.5t20 -101.5q0 -65 -32 -121v-332l-114 -45q-40 29 -68 46.5t-50.5 26.5t-41 12t-38.5 3q-35 0 -66.5 -11
t-62 -24t-61.5 -24t-65 -11q-51 0 -100 15t-91 40.5t-73.5 60t-47.5 73.5l88 36q21 -45 49.5 -69.5t59 -36t58.5 -14t48 -2.5q27 0 51 7.5t47 18l46 21.5t47 17v20q-185 3 -314.5 108t-207.5 322l103 68q40 -123 89 -198.5t104 -117t114 -55t121 -13.5q58 0 111.5 18
t93.5 47t64 65.5t24 73.5q0 46 -52 95q-64 -54 -143.5 -84t-168.5 -30q-48 0 -89.5 19.5t-72 52t-48.5 73.5t-18 85v572h-273zM656 -15q25 -6 50.5 -16t49 -21t43.5 -23t35 -22v162q-44 -23 -88.5 -37.5t-89.5 -20.5v-22z" />
    <glyph glyph-name="bn_tt_tta" horiz-adv-x="1047" 
d="M0 1101v81h829q16 38 16 66q0 39 -32 65t-84.5 44t-119 31l-136.5 26.5t-136.5 30t-119 42t-84.5 62t-32 89.5q0 37 18 84.5t50 102.5l76 -45q-23 -35 -35 -66.5t-12 -57.5q0 -47 32 -76.5t85 -48t120.5 -30t137.5 -22t137.5 -24t120.5 -36t85 -58.5t32 -91
q0 -17 -2.5 -38t-12.5 -50h131v-81h-746v-516q0 -20 6 -49t22.5 -56.5t45 -47t74.5 -19.5q49 0 108 29t110 77t85.5 111t34.5 131q0 28 -8.5 59t-25.5 70q-25 -53 -60.5 -82.5t-77.5 -29.5q-32 0 -56 11.5t-40 29.5t-24.5 40.5t-8.5 45.5q0 33 14 59.5t37.5 44.5t54.5 28
t66 10q57 0 101 -24.5t73.5 -64.5t45 -91t15.5 -104q0 -66 -22 -132.5t-63 -125.5q44 -57 64.5 -110.5t20.5 -101.5q0 -63 -32.5 -117t-88.5 -93t-131 -61t-160 -22q-185 0 -317 106t-211 324l103 68q40 -123 89 -198.5t104 -117t115 -55t122 -13.5q57 0 110 18t93.5 47
t64.5 65.5t24 73.5q0 46 -54 95q-64 -54 -143 -84t-170 -30q-48 0 -89 19.5t-71.5 52t-48 73.5t-17.5 85v572h-202z" />
    <glyph glyph-name="bn_tt_ma" horiz-adv-x="1079" 
d="M0 1101v81h772q17 37 17 66q0 38 -27.5 64t-73.5 44t-105 30.5t-123 23.5q-103 18 -181 37t-130 45t-78 61t-26 85q0 37 17.5 84.5t51.5 102.5q20 -10 39 -22.5t36 -22.5q-24 -35 -35.5 -66.5t-11.5 -57.5q0 -32 19 -55t50 -39.5t69 -28t75.5 -19t71 -12t55.5 -8.5l27 -5
q70 -12 138.5 -26t123 -38t88 -61t33.5 -94q0 -17 -2.5 -38t-12.5 -50h217v-81h-172v-1056l-113 -45q-20 52 -61.5 92t-87.5 67.5t-87.5 43t-60.5 18.5q0 -75 -16.5 -118t-40 -65t-49 -28t-43.5 -6q-28 0 -52.5 12t-42.5 32t-28 45t-10 51q0 65 38 110.5t128 67.5v48h-52
q-44 0 -84 19.5t-70 52t-48 74.5t-18 86v499h-124zM809 1101h-570v-443q0 -20 4 -50t18.5 -57.5t41.5 -47t73 -19.5t91.5 18.5t82 54t59.5 88t23 121.5q0 27 -8 58.5t-22 69.5q-28 -52 -63.5 -82t-74.5 -30q-32 0 -56.5 11.5t-41 29.5t-25 41t-8.5 46q0 33 14 59.5
t37.5 44.5t54.5 28t66 10q57 0 100.5 -24.5t73 -64t45 -90.5t15.5 -103q0 -132 -60.5 -228.5t-166.5 -143.5v-78q30 -2 71 -12.5t83 -28.5t80.5 -44t62.5 -57v923z" />
    <glyph glyph-name="bn_dd_ga" horiz-adv-x="1939" 
d="M1049 716q-20 31 -28.5 61.5t-8.5 60.5q0 39 13 76t34 71t48 63t56 53h-617v-426q0 -18 4.5 -40t16.5 -41t34 -31.5t57 -12.5q26 0 55.5 11t61 36t65 65t68.5 97q46 -20 76 -32t48 -20q21 -9 32 -13q6 -27 7 -58t1 -60q0 -67 -13 -136t-39.5 -133t-66 -120t-93 -97.5
t-120.5 -65.5t-149 -24q-75 0 -140 29.5t-120.5 79t-101 115t-81.5 137t-62.5 145t-42.5 139.5l99 47q11 -41 32.5 -99t52 -121.5t69.5 -126.5t86.5 -113t101.5 -81t115 -31q60 0 108.5 18.5t85.5 50t63.5 72.5t43.5 86t25 90t8 85q0 14 -1 26t-6 37q-42 -49 -78.5 -80.5
t-71.5 -50t-69.5 -26t-70.5 -7.5q-49 0 -87 21.5t-64 53.5t-39.5 70.5t-13.5 73.5v461h-432v81h1388q87 0 158.5 -45.5t134.5 -140.5v186h288v-81h-174v-1056l-114 -45v772q-15 50 -40 102.5t-60.5 95.5t-82.5 70.5t-105 27.5q-36 0 -79 -16t-81.5 -46t-67 -73.5
t-34.5 -98.5q37 11 68.5 17.5t55.5 6.5q44 0 85.5 -12t74 -35.5t52.5 -59t20 -82.5t-16.5 -84t-43.5 -65t-61 -49t-68.5 -35t-66.5 -22t-55 -12l-69 110q39 1 84.5 12t84.5 30.5t66 45.5t30 56q-7 54 -46.5 75t-97.5 21q-43 0 -89 -9.5t-90 -26.5z" />
    <glyph glyph-name="bn_dd_dda" horiz-adv-x="2075" 
d="M1507 0q-75 0 -149 38.5t-138 102t-113.5 145.5t-76.5 169q-8 -94 -44 -176.5t-94 -144.5t-135 -98t-166 -36q-75 0 -140 29.5t-120.5 79t-101.5 115t-82 137t-62 145t-42 139.5l99 47q11 -41 32.5 -99t52 -121.5t69.5 -126.5t86.5 -113t101.5 -81t115 -31
q90 0 153.5 40.5t103 101t57.5 130.5t18 130q0 14 -1 26t-6 37q-42 -49 -78.5 -80.5t-71 -50t-68.5 -26t-70 -7.5q-49 0 -87.5 21.5t-64.5 53.5t-40 70.5t-14 73.5v461h-430v81h2104v-81h-640v-426q0 -18 4.5 -40t17 -41t34.5 -31.5t57 -12.5q26 0 55 11t60.5 36t64.5 65
t68 97l155 -65q7 -27 8 -58t1 -60q0 -67 -13 -136t-39.5 -133t-66 -120t-93 -97.5t-121 -65.5t-149.5 -24zM546 675q0 -18 4 -40t16 -41t34 -31.5t58 -12.5q26 0 55 11t60 36t64 65t68 97l159 -65q13 -53 34.5 -115.5t51.5 -126.5t68 -124t84 -106t99.5 -74t114.5 -28
q90 0 153.5 40.5t103.5 101t58 130.5t18 130q0 14 -0.5 26t-5.5 37q-41 -49 -78 -80.5t-71.5 -50t-69 -26t-70.5 -7.5q-49 0 -87 21.5t-64 53.5t-39.5 70.5t-13.5 73.5v461h-804v-426z" />
    <glyph glyph-name="bn_dd_ma" horiz-adv-x="1358" 
d="M557 367q-75 0 -139 22.5t-117 61t-94.5 89.5t-72 107.5t-50.5 115t-28 112.5l30 10.5l25.5 8.5l25.5 8t30 10q8 -39 22 -86t36.5 -94t53.5 -91t72 -78t92.5 -54.5t115.5 -20.5q74 0 131.5 19.5t96.5 54.5t59.5 83.5t20.5 106.5q0 20 -2 39.5t-7 40.5q-40 -60 -74.5 -95
t-65.5 -53t-59 -23t-55 -5q-45 0 -83 20.5t-66 52t-43.5 69t-15.5 72.5v231h-396v81h1378v-81h-172v-1056l-116 -45q-29 60 -71.5 100.5t-85.5 66t-81 38.5t-57 16q0 -75 -16.5 -118t-40 -65t-48.5 -28t-43 -6q-28 0 -52.5 12t-43 32t-29 45t-10.5 51q0 65 39 110.5
t129 67.5v56q-38 -6 -67 -8.5t-56 -2.5zM1090 1101h-578v-196q0 -18 4.5 -40t16.5 -41t34 -31.5t57 -12.5q28 0 51.5 10.5t46.5 35t48.5 64.5t56.5 99l140 -61q10 -44 16 -85.5t6 -79.5q0 -117 -50 -206t-144 -138v-99q31 -2 71.5 -12t81.5 -28.5t79 -44.5t63 -59v925z" />
    <glyph glyph-name="bn_nn_tta" horiz-adv-x="1444" 
d="M628 678q-26 59 -59.5 98.5t-71.5 63t-78 33.5t-79 10q-15 0 -37.5 -5t-46.5 -18t-45 -36.5t-33 -60.5q32 0 57.5 -11t43.5 -29.5t27.5 -42t9.5 -48.5q0 -27 -10.5 -50t-29.5 -39.5t-44.5 -26t-55.5 -9.5t-56.5 12t-46.5 34.5t-31.5 54t-11.5 70.5q0 79 28 139
t71.5 100.5t97 60.5t104.5 20q37 0 74 -7t74.5 -24t74.5 -47.5t74 -76.5v339h584q16 38 16 66q0 37 -26 62t-70 42.5t-101 30t-119 23.5q-17 2 -34.5 5.5t-32.5 5.5q-65 12 -129 29t-116 43t-84 62t-32 87q0 37 18 84.5t52 102.5l82 -45q-48 -71 -48 -124q0 -43 32 -71
t84 -46.5t119 -31l136.5 -24.5t136.5 -27t119 -39t84 -59t32 -88q0 -17 -2.5 -38t-12.5 -50h148v-81h-720v-815q0 -20 6 -49t22.5 -56.5t45 -47t74.5 -19.5q33 0 71 13t75.5 36.5t72 56t61 71.5t42.5 83t16 90q0 26 -8 57.5t-23 69.5q-26 -54 -62.5 -84t-75.5 -30
q-32 0 -56 12t-40.5 30.5t-25 41.5t-8.5 45q0 34 14 60.5t37 44.5t54 27.5t65 9.5q57 0 100.5 -24.5t73.5 -64t45 -90.5t15 -103q0 -89 -36 -173t-100 -149t-152 -104.5t-191 -39.5q-47 0 -88.5 19.5t-72.5 52t-49 74.5t-18 86v446z" />
    <glyph glyph-name="bn_nn_tt_ra" horiz-adv-x="1390" 
d="M588 680l-39 90t-47.5 77.5t-65.5 54t-92 20.5q-47 0 -90.5 -35t-66.5 -107q32 0 57 -11.5t42.5 -30.5t26.5 -43t9 -48q0 -57 -38 -92t-99 -35q-31 0 -57.5 12t-46.5 34.5t-31.5 54.5t-11.5 71q0 79 27 142.5t69 108.5t93.5 69t101.5 24q45 0 83 -12t69.5 -33t58 -49.5
t48.5 -62.5v303h629q8 20 11.5 35.5t3.5 30.5q0 40 -32 66.5t-84.5 45.5t-119.5 32.5l-137 27.5t-137 30.5t-119.5 41t-84.5 60t-32 86.5q0 37 19.5 84.5t51.5 102.5l75 -45q-25 -35 -37 -66.5t-12 -57.5q0 -42 32.5 -69t85 -45.5t120 -31.5l138 -25.5t138.5 -28t120.5 -39
t85 -59t32.5 -88.5q0 -17 -3 -38t-14 -50h92v-81h-707v-815q0 -20 6 -49t22.5 -56.5t45.5 -47t74 -19.5q33 0 71.5 13t76 36.5t72 56t61 71.5t42 83t15.5 90q0 26 -8 57.5t-23 69.5q-26 -54 -62.5 -84t-74.5 -30q-32 0 -56.5 12t-41 30.5t-25 41.5t-8.5 45q0 34 14 60.5
t37 44.5t54 27.5t66 9.5q57 0 101 -24.5t74 -64t45 -90.5t15 -103q0 -89 -36.5 -173t-101 -149t-152.5 -104.5t-191 -39.5q-50 0 -112 32v-60l-115 -45q-36 31 -61.5 49.5t-45 27.5t-36.5 11.5t-37 2.5q-27 0 -54.5 -9.5t-49.5 -19.5q-12 -6 -29.5 -13.5t-36.5 -13.5
t-38 -10t-35 -4q-48 0 -90.5 14t-77.5 39t-61.5 59.5t-41.5 74.5l88 37q21 -42 45 -66t49 -36.5t50 -16t48 -3.5q32 0 57.5 10.5t52.5 23.5t56.5 24.5t63.5 11.5t61 -9.5t49 -23.5t40 -29.5t34 -27.5v650z" />
    <glyph glyph-name="bn_nn_ttha" horiz-adv-x="1232" 
d="M645 1097q-53 73 -88 128t-57 98t-31 77t-9 64q0 56 19 109t48 98.5t64 81.5t67 59q22 -20 45 -34.5t47 -31.5q-20 -15 -50 -43t-58 -64.5t-48 -81.5t-20 -95q0 -63 39 -134t99 -146h541v-81h-471l123.5 -143t113.5 -153.5t83.5 -159t32.5 -159.5q0 -99 -24.5 -187.5
t-74 -155t-124 -105t-173.5 -38.5q-57 0 -107.5 22t-92 60t-74.5 88t-55.5 107t-35 116.5t-13.5 115.5q85 41 137.5 90.5t84.5 114.5q-3 64 -22.5 121.5t-51 101t-73 68.5t-87.5 25q-63 0 -114.5 -39t-75.5 -114q21 5 28.5 5.5t12.5 0.5q29 0 51.5 -11.5t37.5 -30t23 -41.5
t8 -45q0 -57 -38 -92t-99 -35q-31 0 -57.5 12t-46.5 34.5t-31.5 54.5t-11.5 71q0 79 26.5 143t70.5 108.5t100.5 68.5t115.5 24q45 0 89.5 -14.5t81.5 -41.5t63.5 -66t35.5 -87l23 2q4 34 4.5 72.5t0.5 80.5zM1014 475q0 48 -21 108t-56.5 124t-82 129t-97.5 123
q-5 -72 -20 -146.5t-46.5 -142t-81.5 -123.5t-125 -92q0 -11 6.5 -40t19.5 -67t34 -79.5t50.5 -75.5t67.5 -56.5t86 -22.5q78 0 129.5 36t82 90.5t42.5 117.5t12 117z" />
    <glyph glyph-name="bn_nn_dda" horiz-adv-x="1219" 
d="M1115 843q0 -63 -19.5 -124t-54.5 -115q29 -35 50.5 -84t21.5 -110q0 -48 -17.5 -90t-48 -77.5t-71.5 -63.5t-88 -47t-98 -29.5t-100 -10.5q-119 0 -227.5 38t-194.5 123.5t-145.5 222.5t-81.5 335l103 36q15 -139 58.5 -256t112.5 -202.5t163 -133.5t212 -48
q53 0 108 13t100 39t73.5 66t28.5 94q0 29 -10.5 52.5t-28.5 44.5q-33 -24 -64.5 -37t-60.5 -13q-24 0 -48.5 9t-44.5 26t-32.5 41.5t-12.5 56.5q0 27 9 51.5t25.5 42.5t39.5 29t51 11q8 0 22 -2t29 -6.5t29.5 -12t24.5 -18.5l18 4l19 15.5t17.5 21.5t12.5 31.5t5 44.5
q0 13 -2 33.5t-9.5 47t-23 57t-43.5 65.5q-43 -26 -74 -71t-50 -89l-100 54q-2 24 -15 52t-36 52t-56 40t-73 16q-16 0 -37 -4t-44.5 -15.5t-48.5 -32.5t-50 -55q22 5 41 7.5t27 2.5q31 0 53 -12t36 -31t20.5 -42.5t6.5 -45.5q0 -58 -38 -92t-99 -34q-40 0 -69 17.5
t-47.5 45.5t-27.5 62.5t-9 68.5q0 46 21 95t60 88.5t94.5 65t123.5 25.5q53 0 96 -11.5t77.5 -32t60 -47.5t44.5 -57q32 48 65 83t72 61q31 -33 61.5 -74.5t54.5 -86t38.5 -89.5t14.5 -85z" />
    <glyph glyph-name="bn_nn_dd_ra" horiz-adv-x="1185" 
d="M914 194q-56 -20 -113.5 -30.5t-108.5 -10.5q-80 0 -154.5 12t-142 41.5t-125.5 78t-103.5 121.5t-77.5 173t-46 232l103 36q16 -138 59 -245.5t112 -181.5t163 -113t212 -39q53 0 108.5 7.5t100.5 27.5t74 54.5t29 89.5q0 25 -8.5 43.5t-21.5 31.5q-35 -26 -69.5 -41
t-66.5 -15q-23 0 -47 9t-43.5 26t-32 41.5t-12.5 56.5q0 27 8.5 51.5t24.5 42.5t38.5 29t50.5 11q8 0 22 -2t29 -6.5t29.5 -12t25.5 -18.5l17 4q10 7 19.5 15.5t17 21.5t12.5 31.5t5 44.5q0 13 -2 33.5t-9.5 47t-23 57t-43.5 65.5q-43 -26 -74 -71t-50 -89l-97 54
q-3 24 -16.5 52t-37 52t-56.5 40t-73 16q-16 0 -37 -4t-44.5 -15.5t-48.5 -32.5t-50 -55q23 5 41.5 7.5t26.5 2.5q31 0 53 -12t36.5 -31t21 -42.5t6.5 -45.5q0 -58 -38 -92t-100 -34q-39 0 -68 17.5t-48 45.5t-28 62.5t-9 68.5q0 46 21 95t60 88.5t94.5 65t123.5 25.5
q53 0 96 -11.5t77.5 -32t60 -47.5t44.5 -57q32 48 65.5 83t71.5 61q31 -33 61.5 -74.5t54.5 -86t39 -89.5t15 -85q0 -62 -19.5 -121t-51.5 -112q29 -30 50 -72t21 -99q0 -56 -24 -100t-64 -79v-278q-32 -12 -62.5 -26.5l-62.5 -28.5q-39 30 -65.5 47.5t-47 26.5t-37.5 11.5
t-37 2.5q-30 0 -55 -8.5t-53 -19.5q-34 -14 -70.5 -26.5t-77.5 -12.5q-51 0 -99.5 14.5t-90 39.5t-73 59.5t-46.5 73.5l88 37q20 -45 49 -69.5t59 -36.5t58 -14t46 -2q33 0 64 11t61.5 24t62 24t66.5 11t66.5 -11.5t58 -27t47.5 -32.5t35 -27v172z" />
    <glyph glyph-name="bn_nn_ddha" horiz-adv-x="1415" 
d="M595 673q-13 65 -32.5 119t-48.5 92.5t-69 59.5t-93 21q-50 0 -93 -34.5t-67 -107.5q32 0 57.5 -11.5t43 -30.5t27 -42t9.5 -47q0 -58 -39 -92.5t-101 -34.5q-30 0 -56.5 12t-46.5 34t-31.5 53.5t-11.5 70.5q0 79 26.5 142.5t69 108.5t94.5 69t103 24q45 0 82.5 -11.5
t69.5 -32t58 -49t49 -62.5v258h841v-81h-726v-815q0 -20 6 -49t22.5 -56.5t45.5 -47t74 -19.5q33 0 70.5 13t75.5 36.5t72.5 56t61.5 71.5t43 83t16 90q0 26 -8.5 57.5t-23.5 69.5q-27 -54 -63 -84t-76 -30q-32 0 -56 12t-41 30.5t-25.5 41.5t-8.5 45q0 34 14 60.5t38 44.5
t55 27.5t66 9.5q57 0 100.5 -24.5t73.5 -64t45.5 -90.5t15.5 -103q0 -89 -36.5 -173t-100.5 -149t-152 -104.5t-191 -39.5q-47 0 -88.5 19.5t-72.5 52t-49 74.5t-18 86v441z" />
    <glyph glyph-name="bn_nn_nna" horiz-adv-x="935" 
d="M662 667q-41 77 -79 130t-75.5 85.5t-75.5 47t-78 14.5q-14 0 -36.5 -4.5t-46.5 -17.5t-45 -36.5t-32 -60.5q31 0 56 -11.5t42.5 -30.5t27 -42t9.5 -47q0 -58 -39 -92t-99 -34q-30 0 -57 11.5t-47.5 33.5t-32 53.5t-11.5 70.5q0 79 28 139.5t71.5 101t97 61t104.5 20.5
q40 0 80.5 -7.5t80 -28.5t79 -58t78.5 -95v312h286v-81h-172v-1056l-114 -45v137q-41 78 -79 131.5t-75.5 86.5t-75.5 47.5t-78 14.5q-14 0 -36.5 -5t-46.5 -18.5t-45 -37t-32 -59.5q31 0 56 -11.5t42.5 -30t27 -42.5t9.5 -48q0 -28 -10.5 -51.5t-28.5 -40t-43.5 -26
t-55.5 -9.5t-57 12t-47.5 34.5t-32 54t-11.5 70.5q0 79 28 139t71.5 100.5t97 60.5t104.5 20q40 0 80.5 -7.5t80 -28t79 -57t78.5 -94.5v325z" />
    <glyph glyph-name="bn_nn_ma" horiz-adv-x="1156" 
d="M708 320q30 -2 57.5 -13.5t51 -28.5t41.5 -36.5t29 -36.5v896h-179v-781zM592 712q-14 55 -33.5 102.5t-48.5 83t-68.5 56t-92.5 20.5q-50 0 -93.5 -35t-66.5 -107q32 0 57 -12t42.5 -30.5t26.5 -42t9 -46.5q0 -58 -38 -92.5t-100 -34.5q-29 0 -55.5 12t-46.5 34
t-32 53.5t-12 70.5q0 79 27 142.5t69.5 108.5t94.5 69t103 24q45 0 82.5 -11.5t69 -32t57.5 -49t49 -62.5v249h583v-81h-172v-1056l-116 -45q-14 51 -36 90.5t-46.5 67t-50 43t-46.5 20.5q0 -75 -16.5 -118t-40.5 -65t-50 -28t-45 -6q-27 0 -51 12t-42 32t-29 45t-11 51
q0 65 40 110.5t129 67.5v390z" />
    <glyph glyph-name="bn_t_ta" horiz-adv-x="1208" 
d="M1120 324q0 -88 -38 -149.5t-100.5 -100.5t-143.5 -56.5t-167 -17.5q-95 0 -178 38t-151.5 102.5t-122.5 149.5t-92 178.5t-59.5 191t-24.5 185.5l112 20q1 -38 9 -90t23.5 -112t39 -124t55.5 -125t72.5 -115.5t90.5 -95.5t109.5 -65t128.5 -24q27 0 61.5 3t69.5 11.5
t68 23.5t59 39.5t41.5 59t15.5 82.5q0 66 -43.5 97.5t-111.5 31.5h-14t-14 -2q-21 -10 -39.5 -20l-29.5 -16q-19 30 -38.5 55t-38.5 54q37 26 79.5 47.5t79 47t60.5 60.5t24 88q0 25 -15 52.5t-44 51t-71.5 38.5t-98.5 15q-60 0 -102 -21t-63 -47q17 -4 35 -14.5t32.5 -26
t24 -36t9.5 -44.5q0 -32 -10.5 -55.5t-27.5 -39.5t-39 -24t-46 -8q-30 0 -58.5 10.5t-52 31.5t-38.5 53t-16 75q3 63 33 111.5t79.5 81.5t115 50t139.5 17q73 0 135 -25.5t107 -67.5t70.5 -95.5t25.5 -108.5q0 -44 -11.5 -77.5t-28.5 -58t-35.5 -40.5t-32.5 -26
q50 -11 86 -33t59.5 -51.5t35 -65t11.5 -74.5zM0 1182h1214v-81h-1214v81z" />
    <glyph glyph-name="bn_t_t_ba" horiz-adv-x="1196" 
d="M1120 324q0 -70 -24.5 -123t-67.5 -91.5t-100.5 -62.5t-123.5 -36v-271l-114 -62q-89 72 -186 123t-200 66q-8 23 -13.5 43.5t-13.5 44.5q42 29 90.5 51.5t103.5 43.5q-97 56 -174.5 148.5t-132 201.5t-85.5 225t-36 220l112 20q1 -38 9 -90t23.5 -112t39 -124t55.5 -125
t72.5 -115.5t90.5 -95.5t109.5 -65t128.5 -24q27 0 61.5 3t69.5 11.5t68 23.5t59 39.5t41.5 59t15.5 82.5q0 66 -43.5 97.5t-111.5 31.5h-14t-14 -2q-21 -10 -39.5 -20l-29.5 -16q-19 30 -38.5 55t-38.5 54q37 26 79.5 47.5t79 47t60.5 60.5t24 88q0 25 -15 52.5t-44 51
t-71.5 38.5t-98.5 15q-60 0 -102 -21t-63 -47q17 -4 35 -14.5t32.5 -26t24 -36t9.5 -44.5q0 -32 -10.5 -55.5t-27.5 -39.5t-39 -24t-46 -8q-30 0 -58.5 10.5t-52 31.5t-38.5 53t-16 75q3 63 33 111.5t79.5 81.5t115 50t139.5 17q73 0 135 -25.5t107 -67.5t70.5 -95.5
t25.5 -108.5q0 -44 -11.5 -77.5t-28.5 -58t-35.5 -40.5t-32.5 -26q50 -11 86 -33t59.5 -51.5t35 -65t11.5 -74.5zM0 1182h1214v-81h-1214v81zM421 -73q36 -11 74 -25.5t73.5 -32.5t67 -39.5t54.5 -44.5v215q-34 0 -72 -5.5t-74 -15t-68 -23t-55 -29.5z" />
    <glyph glyph-name="bn_t_tha" horiz-adv-x="1300" 
d="M484 886q-4 43 -16.5 78.5t-32.5 61t-47 39.5t-61 14q-16 0 -27.5 -1t-21.5 -3.5t-20.5 -6.5t-25.5 -11q35 -19 61.5 -52.5t26.5 -84.5q0 -29 -10.5 -52.5t-28.5 -40t-43 -25.5t-55 -9q-31 0 -58 12t-47.5 33.5t-32 52.5t-11.5 70q0 43 17.5 82.5t52 70t85.5 48.5t118 18
q39 0 75 -10.5t67 -32t56 -55.5t41 -80q11 34 32 66.5t46.5 58t54.5 40.5t56 15q103 0 148 -63t45 -191q0 -59 -21.5 -119t-61 -116t-96.5 -106.5t-128 -90.5q62 -15 122 -43.5t113.5 -67t100 -85t81.5 -98.5v980h286v-81h-170v-1047l-122 -52q-52 83 -118.5 155t-143.5 128
t-162 93t-173 50l-70 97q39 6 87.5 21t98.5 40t97 60.5t83.5 81t59 101.5t22.5 124q0 22 -4 44.5t-14.5 40.5t-27.5 29.5t-42 11.5t-45 -18.5t-35 -47t-23.5 -62.5t-11.5 -65h-126z" />
    <glyph glyph-name="bn_t_na" horiz-adv-x="1193" 
d="M613 327q-64 0 -130 20t-128 57.5t-116.5 91.5t-97 121.5t-70 147t-33.5 168.5l102 45q9 -95 35 -172t63.5 -136.5t84 -103t97 -71t102 -41t99.5 -13.5q32 0 69.5 4.5t76 16t74 31t63.5 50t44.5 73.5t16.5 100q0 29 -9.5 69t-34 77t-66.5 62.5t-107 25.5q-24 0 -47 -4
t-46 -15t-46.5 -31.5t-47.5 -54.5l40 6t27 3q31 0 53 -12t36.5 -31t21.5 -42.5t7 -45.5q0 -29 -10.5 -52t-29 -39.5t-43.5 -25.5t-55 -9q-39 0 -68.5 17.5t-48.5 45.5t-28.5 62.5t-9.5 68.5q0 46 21 95t60.5 89t95.5 65.5t125 25.5q66 0 115.5 -17.5t85.5 -46t59 -64.5
t37 -73t19.5 -71t5.5 -59q0 -134 -60 -227t-170 -141v-395l-114 -45q-45 130 -131.5 187.5t-203.5 57.5q-12 0 -30.5 -2t-41 -6t-47.5 -10t-49 -14q13 -2 33 -9.5t39 -20t33 -31.5t14 -43q0 -18 -10 -38t-28 -36t-43.5 -26.5t-55.5 -10.5t-56.5 13t-46.5 34.5t-32 49
t-12 57.5q0 42 21 77t62.5 60.5t103.5 40t144 14.5q48 0 99 -14.5t97 -37.5t83 -53t58 -60v229q-36 -5 -65 -6.5t-55 -1.5zM0 1182h1212v-81h-1212v81z" />
    <glyph glyph-name="bn_t_ma" horiz-adv-x="1421" 
d="M1156 1101h-1156v81h1442v-81h-172v-1129l-114 -45q-23 61 -60 107.5t-82.5 77.5t-97.5 46.5t-105 15.5q-77 0 -153 -34q13 -2 33 -9.5t39 -20t32.5 -31.5t13.5 -43q0 -18 -10.5 -38t-29.5 -36t-44.5 -26.5t-55.5 -10.5t-56.5 13t-47 34.5t-32.5 49t-12 57.5
q0 38 16 70.5t52 57.5t93.5 40.5t141.5 20.5q-5 19 -14.5 37t-19.5 33q-35 -7 -65.5 -9t-61.5 -2q-64 0 -129 20t-126.5 57.5t-116.5 91.5t-97.5 121.5t-70 147t-34.5 168.5l101 45q10 -95 36.5 -173t64 -138.5t84.5 -105t97.5 -74t102 -43.5t98.5 -14q31 0 69.5 5t77 18
t75 34t65 52.5t45.5 75.5t17 101q0 29 -10 70t-35.5 79t-68.5 65t-109 27q-23 0 -45.5 -5t-45.5 -17.5t-46.5 -34t-47.5 -55.5l39.5 6t26.5 3q31 0 53 -12t36 -31t20.5 -42.5t6.5 -45.5q0 -57 -38 -91.5t-99 -34.5q-40 0 -69 17.5t-47.5 45.5t-27.5 62.5t-9 68.5
q0 46 21.5 95t61 89t95.5 65.5t125 25.5q65 0 114.5 -17.5t84.5 -46t58 -64.5t36.5 -73t19 -71t5.5 -59q0 -138 -63 -232.5t-182 -143.5q20 -26 27.5 -47t11.5 -44q41 -7 81.5 -23t75.5 -38.5t64 -48.5t47 -52v995z" />
    <glyph glyph-name="bn_t_la" horiz-adv-x="1148" 
d="M746 165q-30 0 -53.5 -18.5t-40 -47t-26.5 -62.5t-11 -65h-127q-4 43 -17 79t-33 61t-47.5 39t-61.5 14q-15 0 -25 -1t-19 -3.5t-18 -6l-22 -8.5l-8 -4q34 -19 59.5 -52t25.5 -86q0 -58 -38 -92t-99 -34q-31 0 -57.5 12t-46.5 34.5t-31.5 53.5t-11.5 69q0 42 17.5 81.5
t52 70t85 49t116.5 18.5q39 0 75.5 -10.5t67.5 -32t56 -54.5t40 -79q12 35 32.5 67t46.5 56t55 38.5t57 14.5q12 0 26 -3.5t31 -13t37.5 -27.5t45.5 -46v183q-53 -16 -105.5 -24t-106.5 -8q-64 0 -129 20t-126.5 57.5t-116.5 91.5t-98 121.5t-70.5 147t-34.5 168.5l102 45
q14 -143 64.5 -246.5t119.5 -170.5t147.5 -99t149.5 -32q32 0 70 5t77 18t75.5 34t65 52.5t45.5 75.5t17 101q0 29 -10 70t-35.5 79t-68.5 65t-109 27q-23 0 -46 -5t-46 -17.5t-46 -34t-47 -55.5q21 3 39.5 6t26.5 3q31 0 53 -12t36.5 -31t21 -42.5t6.5 -45.5
q0 -57 -38 -91.5t-100 -34.5q-39 0 -68 17.5t-48 45.5t-28 62.5t-9 68.5q0 46 21 95t60 89t94.5 65.5t124.5 25.5q66 0 116 -17.5t85.5 -46t59 -64.5t37 -73t19 -71t5.5 -59q0 -106 -35 -186t-103 -132v-445q-22 -7 -43 -15l-37.5 -15t-33.5 -15v118q-6 19 -19.5 40.5
t-31 39t-39 29t-43.5 11.5zM0 1182h1165v-81h-1165v81z" />
    <glyph glyph-name="bn_d_ga" horiz-adv-x="1623" 
d="M735 721q-58 -69 -81.5 -157t-23.5 -177q0 -79 27.5 -164t90.5 -167l-95 -54q-63 81 -98 178.5t-35 204.5q0 68 17 139.5t56 144.5q-86 -28 -142.5 -65.5t-93 -80.5t-57 -89.5t-34.5 -91.5q-38 16 -72 26.5t-72 25.5v707h-122v81h739v-81h-502v-549l19 -4q19 40 55 80.5
t89 75t123.5 61t159.5 39.5q0 76 34 144.5t89 120.5t123 82.5t137 30.5q86 0 157.5 -45.5t134.5 -140.5v186h287v-81h-172v-1056l-115 -45v772q-14 50 -40 105t-63 100.5t-85 75.5t-106 30q-36 0 -78.5 -17t-81.5 -49.5t-68.5 -79.5t-37.5 -108q37 12 74 20.5t61 8.5
q43 0 85 -12t74.5 -35.5t52.5 -59t20 -82.5t-16.5 -84t-43.5 -65t-61 -49t-68.5 -35t-66.5 -22t-55 -12l-70 110q40 1 85.5 12.5t84.5 31.5t66 46t29 56q-6 52 -46 73t-98 21q-41 0 -86 -8.5t-84 -22.5z" />
    <glyph glyph-name="bn_d_gha" horiz-adv-x="1608" 
d="M0 1101v81h1631v-81h-171v-1056l-115 -45q-49 81 -110.5 152t-134 127t-155 95.5t-173.5 57.5l-44 69l254 166q-72 0 -131.5 19.5t-98.5 50.5q-25 -32 -47.5 -71t-39.5 -82t-27 -87.5t-10 -86.5q0 -39 7 -83.5t21.5 -90.5t37 -92t54.5 -88l-95 -54q-63 81 -98 182
t-35 208q0 68 17 136t56 141q-86 -28 -142.5 -65.5t-93 -80.5t-57 -89.5t-34.5 -91.5q-38 16 -72 26.5t-72 25.5v707h-122zM1208 694l-307 -203q72 -17 142 -55t129.5 -84.5t105 -94.5t67.5 -83v927h-412q-89 -48 -127 -96.5t-38 -94.5q0 -42 19.5 -72.5t51.5 -50.5
t72.5 -29.5t81.5 -9.5q54 0 102 15t79 35zM778 1101h-541v-549l19 -4q19 39 56 80.5t91.5 77.5t126 64t160.5 41q-13 26 -18 51t-5 48q0 57 28.5 104.5t82.5 86.5z" />
    <glyph glyph-name="bn_d_da" horiz-adv-x="1239" 
d="M0 1101v81h1246v-81h-1009v-340q30 46 73.5 88.5t98 77t118.5 59t133 35.5q19 -31 39 -56.5t40 -54.5q-26 -28 -45.5 -57.5t-33.5 -63.5t-21 -74.5t-7 -90.5q0 -31 5.5 -65t20.5 -82q19 53 58 101.5t91.5 86t116.5 61t135 26.5l40 -55.5t38 -56.5q-49 -58 -76 -127
t-27 -157q0 -72 26 -145t88 -155l-94 -54q-24 31 -48 69.5t-42.5 80.5t-30 86.5t-11.5 88.5q0 86 15 157.5t54 143.5q-65 -16 -112 -45.5t-78 -65.5t-48.5 -76t-24.5 -76l-77 -90q-58 78 -93.5 168t-35.5 176q0 65 16.5 132.5t54.5 140.5q-87 -28 -143.5 -62t-92.5 -72
t-56 -80t-33 -87q-38 14 -72.5 23.5t-73.5 25.5v461h-122z" />
    <glyph glyph-name="bn_d_d_ba" horiz-adv-x="1291" 
d="M1137 -28q-22 -7 -42 -15l-37 -15t-35 -15q-89 74 -185 120t-200 61l-32 88q36 27 87.5 55.5t107.5 54t111.5 45.5t101.5 30q-25 70 -25 144q0 22 2 49t7 58q-66 -15 -114 -44.5t-81 -67t-52.5 -78.5t-27.5 -77l-74 -90q-58 78 -93.5 168t-35.5 176q0 65 16.5 132.5
t54.5 140.5q-87 -28 -144 -62t-93 -72t-56 -80t-34 -87q-37 14 -71 23.5t-73 25.5v461h-120v81h1309v-81h-1075v-340q30 46 73.5 88.5t98.5 77t119 59t133 35.5q19 -31 38.5 -56.5t38.5 -54.5q-25 -28 -44.5 -57.5t-33 -63.5t-20.5 -74.5t-7 -90.5q0 -31 5.5 -65t20.5 -82
q19 53 57.5 101.5t91 86t117 61t135.5 26.5l80 -114q-13 -26 -19.5 -64t-6.5 -80q0 -91 26 -163v-359zM772 155q131 -33 251 -127v251q-34 -4 -69.5 -14.5t-69 -24.5t-63.5 -30.5t-53 -33.5z" />
    <glyph glyph-name="bn_d_d_ra" horiz-adv-x="1307" 
d="M0 1101v81h1324v-81h-1090v-340q30 46 73.5 88.5t98.5 77t119 59t133 35.5q19 -31 38.5 -56.5t38.5 -54.5q-25 -28 -44.5 -57.5t-33 -63.5t-20.5 -74.5t-7 -90.5q0 -31 5.5 -65t20.5 -82q19 53 57.5 101.5t91 86t117 61t135.5 26.5q18 -29 39 -55.5t39 -56.5
q-49 -58 -76 -127t-27 -157q0 -75 28.5 -150t93.5 -156v-78q-15 -7 -30 -15l-29.5 -15t-30.5 -15q-37 27 -68.5 44.5t-59 27t-51.5 13t-45 3.5q-35 0 -66.5 -10.5t-62 -23t-61.5 -23t-65 -10.5q-50 0 -99 14.5t-90 39.5t-72.5 59.5t-46.5 73.5l86 37q21 -45 50 -69.5
t59 -36.5t58 -14t46 -2q34 0 65.5 11t62 24t61.5 24t64 11q20 0 43.5 -7t49 -18t52 -24l53.5 -26l-38 70.5t-34.5 73t-25 71.5t-9.5 67q0 86 15 157.5t54 143.5q-65 -16 -112.5 -45.5t-79 -65.5t-49.5 -76t-25 -76l-74 -90q-58 78 -93.5 168t-35.5 176q0 65 16.5 132.5
t54.5 140.5q-87 -28 -144 -62t-93 -72t-56 -80t-34 -87q-37 14 -71 23.5t-73 25.5v461h-120z" />
    <glyph glyph-name="bn_d_dha" horiz-adv-x="1426" 
d="M1148 690q-53 -10 -98.5 -19.5t-86.5 -20l-79 -21l-75 -21.5v-554l-122 -52q-51 67 -118 109.5t-142 68.5t-154 38.5t-153 18.5l-75 105q168 109 328 189.5t321 137.5v225q-84 -17 -145 -50.5t-103.5 -75.5t-69 -89t-41.5 -91q-38 15 -72 25.5t-72 26.5v461h-191v81h1447
v-81h-1140v-340q28 46 72 88.5t98.5 77t118.5 59t132 35.5l81 -116v-198q102 29 197.5 53.5t192.5 39.5q18 -31 39 -57.5t39 -55.5q-25 -30 -47.5 -64.5t-39 -72.5t-26.5 -79t-10 -84q0 -79 26.5 -164t89.5 -167q-27 -14 -48.5 -27l-45.5 -27q-63 81 -98 178.5t-35 204.5
q0 33 9.5 73.5t24.5 82t34 80.5t37 69zM694 570q-134 -51 -257.5 -114t-238.5 -136q60 -2 121.5 -9t124 -25.5t125 -51t125.5 -83.5v419z" />
    <glyph glyph-name="bn_d_dh_ba" horiz-adv-x="1428" 
d="M809 714q103 29 198.5 50t191.5 36q18 -31 39 -57.5t39 -55.5q-25 -30 -47.5 -64.5t-39 -72.5t-26.5 -79t-10 -84q0 -79 26.5 -164t89.5 -167q-27 -14 -48.5 -27l-45.5 -27q-63 81 -98 178.5t-35 204.5q0 34 8.5 72.5t22 78t31 78t35.5 73.5q-88 -15 -170 -34.5
l-161 -39.5v-719q-35 -12 -64.5 -26t-59.5 -25q-88 71 -180 116.5t-196 60.5q-11 23 -16.5 44.5t-13.5 43.5q46 29 97.5 54t114.5 47q-59 15 -115 25.5t-105 17.5t-89 10t-65 4l-72 106q166 108 327 183t322 128v211q-81 -16 -142.5 -46.5t-105 -67t-71 -76t-40.5 -74.5
q-38 17 -72 28t-72 27v416h-191v81h1449v-81h-1142v-286q33 37 75 72.5t94.5 64.5t115 48t136.5 23l81 -118v-191zM207 354q79 0 153 -9.5t137.5 -24t114 -33t82.5 -37.5v329q-134 -43 -253.5 -96t-233.5 -129zM421 81q76 -27 144.5 -60.5t128.5 -81.5v214q-35 0 -73.5 -5.5
t-75.5 -15t-69.5 -23t-54.5 -28.5z" />
    <glyph glyph-name="bn_d_na" horiz-adv-x="969" 
d="M710 4q-51 121 -134 181t-204 60q-11 0 -30.5 -2t-42 -7t-47 -12.5t-45.5 -18.5q18 -3 37.5 -9t36 -17t27 -28t10.5 -41q0 -18 -10.5 -37.5t-29 -35.5t-44 -26.5t-56.5 -10.5q-30 0 -56.5 13t-46.5 34t-31.5 48t-11.5 56q0 42 21.5 77.5t62 61t100 40t135.5 14.5
q22 0 54 -4.5t68 -15t73.5 -28.5t72.5 -44l-13 70q-5 28 -9 59t-4 56q0 32 3 72.5t11.5 85t22 90t34.5 87.5q-86 -28 -142 -63.5t-92.5 -76.5t-58.5 -88t-40 -97l-69.5 24.5t-67.5 26.5v603h-194v81h982v-81h-673v-465q23 45 63 87.5t94.5 77t122 58t146.5 31.5
q17 -26 37 -47.5t37 -44.5q-33 -38 -53.5 -85t-32.5 -94.5t-16 -92t-4 -77.5t2.5 -74t13 -90t31 -106.5t56.5 -122.5z" />
    <glyph glyph-name="bn_d_bha" horiz-adv-x="1266" 
d="M1014 503q-23 -39 -51 -71.5t-63 -55t-78.5 -35t-96.5 -12.5q-74 0 -123 26t-78 63.5t-41 78.5t-12 71q0 39 11.5 70t31 53t44.5 34t52 12q44 0 76 -27.5t32 -85.5q0 -29 -9.5 -48t-23.5 -31.5t-30 -19.5t-29 -11q-2 0 -4.5 -1t-4.5 -1q9 -22 24.5 -37.5t32.5 -25
t33 -13.5t26 -4q34 0 67 14.5t65 37.5q-20 24 -37.5 56.5t-30.5 69.5t-20 77t-7 79q0 65 30 139q-77 -4 -151 -37t-136 -80t-106.5 -100.5t-62.5 -99.5q-37 15 -71.5 25.5t-72.5 26.5v461h-200v81h1273v-81h-957v-340q29 47 83.5 90t122 77.5t142 59t145.5 33.5
q22 -27 46.5 -50.5t47.5 -48.5q-15 -27 -21.5 -67t-6.5 -85q0 -51 12 -104t44 -101l22.5 33.5t26.5 41.5l176 -43v-25q0 -154 -44.5 -262.5t-117.5 -177.5t-167.5 -100.5t-194.5 -31.5q-102 0 -198 29t-175 92t-135 163t-79 241l57.5 28t59.5 26q9 -108 46.5 -194.5
t98.5 -146.5t141.5 -92t175.5 -32q86 0 159.5 25.5t127.5 75t86.5 120.5t36.5 163z" />
    <glyph glyph-name="bn_d_bh_ra" horiz-adv-x="1180" 
d="M1025 610v-565l-43 -17l-37.5 -15t-34.5 -13q-40 30 -68 47.5t-49.5 27t-40 12.5t-38.5 3q-36 0 -67.5 -11t-62.5 -24t-61.5 -24t-64.5 -11q-51 0 -100 14.5t-90.5 40t-73 60t-46.5 74.5l86 36q21 -44 50 -68.5t59.5 -36t58.5 -14t47 -2.5q34 0 65.5 11t62 24t61 24
t63.5 11q34 0 66 -9.5t59.5 -23t49 -28l34.5 -23.5v352q-51 -61 -114.5 -97t-146.5 -36q-75 0 -124 26t-78.5 63.5t-41 78.5t-11.5 71q0 39 11.5 70t30.5 53t44.5 34t52.5 12q22 0 41.5 -7t34.5 -21t24 -35t9 -50q0 -31 -12 -52t-28.5 -34t-34.5 -19t-29 -7
q9 -22 24.5 -37.5t33 -25t33 -13.5t24.5 -4q34 0 68.5 14.5t65.5 37.5q-20 24 -37 56.5t-30 69.5t-20.5 77t-7.5 79q0 34 7 68t24 71q-77 -4 -151.5 -37t-136 -80t-106 -100.5t-61.5 -99.5q-38 15 -72 25.5t-72 26.5v461h-124v81h1199v-81h-962v-340q30 47 84.5 90t122 77.5
t143 59t146.5 33.5q21 -27 44.5 -50.5l47.5 -48.5q-16 -27 -23 -67t-7 -85q0 -51 12.5 -104t46.5 -101l23 33.5t24 41.5z" />
    <glyph glyph-name="bn_d_ma" horiz-adv-x="1097" 
d="M1113 1182v-81h-171v-1056l-115 -45v88q-14 66 -47 113.5t-76 78.5t-91 45.5t-91 14.5q-7 0 -33 -1.5t-57 -9t-60.5 -25t-44.5 -48.5q33 0 59 -11t43.5 -29.5t27 -41.5t9.5 -47q0 -58 -39 -92.5t-100 -34.5q-30 0 -56.5 12t-46.5 34t-32 53.5t-12 69.5q0 78 36.5 132.5
t89.5 88.5t112 49.5t104 15.5q1 35 5.5 74.5t13 80.5t21.5 82t33 80q-86 -28 -142.5 -65.5t-92.5 -80.5t-56.5 -89t-35.5 -90q-38 14 -72 24.5t-72 26.5v603h-124v81h1113zM827 1101h-588v-465q18 39 56 80.5t92 76.5t124 61.5t153 35.5q17 -26 37.5 -47.5t37.5 -44.5
q-32 -38 -53 -86t-33 -98.5t-16.5 -97.5t-4.5 -81q31 -10 62 -26t57.5 -34.5t46.5 -37.5t29 -36v800z" />
    <glyph glyph-name="bn_dh_na" horiz-adv-x="982" 
d="M825 1101v-1119l-120 -51q-20 64 -52 108t-72.5 71.5t-88.5 39.5t-100 12q-41 0 -84 -6.5t-87 -18.5q12 -2 30.5 -8.5t36 -19t29.5 -31t12 -42.5q0 -18 -10.5 -38t-29 -36t-44 -26.5t-56.5 -10.5q-30 0 -56.5 13t-46.5 34.5t-31.5 49t-11.5 57.5q0 42 18 77t59 60.5
t107.5 40t164.5 14.5q31 0 68 -8t73 -21t68.5 -28.5t54.5 -30.5q-34 56 -93 105.5t-130.5 88.5t-148.5 65.5t-147 37.5q-20 27 -37 54t-37 54q48 46 107.5 95t124.5 97q-45 18 -78 44.5t-55.5 59t-33.5 68t-11 71.5q0 33 10.5 66.5t31 60t51.5 43.5t72 17q34 0 60.5 -11.5
t44.5 -31t27.5 -44.5t9.5 -51q0 -23 -8 -45t-23 -39.5t-37.5 -28.5t-51.5 -11q-25 0 -44.5 8t-42.5 22q9 -36 27.5 -61.5t40.5 -43t45 -27t42 -14.5q81 54 166 97t172 81v172h286v-81h-171zM232 568q64 -10 132 -35t131.5 -62t119 -83.5t95.5 -99.5v598
q-118 -54 -243.5 -134.5t-234.5 -183.5z" />
    <glyph glyph-name="bn_dh_ma" horiz-adv-x="1302" 
d="M806 1101v-841q36 -10 70 -26t63.5 -36t54 -43.5t40.5 -48.5v995h-228zM217 570q43 -3 100 -12t120 -31.5t129 -64.5t126 -111v535q-59 -27 -120.5 -60.5t-122.5 -73.5t-120 -85.5t-112 -96.5zM277 780q-45 18 -78.5 44.5t-55.5 59t-33 68t-11 71.5q0 33 10 66.5t30.5 60
t51.5 43.5t73 17q34 0 60.5 -11.5t44.5 -31t27.5 -44.5t9.5 -51q0 -23 -8 -45t-23 -39.5t-37.5 -28.5t-51.5 -11q-26 0 -45 8t-43 22q9 -36 27.5 -61.5t41 -43t45.5 -27t42 -14.5q81 54 165.5 97t172.5 81v172h628v-81h-172v-1129l-114 -45q-24 62 -58.5 107t-77.5 74.5
t-92.5 44t-102.5 14.5q-38 0 -77.5 -7t-79.5 -20q12 -2 30.5 -9.5t35.5 -20t29 -31.5t12 -43q0 -18 -10.5 -38t-29 -36t-44 -26.5t-55.5 -10.5t-56.5 13t-46.5 34.5t-32 49t-12 57.5q0 34 13 64t43 54t78 41t118 26q-59 61 -118.5 98t-121 59.5t-126 35t-133.5 23.5
q-21 27 -37 54t-36 54q46 46 105.5 95t124.5 97z" />
    <glyph glyph-name="bn_n_tta" horiz-adv-x="1415" 
d="M595 680q-18 46 -38 90t-48 77.5t-66 54t-92 20.5q-49 0 -92 -35t-65 -107q31 0 56 -11.5t42.5 -30.5t27 -43t9.5 -48q0 -28 -10.5 -51.5t-28.5 -40t-43.5 -26t-55.5 -9.5t-57 12t-47.5 34.5t-32 54.5t-11.5 71q0 79 27 142.5t69 108.5t94 69t102 24q45 0 83 -12t70 -33
t58.5 -49.5t48.5 -62.5v222h-595v81h1221q8 20 11.5 35.5t3.5 30.5q0 45 -32 73t-84 46t-118.5 29t-136.5 21.5t-136.5 25t-118.5 38.5t-84 61.5t-32 95.5q0 37 17.5 84.5t51.5 102.5q19 -10 38.5 -22.5l36.5 -22.5q-24 -35 -35.5 -66.5t-11.5 -57.5q0 -49 32 -79t85 -49.5
t120.5 -31t137.5 -21.5t137.5 -23t120.5 -35.5t85 -57t32 -89.5q0 -17 -3 -38t-14 -50h112v-81h-726v-815q0 -20 6 -49t22.5 -56.5t45.5 -47t74 -19.5q49 0 108 28.5t110 77t85.5 112t34.5 132.5q0 26 -8 57.5t-23 69.5q-26 -54 -62.5 -84t-75.5 -30q-32 0 -56 12
t-40.5 30.5t-25 41.5t-8.5 45q0 34 14 60.5t37 44.5t54 27.5t66 9.5q57 0 100.5 -24.5t73 -64t45 -90.5t15.5 -103q0 -89 -36.5 -173t-100.5 -149t-151.5 -104.5t-190.5 -39.5q-48 0 -89.5 19.5t-72 52t-48.5 74.5t-18 86v448z" />
    <glyph glyph-name="bn_n_tt_ra" horiz-adv-x="1426" 
d="M606 680q-18 46 -38 90t-47.5 77.5t-65.5 54t-92 20.5q-48 0 -92 -35t-66 -107q32 0 57 -11.5t42.5 -30.5t26.5 -43t9 -48q0 -57 -38 -92t-100 -35q-30 0 -56.5 12t-46.5 34.5t-31.5 54.5t-11.5 71q0 79 27 142.5t69 108.5t93.5 69t100.5 24q45 0 83 -12t70 -33
t58.5 -49.5t48.5 -62.5v222h-606v81h1234q17 37 17 66q0 36 -30 62.5t-78.5 45.5t-109 32.5t-120.5 24.5t-114 20t-89 20q-42 13 -79.5 29.5t-65.5 38.5t-44 51t-16 66t18.5 84.5t50.5 102.5l77 -45q-26 -35 -37.5 -66.5t-11.5 -57.5t12 -45.5t32 -35t46.5 -27t55.5 -20.5
q42 -13 92.5 -20.5l101.5 -15.5q74 -12 148 -25.5t132.5 -37.5t95 -61.5t36.5 -97.5q0 -17 -3 -38t-16 -50h112v-81h-726v-815q0 -20 6 -49t23 -56.5t46 -47t76 -19.5q32 0 70 13t75 36.5t71.5 56t61 71.5t42.5 83t16 90q0 26 -8.5 57.5t-23.5 69.5q-26 -54 -62.5 -84
t-75.5 -30q-32 0 -56 12t-40.5 30.5t-25 41.5t-8.5 45q0 34 14 60.5t37.5 44.5t54.5 27.5t65 9.5q57 0 101 -24.5t73.5 -64t44.5 -90.5t15 -103q0 -89 -36 -173t-99.5 -149t-151.5 -104.5t-192 -39.5q-52 0 -113 32v-50q-32 -12 -62 -26.5t-62 -28.5q-36 31 -59.5 49.5
t-41.5 27.5t-34 11.5t-36 2.5q-33 0 -63 -11t-59.5 -24t-59 -24t-61.5 -11q-48 0 -90.5 14t-77.5 39t-61.5 59.5t-41.5 74.5l88 37q21 -42 45 -66t49 -36.5t49.5 -16t47.5 -3.5q32 0 60.5 11t56 24t55 24t58.5 11q34 0 61 -9.5t49.5 -23t40.5 -28t34 -23.5v644z" />
    </font>
</defs>
</svg>
