<?xml version="1.0" ?><!DOCTYPE svg  PUBLIC '-//W3C//DTD SVG 1.1//EN'  'http://www.w3.org/Graphics/SVG/1.1/DTD/svg11.dtd'><svg enable-background="new 0 0 128 128" id="Слой_1" version="1.1" viewBox="0 0 128 128" xml:space="preserve" xmlns="http://www.w3.org/2000/svg" xmlns:xlink="http://www.w3.org/1999/xlink"><g><g><g><g><path d="M94.595,111h-61.19c-1.658,0-3.006-1.349-3.006-3.006V21.726c0-1.658,1.349-3.007,3.006-3.007h18.984      c0.552,0,1,0.447,1,1s-0.448,1-1,1H33.405c-0.555,0-1.006,0.452-1.006,1.007v86.269c0,0.555,0.452,1.006,1.006,1.006h61.19      c0.555,0,1.006-0.451,1.006-1.006V21.726c0-0.555-0.452-1.007-1.006-1.007h-18.39c-0.552,0-1-0.447-1-1s0.448-1,1-1h18.39      c1.658,0,3.006,1.349,3.006,3.007v86.269C97.602,109.651,96.253,111,94.595,111z" fill="#323638"/></g></g><g><path d="M74.356,26.236H53.644c-1.549,0-2.721-0.437-3.389-1.264c-0.377-0.468-0.771-1.289-0.499-2.549     c0.021-0.099,0.058-0.194,0.108-0.283l2.315-4.077c0.788-1.473,1.8-2.855,3.78-2.855h4.137v-2.26     c0-2.177,1.798-3.948,4.009-3.948s4.009,1.771,4.009,3.948v2.26h3.928c2.024,0,3.056,1.46,3.797,2.889l2.297,4.044     c0.05,0.089,0.086,0.185,0.108,0.283c0.271,1.26-0.122,2.081-0.499,2.549C77.078,25.8,75.906,26.236,74.356,26.236z      M51.686,22.983c-0.074,0.485,0.074,0.669,0.125,0.733c0.263,0.325,0.948,0.52,1.833,0.52h20.713c0.885,0,1.57-0.194,1.833-0.52     c0.052-0.064,0.2-0.248,0.125-0.733l-2.232-3.932c-0.804-1.548-1.355-1.844-2.041-1.844h-4.928c-0.552,0-1-0.447-1-1v-3.26     c0-1.074-0.901-1.948-2.009-1.948s-2.009,0.874-2.009,1.948v3.26c0,0.553-0.448,1-1,1h-5.137c-0.798,0-1.291,0.442-2.028,1.821     L51.686,22.983z" fill="#323638"/></g><g><g><path d="M48.76,75.233c-0.188,0-0.349-0.069-0.472-0.192c-0.178-0.178-0.242-0.438-0.168-0.68l3.141-7.024      c0.025-0.056,0.06-0.106,0.103-0.149l32.273-32.272c0.195-0.195,0.512-0.195,0.707,0s0.195,0.512,0,0.707L52.136,67.829      l-2.731,6.1l6.096-2.734l32.208-32.207c0.195-0.195,0.512-0.195,0.707,0s0.195,0.512,0,0.707L56.143,71.967      c-0.043,0.043-0.094,0.078-0.149,0.103l-6.967,3.12C48.934,75.22,48.844,75.233,48.76,75.233z" fill="#323638"/></g><g><path d="M55.746,72.157c-0.128,0-0.256-0.049-0.354-0.146l-4.072-4.072c-0.195-0.195-0.195-0.512,0-0.707      s0.512-0.195,0.707,0l4.072,4.072c0.195,0.195,0.195,0.512,0,0.707C56.001,72.108,55.874,72.157,55.746,72.157z" fill="#323638"/></g><g><path d="M88.072,39.831c-0.128,0-0.256-0.049-0.354-0.146c-0.195-0.195-0.195-0.512,0-0.707l1.156-1.156      c0.195-0.195,0.512-0.195,0.707,0s0.195,0.512,0,0.707l-1.156,1.156C88.328,39.782,88.2,39.831,88.072,39.831z" fill="#323638"/></g><g><path d="M84,35.759c-0.128,0-0.256-0.049-0.354-0.146c-0.195-0.195-0.195-0.512,0-0.707l1.156-1.156      c0.195-0.195,0.512-0.195,0.707,0s0.195,0.512,0,0.707l-1.156,1.156C84.256,35.71,84.128,35.759,84,35.759z" fill="#323638"/></g><g><path d="M89.274,38.629c-0.128,0-0.256-0.049-0.354-0.146c-0.195-0.195-0.195-0.512,0-0.707l1.26-1.26      c0.181-0.181,0.173-0.483-0.017-0.674l-2.675-2.675c-0.095-0.095-0.198-0.164-0.352-0.147c-0.123,0-0.236,0.046-0.321,0.131      l-1.26,1.26c-0.195,0.195-0.512,0.195-0.707,0s-0.195-0.512,0-0.707l1.259-1.26c0.278-0.278,0.649-0.434,1.046-0.424      c0.392,0.005,0.762,0.161,1.041,0.44l2.675,2.675c0.58,0.58,0.588,1.517,0.018,2.088l-1.26,1.26      C89.53,38.58,89.402,38.629,89.274,38.629z" fill="#323638"/></g><g><path d="      M53.151,68.822" fill="none" stroke="#323638" stroke-linecap="round" stroke-linejoin="round" stroke-miterlimit="10" stroke-width="0.5"/></g><g><path d="      M86.673,38.016" fill="none" stroke="#323638" stroke-linecap="round" stroke-linejoin="round" stroke-miterlimit="10" stroke-width="0.5"/></g><g><path d="      M54.491,70.197" fill="none" stroke="#323638" stroke-linecap="round" stroke-linejoin="round" stroke-miterlimit="10" stroke-width="0.5"/></g><g><path d="M56.407,70.996" fill="none" stroke="#323638" stroke-linecap="round" stroke-linejoin="round" stroke-miterlimit="10"/></g><g><path d="M50.582,74.202c-0.22,0-0.422-0.146-0.482-0.369c-0.123-0.457-0.601-0.602-0.605-0.604      c-0.266-0.074-0.421-0.35-0.347-0.616s0.352-0.421,0.616-0.347c0.381,0.106,1.085,0.501,1.303,1.305      c0.072,0.267-0.086,0.541-0.353,0.613C50.669,74.196,50.625,74.202,50.582,74.202z" fill="#323638"/></g></g></g><g><g><g><path d="M45.333,42.909h-8c-0.276,0-0.5-0.224-0.5-0.5v-8c0-0.276,0.224-0.5,0.5-0.5h8      c0.276,0,0.5,0.224,0.5,0.5v8C45.833,42.686,45.61,42.909,45.333,42.909z M37.833,41.909h7v-7h-7V41.909z" fill="#323638"/></g><g><path d="M75.667,38.909h-23c-0.276,0-0.5-0.224-0.5-0.5s0.224-0.5,0.5-0.5h23c0.276,0,0.5,0.224,0.5,0.5      S75.943,38.909,75.667,38.909z" fill="#323638"/></g><g><path d="M40.569,41.181L40.569,41.181c-0.115,0-0.224-0.053-0.295-0.144l-1.965-2.503      c-0.128-0.163-0.1-0.398,0.063-0.526c0.163-0.128,0.399-0.101,0.526,0.063l1.67,2.127l3.043-3.874      c0.128-0.164,0.364-0.19,0.526-0.063c0.163,0.128,0.191,0.363,0.063,0.526l-3.338,4.25      C40.793,41.128,40.685,41.181,40.569,41.181z" fill="#323638"/></g></g><g><g><path d="M45.333,56.909h-8c-0.276,0-0.5-0.224-0.5-0.5v-8c0-0.276,0.224-0.5,0.5-0.5h8      c0.276,0,0.5,0.224,0.5,0.5v8C45.833,56.686,45.61,56.909,45.333,56.909z M37.833,55.909h7v-7h-7V55.909z" fill="#323638"/></g><g><path d="M87.667,52.909H79.5c-0.276,0-0.5-0.224-0.5-0.5s0.224-0.5,0.5-0.5h8.167c0.276,0,0.5,0.224,0.5,0.5      S87.943,52.909,87.667,52.909z" fill="#323638"/></g><g><path d="M62.5,52.909h-9.833c-0.276,0-0.5-0.224-0.5-0.5s0.224-0.5,0.5-0.5H62.5c0.276,0,0.5,0.224,0.5,0.5      S62.776,52.909,62.5,52.909z" fill="#323638"/></g><g><path d="M40.569,55.181L40.569,55.181c-0.115,0-0.224-0.053-0.295-0.144l-1.965-2.503      c-0.128-0.163-0.1-0.398,0.063-0.526c0.163-0.129,0.399-0.101,0.526,0.063l1.67,2.127l3.043-3.874      c0.128-0.164,0.364-0.19,0.526-0.063c0.163,0.128,0.191,0.363,0.063,0.526l-3.338,4.25      C40.793,55.128,40.685,55.181,40.569,55.181z" fill="#323638"/></g></g><g><g><path d="M45.333,70.909h-8c-0.276,0-0.5-0.224-0.5-0.5v-8c0-0.276,0.224-0.5,0.5-0.5h8      c0.276,0,0.5,0.224,0.5,0.5v8C45.833,70.686,45.61,70.909,45.333,70.909z M37.833,69.909h7v-7h-7V69.909z" fill="#323638"/></g><g><path d="M87.667,66.909h-21c-0.276,0-0.5-0.224-0.5-0.5s0.224-0.5,0.5-0.5h21c0.276,0,0.5,0.224,0.5,0.5      S87.943,66.909,87.667,66.909z" fill="#323638"/></g><g><path d="M40.569,69.181L40.569,69.181c-0.115,0-0.224-0.053-0.295-0.144l-1.965-2.503      c-0.128-0.163-0.1-0.398,0.063-0.526c0.163-0.129,0.399-0.101,0.526,0.063l1.67,2.127l3.043-3.874      c0.128-0.164,0.364-0.19,0.526-0.063c0.163,0.128,0.191,0.363,0.063,0.526l-3.338,4.25      C40.793,69.128,40.685,69.181,40.569,69.181z" fill="#323638"/></g></g><g><g><path d="M45.333,84.909h-8c-0.276,0-0.5-0.224-0.5-0.5v-8c0-0.276,0.224-0.5,0.5-0.5h8      c0.276,0,0.5,0.224,0.5,0.5v8C45.833,84.686,45.61,84.909,45.333,84.909z M37.833,83.909h7v-7h-7V83.909z" fill="#323638"/></g><g><path d="M87.667,80.909h-35c-0.276,0-0.5-0.224-0.5-0.5s0.224-0.5,0.5-0.5h35c0.276,0,0.5,0.224,0.5,0.5      S87.943,80.909,87.667,80.909z" fill="#323638"/></g></g><g><g><path d="M45.333,98.909h-8c-0.276,0-0.5-0.224-0.5-0.5v-8c0-0.276,0.224-0.5,0.5-0.5h8      c0.276,0,0.5,0.224,0.5,0.5v8C45.833,98.686,45.61,98.909,45.333,98.909z M37.833,97.909h7v-7h-7V97.909z" fill="#323638"/></g><g><path d="M87.667,94.909h-35c-0.276,0-0.5-0.224-0.5-0.5s0.224-0.5,0.5-0.5h35c0.276,0,0.5,0.224,0.5,0.5      S87.943,94.909,87.667,94.909z" fill="#323638"/></g></g></g></g></svg>